<svg width="465" height="243" viewBox="0 0 465 243" fill="none" xmlns="http://www.w3.org/2000/svg">
<g clip-path="url(#clip0_984_1224)">
<path d="M405.527 66.7989C406.233 65.3614 405.932 63.6329 404.783 62.5175C402.909 60.6981 404.458 57.5432 407.044 57.9134C408.629 58.1404 410.18 57.3208 410.886 55.8833C412.037 53.5385 415.516 54.0367 415.963 56.6104C416.237 58.1882 417.496 59.4101 419.081 59.6371C421.667 60.0074 422.268 63.4702 419.959 64.6905C418.543 65.4386 417.77 67.0134 418.044 68.5912C418.49 71.1649 415.383 72.8068 413.509 70.9874C412.36 69.872 410.623 69.6233 409.207 70.3714C406.897 71.5918 404.376 69.1437 405.527 66.7989Z" fill="#FBDD00" stroke="black"/>
<path d="M108.998 154.468L122.558 133.128L122.745 158.394L146.281 149.093L131.563 169.642L156.075 175.925L132.066 183.911L148.196 203.371L124.063 195.752L125.656 220.968L110.627 200.646L97.066 221.977L96.8696 196.711L73.3427 206.012L88.0611 185.463L63.5494 179.189L87.5578 171.194L71.4281 151.733L95.5519 159.353L93.9676 134.136L108.998 154.468Z" fill="white" stroke="black" stroke-miterlimit="10"/>
<path d="M-200.022 161.479C-4.32257 -9.03478 213.66 28.2458 286.044 87.0331L281.039 88.3503C146.958 13.2805 -97.8631 98.4062 -174.921 170.673L-200.022 161.479Z" fill="#AED8FF" stroke="black"/>
<path d="M-202.656 151.469C-6.95668 -19.045 211.151 18.7123 283.536 77.4996L278.769 78.754C144.688 3.68428 -100.497 88.396 -177.555 160.663L-202.656 151.469Z" fill="#D1A7F2" stroke="black"/>
<path d="M-209.129 140.43C-13.4296 -30.0837 203.834 11.1093 276.219 69.8966L271.719 69.3962C137.638 -5.67348 -106.97 77.3573 -184.028 149.625L-209.129 140.43Z" fill="#FFDF8D" stroke="black"/>
<path d="M-219.407 128.308C-23.7079 -42.2059 193.556 -1.01296 265.94 57.7743L261.315 60.2897C127.235 -14.78 -117.248 65.235 -194.306 137.502L-219.407 128.308Z" fill="#FED1D1" stroke="black"/>
<rect x="243.515" y="72.1081" width="25.2761" height="108.234" transform="rotate(-57.4343 243.515 72.1081)" fill="#D9D9D9" stroke="black"/>
<rect x="241.779" y="143.086" width="149.9" height="15.5164" transform="rotate(-49.8571 241.779 143.086)" fill="white" stroke="black"/>
<path d="M388.046 238.264L259.034 148.246L346.659 44.3458L457.396 156.034L388.046 238.264Z" fill="#F37D6E" stroke="black"/>
<path d="M107.004 73.5766C108.098 71.3467 107.633 68.6655 105.85 66.9353C102.56 63.7411 105.279 58.2024 109.819 58.8524C112.278 59.2045 114.684 57.9332 115.779 55.7034C117.8 51.5869 123.908 52.4615 124.692 56.9797C125.117 59.4272 127.07 61.3226 129.529 61.6748C134.068 62.3248 135.124 68.4041 131.069 70.5465C128.873 71.707 127.674 74.1497 128.099 76.5972C128.883 81.1155 123.428 83.998 120.137 80.8039C118.355 79.0736 115.661 78.6879 113.465 79.8484C109.41 81.9908 104.983 77.6931 107.004 73.5766Z" fill="#FBDD00" stroke="black"/>
<path d="M229.128 113.736C229.81 112.347 229.52 110.677 228.41 109.6C226.622 107.865 228.1 104.856 230.565 105.209C232.097 105.428 233.596 104.636 234.278 103.248C235.376 101.011 238.693 101.486 239.12 103.941C239.384 105.465 240.601 106.646 242.132 106.865C244.598 107.218 245.172 110.521 242.969 111.684C241.601 112.407 240.854 113.929 241.119 115.453C241.545 117.908 238.581 119.473 236.794 117.738C235.684 116.661 234.006 116.42 232.638 117.143C230.435 118.307 228.03 115.972 229.128 113.736Z" fill="#FBDD00" stroke="black"/>
<path d="M388.939 169.132L349.788 171.548L349.775 171.344L349.276 171.374L341.116 171.878C330.304 172.545 320.999 164.322 320.332 153.51C319.665 142.699 327.888 133.394 338.699 132.727L346.86 132.223L347.359 132.192L347.328 131.693L346.837 123.74C346.17 112.928 354.393 103.623 365.205 102.956C376.016 102.289 385.321 110.512 385.988 121.324L388.939 169.132Z" fill="white" stroke="black"/>
</g>
<defs>
<clipPath id="clip0_984_1224">
<rect width="465" height="243" fill="white"/>
</clipPath>
</defs>
</svg>
