<svg width="40" height="40" viewBox="0 0 40 40" fill="none" xmlns="http://www.w3.org/2000/svg">
<mask id="mask0_789_5568" style="mask-type:luminance" maskUnits="userSpaceOnUse" x="1" y="1" width="38" height="38">
<path d="M39 1H1V39H39V1Z" fill="white"/>
</mask>
<g mask="url(#mask0_789_5568)">
<path d="M12.0465 37.9442L19.9946 32.3624L27.9395 37.9421C28.4276 38.3038 29.0137 38.5 29.617 38.5C30.2228 38.5 30.8112 38.3022 31.3005 37.9376L31.3023 37.9363C31.7872 37.5715 32.1488 37.0611 32.3413 36.4779C32.5336 35.8953 32.5489 35.2655 32.3855 34.6738C32.3854 34.6733 32.3852 34.6727 32.385 34.6721L29.7645 24.9889L37.3429 18.717C37.8268 18.3373 38.1822 17.8119 38.3639 17.2163C38.5462 16.6184 38.5454 15.9764 38.3615 15.379C38.1776 14.7815 37.8186 14.2552 37.3307 13.8765C36.844 13.4987 36.254 13.2874 35.6428 13.2757L26.0532 12.8961L22.7311 3.49406C22.7312 3.49433 22.731 3.49379 22.7311 3.49406C22.5289 2.91512 22.1602 2.41045 21.6715 2.05246C21.1822 1.69405 20.5968 1.5 19.9946 1.5C19.3923 1.5 18.8069 1.69405 18.3176 2.05246C17.8289 2.41051 17.4604 2.91448 17.2582 3.49355C17.2582 3.49372 17.2582 3.49338 17.2582 3.49355L13.9464 12.9302L4.3572 13.3098C3.74598 13.3216 3.15597 13.5329 2.66928 13.9107C2.18139 14.2894 1.82241 14.8156 1.6385 15.4131C1.45464 16.0105 1.45382 16.6526 1.63614 17.2504C1.81783 17.8462 2.17348 18.3718 2.65761 18.7515L10.2029 24.9667L7.60376 34.6164C7.60365 34.6168 7.60354 34.6172 7.60343 34.6176C7.44109 35.2109 7.45689 35.8417 7.64896 36.4256C7.84122 37.01 8.2019 37.522 8.68591 37.8897C9.17027 38.2575 9.75394 38.4621 10.3576 38.472C10.9607 38.4818 11.55 38.2967 12.0452 37.9452C12.0456 37.9449 12.0461 37.9446 12.0465 37.9442Z" fill="#F3F2F2"/>
<path d="M22.7311 3.49406L26.0532 12.8961L35.6428 13.2757C36.254 13.2874 36.844 13.4987 37.3307 13.8765C37.8186 14.2552 38.1776 14.7815 38.3615 15.379C38.5454 15.9764 38.5462 16.6184 38.3639 17.2163C38.1822 17.8119 37.8268 18.3373 37.3429 18.717L29.7645 24.9889L32.385 34.6721C32.3852 34.6727 32.3854 34.6733 32.3855 34.6738C32.5489 35.2655 32.5336 35.8953 32.3413 36.4779C32.1488 37.0611 31.7872 37.5715 31.3023 37.9363L31.3005 37.9376C30.8112 38.3022 30.2228 38.5 29.617 38.5C29.0137 38.5 28.4276 38.3038 27.9395 37.9421L19.9946 32.3624L12.0465 37.9442C12.0461 37.9446 12.0456 37.9449 12.0452 37.9452C11.55 38.2967 10.9607 38.4818 10.3576 38.472C9.75394 38.4621 9.17027 38.2575 8.68591 37.8897C8.2019 37.522 7.84122 37.01 7.64896 36.4256C7.45689 35.8417 7.44109 35.2109 7.60343 34.6176C7.60354 34.6172 7.60365 34.6168 7.60376 34.6164L10.2029 24.9667L2.65761 18.7515C2.17348 18.3718 1.81783 17.8462 1.63614 17.2504C1.45382 16.6526 1.45464 16.0105 1.6385 15.4131C1.82241 14.8156 2.18139 14.2894 2.66928 13.9107C3.15597 13.5329 3.74598 13.3216 4.3572 13.3098L13.9464 12.9302L17.2582 3.49355M22.7311 3.49406C22.731 3.49379 22.7312 3.49433 22.7311 3.49406ZM22.7311 3.49406C22.5289 2.91512 22.1602 2.41045 21.6715 2.05246C21.1822 1.69405 20.5968 1.5 19.9946 1.5C19.3923 1.5 18.8069 1.69405 18.3176 2.05246C17.8289 2.41051 17.4604 2.91448 17.2582 3.49355M17.2582 3.49355C17.2582 3.49338 17.2582 3.49372 17.2582 3.49355Z" stroke="#3C3C3C"/>
<mask id="mask1_789_5568" style="mask-type:luminance" maskUnits="userSpaceOnUse" x="2" y="2" width="18" height="36">
<path d="M20 2H2V38H20V2Z" fill="white"/>
</mask>
<g mask="url(#mask1_789_5568)">
<path d="M37.0293 18.3275C37.433 18.0124 37.7324 17.5728 37.8856 17.0704C38.0388 16.5681 38.0381 16.028 37.8836 15.5261C37.7291 15.0241 37.4286 14.5854 37.0241 14.2715C36.6197 13.9576 36.1316 13.7841 35.6283 13.7755L25.8538 13.3886C25.8058 13.3851 25.7597 13.3671 25.7212 13.3369C25.6826 13.3066 25.6533 13.2653 25.6366 13.2179L22.259 3.65879C22.0893 3.17246 21.7811 2.75252 21.376 2.45582C20.971 2.15912 20.4888 2 19.9946 2C19.5004 2 19.0181 2.15912 18.6131 2.45582C18.2081 2.75252 17.8999 3.17246 17.7301 3.65879L14.3634 13.252C14.3467 13.2994 14.3174 13.3407 14.2788 13.371C14.2403 13.4013 14.1942 13.4192 14.1462 13.4227L4.37167 13.8096C3.8684 13.8183 3.38032 13.9917 2.97586 14.3056C2.57141 14.6196 2.27087 15.0583 2.11638 15.5602C1.96189 16.0622 1.96119 16.6022 2.1144 17.1046C2.2676 17.607 2.56701 18.0465 2.97066 18.3616L10.6382 24.6774C10.6766 24.7091 10.7053 24.7518 10.7207 24.8003C10.7361 24.8489 10.7377 24.9011 10.7251 24.9505L8.08598 34.7486C7.94922 35.2476 7.96247 35.7785 8.12392 36.2693C8.28538 36.7601 8.5872 37.1868 8.98832 37.4915C9.38945 37.7961 9.87041 37.9639 10.3658 37.972C10.8611 37.9801 11.3469 37.8281 11.7568 37.5367L19.8588 31.8467C19.8987 31.8179 19.9461 31.8024 19.9946 31.8024C20.0431 31.8024 20.0904 31.8179 20.1303 31.8467L28.2323 37.5367C28.6367 37.8381 29.1207 38 29.617 38C30.1133 38 30.5973 37.8381 31.0017 37.5367C31.403 37.2349 31.7051 36.8102 31.8665 36.3211C32.0279 35.832 32.0407 35.3026 31.9032 34.8055L29.2423 24.9733C29.2282 24.9239 29.229 24.8712 29.2446 24.8223C29.2601 24.7735 29.2897 24.7308 29.3292 24.7002L37.0293 18.3275Z" fill="#FFF066"/>
</g>
</g>
</svg>
