<svg width="40" height="40" viewBox="0 0 40 40" fill="none" xmlns="http://www.w3.org/2000/svg">
<g clip-path="url(#clip0_914_6079)">
<g clip-path="url(#clip1_914_6079)">
<path d="M12.0465 37.9442L19.9946 32.3624L27.9394 37.942C28.4275 38.3038 29.0136 38.5 29.617 38.5C30.2228 38.5 30.8112 38.3022 31.3005 37.9376L31.3023 37.9363C31.7872 37.5715 32.1488 37.0611 32.3413 36.4779C32.5336 35.8952 32.5489 35.2654 32.3855 34.6736C32.3853 34.6731 32.3852 34.6726 32.385 34.6721L29.7645 24.9889L37.3429 18.717C37.8268 18.3373 38.1822 17.8119 38.3639 17.2163C38.5462 16.6184 38.5454 15.9764 38.3615 15.379C38.1776 14.7815 37.8186 14.2552 37.3307 13.8765C36.844 13.4987 36.254 13.2874 35.6427 13.2757L26.0532 12.8961L22.7311 3.49406C22.7309 3.49363 22.7308 3.49319 22.7306 3.49276C22.5284 2.91403 22.1601 2.41035 21.6715 2.05246C21.1822 1.69405 20.5968 1.5 19.9946 1.5C19.3923 1.5 18.8069 1.69405 18.3176 2.05246C17.8289 2.41051 17.4604 2.91448 17.2582 3.49355C17.2582 3.49372 17.2582 3.49338 17.2582 3.49355L13.9464 12.9302L4.35725 13.3098C3.74601 13.3216 3.15598 13.5329 2.66928 13.9107C2.18139 14.2894 1.82241 14.8156 1.6385 15.4131C1.45464 16.0105 1.45382 16.6526 1.63614 17.2504C1.81783 17.8462 2.17346 18.3717 2.65756 18.7515L10.2029 24.9667L7.60376 34.6164C7.60366 34.6168 7.60356 34.6172 7.60346 34.6175C7.44109 35.2108 7.45688 35.8417 7.64896 36.4256C7.84122 37.01 8.2019 37.522 8.68591 37.8897C9.17026 38.2575 9.75393 38.4621 10.3576 38.472C10.961 38.4818 11.5504 38.2966 12.0457 37.9448C12.046 37.9446 12.0463 37.9444 12.0465 37.9442ZM26.1081 13.0513C26.1082 13.0517 26.1079 13.0509 26.1081 13.0513Z" fill="#FFF066"/>
</g>
<g clip-path="url(#clip2_914_6079)">
<path d="M27.9535 37.9442L20.0054 32.3624L12.0606 37.942C11.5725 38.3038 10.9864 38.5 10.383 38.5C9.7772 38.5 9.1888 38.3022 8.6995 37.9376L8.6977 37.9363C8.2128 37.5715 7.8512 37.0611 7.6587 36.4779C7.4664 35.8952 7.4511 35.2654 7.6145 34.6736C7.6147 34.6731 7.6148 34.6726 7.615 34.6721L10.2355 24.9889L2.6571 18.717C2.1732 18.3373 1.8178 17.8119 1.6361 17.2163C1.4538 16.6184 1.4546 15.9764 1.6385 15.379C1.8224 14.7815 2.1814 14.2552 2.6693 13.8765C3.156 13.4987 3.746 13.2874 4.3573 13.2757L13.9468 12.8961L17.2689 3.49406C17.2691 3.49363 17.2692 3.49319 17.2694 3.49276C17.4716 2.91403 17.8399 2.41035 18.3285 2.05246C18.8178 1.69405 19.4032 1.5 20.0054 1.5C20.6077 1.5 21.1931 1.69405 21.6824 2.05246C22.1711 2.41051 22.5396 2.91448 22.7418 3.49355C22.7418 3.49372 22.7418 3.49338 22.7418 3.49355L26.0536 12.9302L35.6427 13.3098C36.254 13.3216 36.844 13.5329 37.3307 13.9107C37.8186 14.2894 38.1776 14.8156 38.3615 15.4131C38.5454 16.0105 38.5462 16.6526 38.3639 17.2504C38.1822 17.8462 37.8265 18.3717 37.3424 18.7515L29.7971 24.9667L32.3962 34.6164C32.3963 34.6168 32.3964 34.6172 32.3965 34.6175C32.5589 35.2108 32.5431 35.8417 32.351 36.4256C32.1588 37.01 31.7981 37.522 31.3141 37.8897C30.8297 38.2575 30.2461 38.4621 29.6424 38.472C29.039 38.4818 28.4496 38.2966 27.9543 37.9448C27.954 37.9446 27.9537 37.9444 27.9535 37.9442ZM13.8919 13.0513C13.8918 13.0517 13.8921 13.0509 13.8919 13.0513Z" fill="#F3F2F2"/>
</g>
<path d="M17.2582 3.49355C17.4604 2.91448 17.8289 2.41051 18.3176 2.05246C18.8069 1.69405 19.3923 1.5 19.9946 1.5C20.5968 1.5 21.1822 1.69405 21.6715 2.05246C22.1601 2.41035 22.5284 2.91403 22.7306 3.49276C22.7308 3.49319 22.7309 3.49363 22.7311 3.49406L26.0532 12.8961L35.6427 13.2757C36.254 13.2874 36.844 13.4987 37.3307 13.8765C37.8186 14.2552 38.1776 14.7815 38.3615 15.379C38.5454 15.9764 38.5462 16.6184 38.3639 17.2163C38.1822 17.8119 37.8268 18.3373 37.3429 18.717L29.7645 24.9889L32.385 34.6721C32.3852 34.6726 32.3853 34.6731 32.3855 34.6736C32.5489 35.2654 32.5336 35.8952 32.3413 36.4779C32.1488 37.0611 31.7872 37.5715 31.3023 37.9363L31.3005 37.9376C30.8112 38.3022 30.2228 38.5 29.617 38.5C29.0136 38.5 28.4275 38.3038 27.9394 37.942L19.9946 32.3624L12.0465 37.9442C12.0463 37.9444 12.046 37.9446 12.0457 37.9448C11.5504 38.2966 10.961 38.4818 10.3576 38.472C9.75393 38.4621 9.17026 38.2575 8.68591 37.8897C8.2019 37.522 7.84122 37.01 7.64896 36.4256C7.45688 35.8417 7.44109 35.2108 7.60346 34.6175C7.60356 34.6172 7.60366 34.6168 7.60376 34.6164L10.2029 24.9667L2.65756 18.7515C2.17346 18.3717 1.81783 17.8462 1.63614 17.2504C1.45382 16.6526 1.45464 16.0105 1.6385 15.4131C1.82241 14.8156 2.18139 14.2894 2.66928 13.9107C3.15598 13.5329 3.74601 13.3216 4.35725 13.3098L13.9464 12.9302L17.2582 3.49355ZM17.2582 3.49355C17.2582 3.49338 17.2582 3.49372 17.2582 3.49355ZM26.1081 13.0513C26.1079 13.0509 26.1082 13.0517 26.1081 13.0513Z" stroke="#3C3C3C" stroke-width="1.5"/>
</g>
<defs>
<clipPath id="clip0_914_6079">
<rect width="40" height="40" fill="white"/>
</clipPath>
<clipPath id="clip1_914_6079">
<rect width="20" height="40" fill="white"/>
</clipPath>
<clipPath id="clip2_914_6079">
<rect width="20" height="40" fill="white" transform="matrix(-1 0 0 1 40 0)"/>
</clipPath>
</defs>
</svg>
