<svg width="40" height="40" viewBox="0 0 40 40" fill="none" xmlns="http://www.w3.org/2000/svg">
<mask id="mask0_789_5560" style="mask-type:luminance" maskUnits="userSpaceOnUse" x="1" y="1" width="38" height="38">
<path d="M39 1H1V39H39V1Z" fill="white"/>
</mask>
<g mask="url(#mask0_789_5560)">
<path d="M12.0465 37.9442L19.9946 32.3624L27.9394 37.942C28.4275 38.3038 29.0136 38.5 29.617 38.5C30.2228 38.5 30.8112 38.3022 31.3005 37.9376L31.3023 37.9363C31.7872 37.5715 32.1488 37.0611 32.3413 36.4779C32.5336 35.8952 32.5489 35.2654 32.3855 34.6736C32.3853 34.6731 32.3852 34.6726 32.385 34.6721L29.7645 24.9889L37.3429 18.717C37.8268 18.3373 38.1822 17.8119 38.3639 17.2163C38.5462 16.6184 38.5454 15.9764 38.3615 15.379C38.1776 14.7815 37.8186 14.2552 37.3307 13.8765C36.844 13.4987 36.254 13.2874 35.6427 13.2757L26.0532 12.8961L22.7311 3.49406C22.7309 3.49363 22.7308 3.49319 22.7306 3.49276C22.5284 2.91403 22.1601 2.41035 21.6715 2.05246C21.1822 1.69405 20.5968 1.5 19.9946 1.5C19.3923 1.5 18.8069 1.69405 18.3176 2.05246C17.8289 2.41051 17.4604 2.91448 17.2582 3.49355C17.2582 3.49372 17.2582 3.49338 17.2582 3.49355L13.9464 12.9302L4.35725 13.3098C3.74601 13.3216 3.15598 13.5329 2.66928 13.9107C2.18139 14.2894 1.82241 14.8156 1.6385 15.4131C1.45464 16.0105 1.45382 16.6526 1.63614 17.2504C1.81783 17.8462 2.17346 18.3717 2.65756 18.7515L10.2029 24.9667L7.60376 34.6164C7.60366 34.6168 7.60356 34.6172 7.60346 34.6175C7.44109 35.2108 7.45688 35.8417 7.64896 36.4256C7.84122 37.01 8.2019 37.522 8.68591 37.8897C9.17026 38.2575 9.75393 38.4621 10.3576 38.472C10.961 38.4818 11.5504 38.2966 12.0457 37.9448C12.046 37.9446 12.0463 37.9444 12.0465 37.9442ZM26.1081 13.0513C26.1082 13.0517 26.1079 13.0509 26.1081 13.0513Z" fill="#FFF066"/>
<path d="M17.2582 3.49355C17.4604 2.91448 17.8289 2.41051 18.3176 2.05246C18.8069 1.69405 19.3923 1.5 19.9946 1.5C20.5968 1.5 21.1822 1.69405 21.6715 2.05246C22.1601 2.41035 22.5284 2.91403 22.7306 3.49276C22.7308 3.49319 22.7309 3.49363 22.7311 3.49406L26.0532 12.8961L35.6427 13.2757C36.254 13.2874 36.844 13.4987 37.3307 13.8765C37.8186 14.2552 38.1776 14.7815 38.3615 15.379C38.5454 15.9764 38.5462 16.6184 38.3639 17.2163C38.1822 17.8119 37.8268 18.3373 37.3429 18.717L29.7645 24.9889L32.385 34.6721C32.3852 34.6726 32.3853 34.6731 32.3855 34.6736C32.5489 35.2654 32.5336 35.8952 32.3413 36.4779C32.1488 37.0611 31.7872 37.5715 31.3023 37.9363L31.3005 37.9376C30.8112 38.3022 30.2228 38.5 29.617 38.5C29.0136 38.5 28.4275 38.3038 27.9394 37.942L19.9946 32.3624L12.0465 37.9442C12.0463 37.9444 12.046 37.9446 12.0457 37.9448C11.5504 38.2966 10.961 38.4818 10.3576 38.472C9.75393 38.4621 9.17026 38.2575 8.68591 37.8897C8.2019 37.522 7.84122 37.01 7.64896 36.4256C7.45688 35.8417 7.44109 35.2108 7.60346 34.6175C7.60356 34.6172 7.60366 34.6168 7.60376 34.6164L10.2029 24.9667L2.65756 18.7515C2.17346 18.3717 1.81783 17.8462 1.63614 17.2504C1.45382 16.6526 1.45464 16.0105 1.6385 15.4131C1.82241 14.8156 2.18139 14.2894 2.66928 13.9107C3.15598 13.5329 3.74601 13.3216 4.35725 13.3098L13.9464 12.9302L17.2582 3.49355ZM17.2582 3.49355C17.2582 3.49338 17.2582 3.49372 17.2582 3.49355ZM26.1081 13.0513C26.1079 13.0509 26.1082 13.0517 26.1081 13.0513Z" stroke="#3C3C3C"/>
</g>
</svg>
