<svg width="25" height="26" viewBox="0 0 25 26" fill="none" xmlns="http://www.w3.org/2000/svg">
<mask id="mask0_818_5691" style="mask-type:alpha" maskUnits="userSpaceOnUse" x="1" y="3" width="22" height="20">
<path fill-rule="evenodd" clip-rule="evenodd" d="M3.14658 19.5095C5.62392 23.211 11.444 23.7992 16.4805 20.754C21.0382 17.9971 23.4567 13.1684 22.5297 9.23633C22.3786 9.49812 22.2209 9.75591 22.057 10.0094C21.1779 11.3782 19.8381 13.079 18.0798 14.1439C17.0732 14.7527 16.0097 14.8745 15.0005 14.7994C14.0278 14.7275 13.0369 14.462 12.1435 14.2226L12.1027 14.2117C11.1627 13.9598 10.3254 13.7387 9.53847 13.6791C8.77132 13.6216 8.12757 13.7274 7.56274 14.069C6.17771 14.9068 5.03674 16.3144 4.22314 17.5787C3.82548 18.1987 3.4659 18.8437 3.14658 19.5095ZM2.18417 17.2894C1.25717 13.3573 3.67563 8.52866 8.23339 5.77174C13.2702 2.72503 19.0895 3.3162 21.5673 7.01621C21.2475 7.68198 20.8874 8.32678 20.4892 8.94667C19.6775 10.2098 18.5361 11.6189 17.1511 12.4567C16.5863 12.7983 15.9425 12.9041 15.1754 12.8466C14.3885 12.787 13.5511 12.5659 12.6112 12.3141L12.5703 12.3031C11.677 12.0638 10.686 11.7982 9.7138 11.7248C8.7046 11.6497 7.64065 11.773 6.63403 12.3819C4.87576 13.4467 3.53594 15.1475 2.65686 16.5163C2.48322 16.7854 2.32595 17.0459 2.18417 17.2894Z" fill="#804F21"/>
</mask>
<g mask="url(#mask0_818_5691)">
<rect x="-2.29492" y="14.9188" width="9.64179" height="18.043" transform="rotate(-45 -2.29492 14.9188)" fill="#804F21"/>
</g>
<mask id="mask1_818_5691" style="mask-type:alpha" maskUnits="userSpaceOnUse" x="1" y="3" width="22" height="20">
<path fill-rule="evenodd" clip-rule="evenodd" d="M3.14658 19.5095C5.62392 23.211 11.444 23.7992 16.4805 20.754C21.0382 17.9971 23.4567 13.1684 22.5297 9.23633C22.3786 9.49812 22.2209 9.75591 22.057 10.0094C21.1779 11.3782 19.8381 13.079 18.0798 14.1439C17.0732 14.7527 16.0097 14.8745 15.0005 14.7994C14.0278 14.7275 13.0369 14.462 12.1435 14.2226L12.1027 14.2117C11.1627 13.9598 10.3254 13.7387 9.53847 13.6791C8.77132 13.6216 8.12757 13.7274 7.56274 14.069C6.17771 14.9068 5.03674 16.3144 4.22314 17.5787C3.82548 18.1987 3.4659 18.8437 3.14658 19.5095ZM2.18417 17.2894C1.25717 13.3573 3.67563 8.52866 8.23339 5.77174C13.2702 2.72503 19.0895 3.3162 21.5673 7.01621C21.2475 7.68198 20.8874 8.32678 20.4892 8.94667C19.6775 10.2098 18.5361 11.6189 17.1511 12.4567C16.5863 12.7983 15.9425 12.9041 15.1754 12.8466C14.3885 12.787 13.5511 12.5659 12.6112 12.3141L12.5703 12.3031C11.677 12.0638 10.686 11.7982 9.7138 11.7248C8.7046 11.6497 7.64065 11.773 6.63403 12.3819C4.87576 13.4467 3.53594 15.1475 2.65686 16.5163C2.48322 16.7854 2.32595 17.0459 2.18417 17.2894Z" fill="#804F21"/>
</mask>
<g mask="url(#mask1_818_5691)">
<rect x="14.0947" y="-1.32697" width="19.1234" height="9.8866" transform="rotate(45 14.0947 -1.32697)" fill="#804F21"/>
</g>
<path d="M3.0033 4.09558L21.8306 22.813" stroke="#804F21" stroke-width="2"/>
</svg>
