<svg width="21" height="25" viewBox="0 0 21 25" fill="none" xmlns="http://www.w3.org/2000/svg">
<path d="M19.8674 12.9767C17.9045 8.20123 10.9153 7.94373 12.6032 1.00294C12.7283 0.48794 12.1406 0.0899859 11.6655 0.35919C7.12697 2.86396 3.86371 7.8852 6.60184 14.4632C6.8269 15.0016 6.15174 15.5049 5.66413 15.1537C3.40111 13.5502 3.16355 11.2444 3.3636 9.59407C3.43861 8.98543 2.58842 8.69282 2.22583 9.19611C1.37564 10.4134 0.512939 12.3797 0.512939 15.341C0.988049 21.8955 6.90191 23.9087 9.0274 24.1662C12.0656 24.529 15.3539 24.0023 17.7169 21.9775C20.3175 19.7185 21.2677 16.1135 19.8674 12.9767ZM8.26473 18.8641C10.0651 18.4544 10.9904 17.2371 11.2404 16.1603C11.653 14.4866 10.0401 12.8479 11.1279 10.2027C11.5405 12.3914 15.2163 13.7609 15.2163 16.1486C15.3164 19.1099 11.8906 21.6497 8.26473 18.8641Z" fill="#CF4E4E"/>
<path d="M19.8674 12.9767C17.9045 8.20123 10.9153 7.94373 12.6032 1.00294C12.7283 0.48794 12.1406 0.0899859 11.6655 0.35919C7.12697 2.86396 3.86371 7.8852 6.60184 14.4632C6.8269 15.0016 6.15174 15.5049 5.66413 15.1537C3.40111 13.5502 3.16355 11.2444 3.3636 9.59407C3.43861 8.98543 2.58842 8.69282 2.22583 9.19611C1.37564 10.4134 0.512939 12.3797 0.512939 15.341C0.988049 21.8955 6.90191 23.9087 9.0274 24.1662C12.0656 24.529 15.3539 24.0023 17.7169 21.9775C20.3175 19.7185 21.2677 16.1135 19.8674 12.9767ZM8.26473 18.8641C10.0651 18.4544 10.9904 17.2371 11.2404 16.1603C11.653 14.4866 10.0401 12.8479 11.1279 10.2027C11.5405 12.3914 15.2163 13.7609 15.2163 16.1486C15.3164 19.1099 11.8906 21.6497 8.26473 18.8641Z" fill="#CF4E4E"/>
</svg>
