<svg width="26" height="25" viewBox="0 0 26 25" fill="none" xmlns="http://www.w3.org/2000/svg">
<mask id="mask0_710_445" style="mask-type:alpha" maskUnits="userSpaceOnUse" x="1" y="1" width="24" height="22">
<path d="M2.1947 11.3591C2.18221 11.221 2.19976 11.082 2.24622 10.9507C2.29269 10.8195 2.36705 10.699 2.46461 10.5968C2.56216 10.4947 2.68077 10.4131 2.81291 10.3573C2.94505 10.3015 3.08783 10.2726 3.2322 10.2726H5.22126C5.49753 10.2726 5.76248 10.3779 5.95783 10.5655C6.15318 10.753 6.26293 11.0074 6.26293 11.2726V20.7726C6.26293 21.0378 6.15318 21.2922 5.95783 21.4797C5.76248 21.6672 5.49753 21.7726 5.22126 21.7726H4.09314C3.83242 21.7726 3.58116 21.6788 3.38898 21.5097C3.1968 21.3406 3.07767 21.1084 3.05512 20.8591L2.1947 11.3591ZM9.38793 10.9601C9.38793 10.5421 9.65876 10.1681 10.052 9.99008C10.9108 9.60108 12.3739 8.81958 13.0338 7.76308C13.8843 6.40108 14.0447 3.94058 14.0707 3.37708C14.0744 3.29808 14.0723 3.21908 14.0832 3.14108C14.2244 2.16458 16.1874 3.30508 16.94 4.51108C17.3489 5.16508 17.401 6.02458 17.3582 6.69608C17.3119 7.41408 17.0926 8.10758 16.8775 8.79658L16.4192 10.2651H22.0739C22.2348 10.2651 22.3936 10.3009 22.5377 10.3696C22.6818 10.4384 22.8073 10.5383 22.9045 10.6615C23.0016 10.7847 23.0677 10.9278 23.0975 11.0797C23.1274 11.2315 23.1202 11.3879 23.0765 11.5366L20.2796 21.0446C20.2179 21.2543 20.0864 21.4389 19.9054 21.5703C19.7243 21.7017 19.5035 21.7727 19.2765 21.7726H10.4296C10.1533 21.7726 9.88838 21.6672 9.69303 21.4797C9.49768 21.2922 9.38793 21.0378 9.38793 20.7726V10.9601Z" fill="white" stroke="white" stroke-width="2" stroke-linecap="round" stroke-linejoin="round"/>
</mask>
<g mask="url(#mask0_710_445)">
<path d="M0.0129395 0.272583H25.0129V24.2726H0.0129395V0.272583Z" fill="#F095FF"/>
</g>
</svg>
