<svg width="35" height="36" viewBox="0 0 35 36" fill="none" xmlns="http://www.w3.org/2000/svg">
<path d="M23.3333 15.6667C23.3333 13.4184 22.5342 11.4953 20.9361 9.89718C19.338 8.29909 17.4148 7.50004 15.1666 7.50004C12.9183 7.50004 10.9951 8.29909 9.39705 9.89718C7.79896 11.4953 6.99992 13.4184 6.99992 15.6667C6.99992 17.915 7.79896 19.8381 9.39705 21.4362C10.9951 23.0343 12.9183 23.8334 15.1666 23.8334C17.4148 23.8334 19.338 23.0343 20.9361 21.4362C22.5342 19.8381 23.3333 17.915 23.3333 15.6667ZM32.6666 30.8334C32.6666 31.4653 32.4357 32.0122 31.9739 32.474C31.5121 32.9358 30.9652 33.1667 30.3333 33.1667C29.677 33.1667 29.1301 32.9358 28.6926 32.474L22.44 26.2396C20.2647 27.7466 17.8402 28.5 15.1666 28.5C13.4287 28.5 11.7668 28.1628 10.1809 27.4883C8.59497 26.8138 7.22778 25.9024 6.07935 24.7539C4.93091 23.6055 4.01945 22.2383 3.34497 20.6524C2.67049 19.0664 2.33325 17.4046 2.33325 15.6667C2.33325 13.9289 2.67049 12.267 3.34497 10.681C4.01945 9.09509 4.93091 7.72791 6.07935 6.57947C7.22778 5.43103 8.59497 4.51957 10.1809 3.84509C11.7668 3.17061 13.4287 2.83337 15.1666 2.83337C16.9044 2.83337 18.5663 3.17061 20.1523 3.84509C21.7382 4.51957 23.1054 5.43103 24.2538 6.57947C25.4023 7.72791 26.3137 9.09509 26.9882 10.681C27.6627 12.267 27.9999 13.9289 27.9999 15.6667C27.9999 18.3403 27.2464 20.7648 25.7395 22.9401L31.9921 29.1927C32.4418 29.6424 32.6666 30.1893 32.6666 30.8334Z" fill="#3C3C3C"/>
</svg>
