<svg width="570" height="570" viewBox="0 0 570 570" fill="none" xmlns="http://www.w3.org/2000/svg">
<circle cx="285" cy="285" r="284.5" fill="white" stroke="black"/>
<mask id="path-2-inside-1_962_324" fill="white">
<path d="M552 285C552 320.063 545.094 354.783 531.676 387.176C518.258 419.57 498.591 449.004 473.798 473.798L285 285H552Z"/>
</mask>
<path d="M552 285C552 320.063 545.094 354.783 531.676 387.176C518.258 419.57 498.591 449.004 473.798 473.798L285 285H552Z" fill="#34D39A" stroke="black" stroke-width="2" mask="url(#path-2-inside-1_962_324)"/>
<mask id="path-3-inside-2_962_324" fill="white">
<path d="M475.273 472.31C450.676 497.297 421.397 517.195 389.109 530.866C356.822 544.538 322.157 551.717 287.095 551.992L285 285L475.273 472.31Z"/>
</mask>
<path d="M475.273 472.31C450.676 497.297 421.397 517.195 389.109 530.866C356.822 544.538 322.157 551.717 287.095 551.992L285 285L475.273 472.31Z" fill="#FCA1CC" stroke="black" stroke-width="2" mask="url(#path-3-inside-2_962_324)"/>
<mask id="path-4-inside-3_962_324" fill="white">
<path d="M288.774 551.973C217.969 552.974 149.665 525.807 98.8903 476.448L285 285L288.774 551.973Z"/>
</mask>
<path d="M288.774 551.973C217.969 552.974 149.665 525.807 98.8903 476.448L285 285L288.774 551.973Z" fill="#FBDD00" stroke="black" stroke-width="2" mask="url(#path-4-inside-3_962_324)"/>
<mask id="path-5-inside-4_962_324" fill="white">
<path d="M100.371 477.876C49.2173 428.909 19.6104 361.628 18.0637 290.832L285 285L100.371 477.876Z"/>
</mask>
<path d="M100.371 477.876C49.2173 428.909 19.6104 361.628 18.0637 290.832L285 285L100.371 477.876Z" fill="white" stroke="black" stroke-width="2" mask="url(#path-5-inside-4_962_324)"/>
<mask id="path-6-inside-5_962_324" fill="white">
<path d="M18.1087 292.619C16.0881 221.835 42.2689 153.148 90.8917 101.667L285 285L18.1087 292.619Z"/>
</mask>
<path d="M18.1087 292.619C16.0881 221.835 42.2689 153.148 90.8917 101.667L285 285L18.1087 292.619Z" fill="#34D39A" stroke="black" stroke-width="2" mask="url(#path-6-inside-5_962_324)"/>
<mask id="path-7-inside-6_962_324" fill="white">
<path d="M89.5931 103.052C137.848 51.227 204.715 20.694 275.482 18.1697L285 285L89.5931 103.052Z"/>
</mask>
<path d="M89.5931 103.052C137.848 51.227 204.715 20.694 275.482 18.1697L285 285L89.5931 103.052Z" fill="#FCA1CC" stroke="black" stroke-width="2" mask="url(#path-7-inside-6_962_324)"/>
<mask id="path-8-inside-7_962_324" fill="white">
<path d="M273.366 18.2536C344.111 15.1681 413.185 40.3123 465.391 88.1547L285 285L273.366 18.2536Z"/>
</mask>
<path d="M273.366 18.2536C344.111 15.1681 413.185 40.3123 465.391 88.1547L285 285L273.366 18.2536Z" fill="#FBDD00" stroke="black" stroke-width="2" mask="url(#path-8-inside-7_962_324)"/>
<mask id="path-9-inside-8_962_324" fill="white">
<path d="M463.857 86.7594C491.89 112.052 514.241 143.003 529.433 177.569C544.625 212.135 552.314 249.531 551.99 287.286L285 285L463.857 86.7594Z"/>
</mask>
<path d="M463.857 86.7594C491.89 112.052 514.241 143.003 529.433 177.569C544.625 212.135 552.314 249.531 551.99 287.286L285 285L463.857 86.7594Z" fill="white" stroke="black" stroke-width="2" mask="url(#path-9-inside-8_962_324)"/>
<circle cx="285" cy="285" r="47.5" fill="white" stroke="black"/>
<mask id="path-11-inside-9_962_324" fill="white">
<path fill-rule="evenodd" clip-rule="evenodd" d="M202.258 186.196C204.126 181.471 199.643 176.708 194.814 178.286L103.483 208.143C99.9115 209.311 98.2799 213.437 100.087 216.732L146.302 300.975C148.746 305.429 155.274 305.02 157.142 300.295L164.212 282.415C165.43 279.334 168.916 277.823 171.998 279.042L272.384 318.735C291.387 326.249 312.883 316.935 320.397 297.932C327.911 278.929 318.597 257.433 299.594 249.919L199.208 210.226C196.126 209.007 194.616 205.522 195.834 202.44L202.258 186.196Z"/>
</mask>
<path fill-rule="evenodd" clip-rule="evenodd" d="M202.258 186.196C204.126 181.471 199.643 176.708 194.814 178.286L103.483 208.143C99.9115 209.311 98.2799 213.437 100.087 216.732L146.302 300.975C148.746 305.429 155.274 305.02 157.142 300.295L164.212 282.415C165.43 279.334 168.916 277.823 171.998 279.042L272.384 318.735C291.387 326.249 312.883 316.935 320.397 297.932C327.911 278.929 318.597 257.433 299.594 249.919L199.208 210.226C196.126 209.007 194.616 205.522 195.834 202.44L202.258 186.196Z" fill="white"/>
<path d="M195.834 202.44L194.905 202.072L195.834 202.44ZM146.302 300.975L145.425 301.456L146.302 300.975ZM202.258 186.196L201.328 185.828L202.258 186.196ZM103.483 208.143L103.794 209.094L103.483 208.143ZM100.087 216.732L99.2106 217.213L100.087 216.732ZM103.794 209.094L195.124 179.237L194.503 177.336L103.173 207.193L103.794 209.094ZM147.179 300.494L100.964 216.251L99.2106 217.213L145.425 301.456L147.179 300.494ZM163.282 282.047L156.212 299.928L158.072 300.663L165.142 282.783L163.282 282.047ZM272.752 317.805L172.366 278.112L171.63 279.972L272.017 319.665L272.752 317.805ZM319.467 297.564C312.156 316.054 291.241 325.116 272.752 317.805L272.017 319.665C291.533 327.382 313.61 317.816 321.327 298.3L319.467 297.564ZM299.227 250.849C317.716 258.16 326.778 279.075 319.467 297.564L321.327 298.3C329.044 278.783 319.479 256.706 299.962 248.989L299.227 250.849ZM198.84 211.156L299.227 250.849L299.962 248.989L199.576 209.296L198.84 211.156ZM201.328 185.828L194.905 202.072L196.764 202.808L203.188 186.563L201.328 185.828ZM165.142 282.783C166.157 280.215 169.062 278.956 171.63 279.972L172.366 278.112C168.77 276.69 164.704 278.452 163.282 282.047L165.142 282.783ZM199.576 209.296C197.008 208.281 195.749 205.376 196.764 202.808L194.905 202.072C193.483 205.668 195.245 209.734 198.84 211.156L199.576 209.296ZM145.425 301.456C148.276 306.653 155.893 306.175 158.072 300.663L156.212 299.928C154.655 303.865 149.215 304.206 147.179 300.494L145.425 301.456ZM195.124 179.237C199.149 177.921 202.884 181.891 201.328 185.828L203.188 186.563C205.367 181.051 200.137 175.494 194.503 177.336L195.124 179.237ZM103.173 207.193C99.0055 208.555 97.102 213.369 99.2106 217.213L100.964 216.251C99.4579 213.506 100.818 210.067 103.794 209.094L103.173 207.193Z" fill="black" mask="url(#path-11-inside-9_962_324)"/>
<mask id="path-13-inside-10_962_324" fill="white">
<path fill-rule="evenodd" clip-rule="evenodd" d="M286.892 89.8168C281.239 82.1515 270.442 80.5207 262.776 86.1744L259.718 88.43L257.462 85.3718C251.809 77.7065 241.012 76.0757 233.346 81.7293C225.681 87.383 224.05 98.1802 229.704 105.846L231.959 108.904L229.372 110.812C221.706 116.466 220.076 127.263 225.729 134.929C231.383 142.594 242.18 144.225 249.845 138.571L252.433 136.662L254.342 139.25C259.995 146.915 270.793 148.546 278.458 142.893C286.123 137.239 287.754 126.442 282.1 118.776L280.192 116.189L283.25 113.933C290.915 108.279 292.546 97.4822 286.892 89.8168Z"/>
</mask>
<path fill-rule="evenodd" clip-rule="evenodd" d="M286.892 89.8168C281.239 82.1515 270.442 80.5207 262.776 86.1744L259.718 88.43L257.462 85.3718C251.809 77.7065 241.012 76.0757 233.346 81.7293C225.681 87.383 224.05 98.1802 229.704 105.846L231.959 108.904L229.372 110.812C221.706 116.466 220.076 127.263 225.729 134.929C231.383 142.594 242.18 144.225 249.845 138.571L252.433 136.662L254.342 139.25C259.995 146.915 270.793 148.546 278.458 142.893C286.123 137.239 287.754 126.442 282.1 118.776L280.192 116.189L283.25 113.933C290.915 108.279 292.546 97.4822 286.892 89.8168Z" fill="#3C3C3C"/>
<path d="M262.776 86.1744L263.37 86.9792L262.776 86.1744ZM259.718 88.43L258.913 89.0235L259.507 89.8283L260.312 89.2347L259.718 88.43ZM257.462 85.3718L256.658 85.9654L256.658 85.9654L257.462 85.3718ZM231.959 108.904L232.553 109.709L233.358 109.115L232.764 108.31L231.959 108.904ZM249.845 138.571L250.439 139.376L249.845 138.571ZM252.433 136.662L253.238 136.069L252.644 135.264L251.84 135.858L252.433 136.662ZM254.342 139.25L253.537 139.844L254.342 139.25ZM280.192 116.189L279.598 115.384L278.793 115.977L279.387 116.782L280.192 116.189ZM263.37 86.9792C270.591 81.6533 280.762 83.1895 286.088 90.4104L287.697 89.2233C281.716 81.1134 270.292 79.3881 262.183 85.3696L263.37 86.9792ZM260.312 89.2347L263.37 86.9792L262.183 85.3696L259.124 87.6252L260.312 89.2347ZM256.658 85.9654L258.913 89.0235L260.523 87.8364L258.267 84.7782L256.658 85.9654ZM233.94 82.5341C241.161 77.2083 251.332 78.7445 256.658 85.9654L258.267 84.7782C252.286 76.6684 240.862 74.9431 232.753 80.9246L233.94 82.5341ZM230.509 105.252C225.183 98.0311 226.719 87.86 233.94 82.5341L232.753 80.9246C224.643 86.9061 222.918 98.3293 228.899 106.439L230.509 105.252ZM232.764 108.31L230.509 105.252L228.899 106.439L231.155 109.497L232.764 108.31ZM229.965 111.617L232.553 109.709L231.366 108.099L228.778 110.008L229.965 111.617ZM226.534 134.335C221.208 127.114 222.744 116.943 229.965 111.617L228.778 110.008C220.668 115.989 218.943 127.412 224.924 135.522L226.534 134.335ZM249.252 137.766C242.031 143.092 231.86 141.556 226.534 134.335L224.924 135.522C230.906 143.632 242.329 145.357 250.439 139.376L249.252 137.766ZM251.84 135.858L249.252 137.766L250.439 139.376L253.027 137.467L251.84 135.858ZM255.147 138.657L253.238 136.069L251.628 137.256L253.537 139.844L255.147 138.657ZM277.864 142.088C270.643 147.414 260.472 145.877 255.147 138.657L253.537 139.844C259.518 147.953 270.942 149.679 279.052 143.697L277.864 142.088ZM281.296 119.37C286.621 126.591 285.085 136.762 277.864 142.088L279.052 143.697C287.161 137.716 288.887 126.293 282.905 118.183L281.296 119.37ZM279.387 116.782L281.296 119.37L282.905 118.183L280.997 115.595L279.387 116.782ZM282.656 113.128L279.598 115.384L280.785 116.993L283.844 114.738L282.656 113.128ZM286.088 90.4104C291.414 97.6313 289.877 107.802 282.656 113.128L283.844 114.738C291.953 108.756 293.679 97.3331 287.697 89.2233L286.088 90.4104Z" fill="black" mask="url(#path-13-inside-10_962_324)"/>
<mask id="path-15-inside-11_962_324" fill="white">
<path fill-rule="evenodd" clip-rule="evenodd" d="M393.571 479.903C390.836 476.196 385.615 475.407 381.908 478.142L380.429 479.232L379.338 477.753C376.604 474.046 371.383 473.258 367.676 475.992C363.969 478.726 363.18 483.948 365.914 487.655L367.005 489.133L365.753 490.056C362.046 492.791 361.258 498.012 363.992 501.719C366.726 505.426 371.948 506.215 375.655 503.481L376.906 502.558L377.829 503.809C380.563 507.516 385.785 508.305 389.492 505.571C393.199 502.836 393.987 497.615 391.253 493.908L390.33 492.656L391.809 491.566C395.516 488.832 396.305 483.61 393.571 479.903Z"/>
</mask>
<path fill-rule="evenodd" clip-rule="evenodd" d="M393.571 479.903C390.836 476.196 385.615 475.407 381.908 478.142L380.429 479.232L379.338 477.753C376.604 474.046 371.383 473.258 367.676 475.992C363.969 478.726 363.18 483.948 365.914 487.655L367.005 489.133L365.753 490.056C362.046 492.791 361.258 498.012 363.992 501.719C366.726 505.426 371.948 506.215 375.655 503.481L376.906 502.558L377.829 503.809C380.563 507.516 385.785 508.305 389.492 505.571C393.199 502.836 393.987 497.615 391.253 493.908L390.33 492.656L391.809 491.566C395.516 488.832 396.305 483.61 393.571 479.903Z" fill="#3C3C3C"/>
<path d="M380.429 479.232L379.624 479.826L380.218 480.631L381.023 480.037L380.429 479.232ZM379.338 477.753L378.533 478.347L378.533 478.347L379.338 477.753ZM367.676 475.992L368.269 476.797L367.676 475.992ZM365.914 487.655L366.719 487.061L365.914 487.655ZM367.005 489.133L367.598 489.938L368.403 489.345L367.81 488.54L367.005 489.133ZM376.906 502.558L377.711 501.964L377.117 501.159L376.312 501.753L376.906 502.558ZM377.829 503.809L377.024 504.403L377.829 503.809ZM391.253 493.908L390.448 494.501L391.253 493.908ZM390.33 492.656L389.737 491.852L388.932 492.445L389.525 493.25L390.33 492.656ZM382.501 478.946C385.764 476.54 390.359 477.234 392.766 480.497L394.375 479.309C391.313 475.158 385.466 474.275 381.314 477.337L382.501 478.946ZM381.023 480.037L382.501 478.946L381.314 477.337L379.835 478.428L381.023 480.037ZM378.533 478.347L379.624 479.826L381.234 478.639L380.143 477.16L378.533 478.347ZM368.269 476.797C371.532 474.39 376.127 475.084 378.533 478.347L380.143 477.16C377.081 473.008 371.233 472.125 367.082 475.187L368.269 476.797ZM366.719 487.061C364.313 483.798 365.007 479.203 368.269 476.797L367.082 475.187C362.931 478.249 362.047 484.097 365.109 488.248L366.719 487.061ZM367.81 488.54L366.719 487.061L365.109 488.248L366.2 489.727L367.81 488.54ZM366.347 490.861L367.598 489.938L366.411 488.329L365.16 489.252L366.347 490.861ZM364.797 501.126C362.39 497.863 363.084 493.268 366.347 490.861L365.16 489.252C361.008 492.314 360.125 498.161 363.187 502.313L364.797 501.126ZM375.061 502.676C371.798 505.082 367.203 504.388 364.797 501.126L363.187 502.313C366.249 506.464 372.097 507.347 376.248 504.285L375.061 502.676ZM376.312 501.753L375.061 502.676L376.248 504.285L377.5 503.362L376.312 501.753ZM378.634 503.215L377.711 501.964L376.101 503.151L377.024 504.403L378.634 503.215ZM388.898 504.766C385.636 507.172 381.04 506.478 378.634 503.215L377.024 504.403C380.086 508.554 385.934 509.437 390.085 506.375L388.898 504.766ZM390.448 494.501C392.855 497.764 392.161 502.359 388.898 504.766L390.085 506.375C394.237 503.313 395.12 497.466 392.058 493.314L390.448 494.501ZM389.525 493.25L390.448 494.501L392.058 493.314L391.135 492.063L389.525 493.25ZM391.215 490.761L389.737 491.852L390.924 493.461L392.403 492.37L391.215 490.761ZM392.766 480.497C395.172 483.759 394.478 488.355 391.215 490.761L392.403 492.37C396.554 489.309 397.437 483.461 394.375 479.309L392.766 480.497Z" fill="black" mask="url(#path-15-inside-11_962_324)"/>
<mask id="path-17-inside-12_962_324" fill="white">
<path fill-rule="evenodd" clip-rule="evenodd" d="M241.971 448.901C233.829 445.63 229.88 436.378 233.151 428.235C236.422 420.093 245.675 416.144 253.817 419.415L257.066 420.72L258.17 417.971C261.441 409.829 270.693 405.88 278.836 409.151C286.978 412.422 290.927 421.675 287.656 429.817L286.552 432.566L289.301 433.67C297.443 436.941 301.392 446.194 298.121 454.336C294.85 462.479 285.597 466.428 277.455 463.157L274.706 462.052L273.401 465.301C270.13 473.443 260.877 477.392 252.735 474.121C244.592 470.85 240.643 461.597 243.915 453.455L245.22 450.206L241.971 448.901ZM278.63 446.506C281.458 439.468 278.044 431.47 271.006 428.642C263.967 425.814 255.969 429.228 253.142 436.266C250.314 443.305 253.728 451.303 260.766 454.13C267.805 456.958 275.803 453.544 278.63 446.506Z"/>
</mask>
<path fill-rule="evenodd" clip-rule="evenodd" d="M241.971 448.901C233.829 445.63 229.88 436.378 233.151 428.235C236.422 420.093 245.675 416.144 253.817 419.415L257.066 420.72L258.17 417.971C261.441 409.829 270.693 405.88 278.836 409.151C286.978 412.422 290.927 421.675 287.656 429.817L286.552 432.566L289.301 433.67C297.443 436.941 301.392 446.194 298.121 454.336C294.85 462.479 285.597 466.428 277.455 463.157L274.706 462.052L273.401 465.301C270.13 473.443 260.877 477.392 252.735 474.121C244.592 470.85 240.643 461.597 243.915 453.455L245.22 450.206L241.971 448.901ZM278.63 446.506C281.458 439.468 278.044 431.47 271.006 428.642C263.967 425.814 255.969 429.228 253.142 436.266C250.314 443.305 253.728 451.303 260.766 454.13C267.805 456.958 275.803 453.544 278.63 446.506Z" fill="white"/>
<path d="M253.817 419.415L254.19 418.487L253.817 419.415ZM257.066 420.72L256.693 421.648L257.621 422.021L257.993 421.093L257.066 420.72ZM286.552 432.566L285.624 432.193L285.251 433.121L286.179 433.494L286.552 432.566ZM277.455 463.157L277.082 464.084L277.455 463.157ZM274.706 462.052L275.079 461.124L274.151 460.752L273.778 461.679L274.706 462.052ZM252.735 474.121L252.362 475.049L252.735 474.121ZM245.22 450.206L246.148 450.579L246.52 449.651L245.592 449.278L245.22 450.206ZM232.223 427.862C228.746 436.517 232.944 446.352 241.598 449.829L242.344 447.973C234.714 444.908 231.014 436.238 234.079 428.608L232.223 427.862ZM254.19 418.487C245.535 415.01 235.7 419.207 232.223 427.862L234.079 428.608C237.144 420.978 245.814 417.278 253.444 420.343L254.19 418.487ZM257.438 419.792L254.19 418.487L253.444 420.343L256.693 421.648L257.438 419.792ZM257.242 417.598L256.138 420.347L257.993 421.093L259.098 418.344L257.242 417.598ZM279.209 408.223C270.554 404.746 260.719 408.943 257.242 417.598L259.098 418.344C262.163 410.714 270.833 407.014 278.463 410.079L279.209 408.223ZM288.584 430.19C292.061 421.535 287.864 411.7 279.209 408.223L278.463 410.079C286.093 413.144 289.794 421.814 286.728 429.444L288.584 430.19ZM287.48 432.939L288.584 430.19L286.728 429.444L285.624 432.193L287.48 432.939ZM289.674 432.742L286.925 431.638L286.179 433.494L288.928 434.598L289.674 432.742ZM299.049 454.709C302.526 446.054 298.329 436.219 289.674 432.742L288.928 434.598C296.558 437.663 300.259 446.333 297.193 453.963L299.049 454.709ZM277.082 464.084C285.737 467.562 295.572 463.364 299.049 454.709L297.193 453.963C294.128 461.593 285.458 465.294 277.828 462.229L277.082 464.084ZM274.333 462.98L277.082 464.084L277.828 462.229L275.079 461.124L274.333 462.98ZM274.329 465.674L275.634 462.425L273.778 461.679L272.473 464.928L274.329 465.674ZM252.362 475.049C261.017 478.526 270.852 474.329 274.329 465.674L272.473 464.928C269.408 472.558 260.738 476.258 253.108 473.193L252.362 475.049ZM242.987 453.082C239.51 461.737 243.707 471.572 252.362 475.049L253.108 473.193C245.478 470.128 241.777 461.458 244.843 453.828L242.987 453.082ZM244.292 449.834L242.987 453.082L244.843 453.828L246.148 450.579L244.292 449.834ZM241.598 449.829L244.847 451.134L245.592 449.278L242.344 447.973L241.598 449.829ZM270.633 429.57C277.159 432.192 280.324 439.607 277.702 446.133L279.558 446.879C282.591 439.328 278.929 430.748 271.379 427.714L270.633 429.57ZM254.07 436.639C256.691 430.113 264.107 426.948 270.633 429.57L271.379 427.714C263.828 424.681 255.247 428.343 252.214 435.894L254.07 436.639ZM261.139 453.202C254.613 450.581 251.448 443.165 254.07 436.639L252.214 435.894C249.18 443.444 252.842 452.025 260.393 455.058L261.139 453.202ZM277.702 446.133C275.08 452.659 267.665 455.824 261.139 453.202L260.393 455.058C267.944 458.092 276.525 454.43 279.558 446.879L277.702 446.133Z" fill="black" mask="url(#path-17-inside-12_962_324)"/>
</svg>
