<svg width="1110" height="625" viewBox="0 0 1110 625" fill="none" xmlns="http://www.w3.org/2000/svg">
<g clip-path="url(#clip0_770_5526)">
<path d="M723.947 445.932L758.479 420.034L743.533 460.497L786.732 459.844L750.829 483.78L786.184 508.605L743.023 506.872L757.041 547.683L723.097 520.954L710.427 562.187L698.686 520.663L664.159 546.547L679.09 506.079L635.905 506.736L671.809 482.8L636.449 457.991L679.615 459.708L665.597 418.898L699.526 445.621L712.21 404.394L723.947 445.932Z" fill="white" stroke="black" stroke-miterlimit="10"/>
<path d="M13.1573 127.576C445.477 -32.9374 784.356 165.896 867.746 309.052L858.601 308.098C682.895 99.1413 222.549 86.8951 49.1016 158.618L13.1573 127.576Z" fill="#AED8FF" stroke="black"/>
<path d="M15.0644 109.285C447.384 -51.2284 786.173 148.476 869.563 291.632L860.853 290.723C685.147 81.7666 224.456 68.604 51.0088 140.327L15.0644 109.285Z" fill="#D1A7F2" stroke="black"/>
<path d="M11.2378 86.8744C443.558 -73.6393 778.786 131.246 862.176 274.401L855.012 270.744C679.305 61.7872 220.63 46.1932 47.1822 117.917L11.2378 86.8744Z" fill="#FFDF8D" stroke="black"/>
<path d="M1.76664 60.2733C434.086 -100.24 769.315 104.645 852.705 247.8L843.439 249.076C667.733 40.1197 211.159 19.5922 37.711 91.3155L1.76664 60.2733Z" fill="#FED1D1" stroke="black"/>
<rect x="805.891" y="257.463" width="45.6838" height="193.071" transform="rotate(-36.7377 805.891 257.463)" fill="#D9D9D9" stroke="black"/>
<rect x="758.453" y="374.268" width="267.098" height="28.3441" transform="rotate(-29.1605 758.453 374.268)" fill="white" stroke="black"/>
<path d="M942.194 624.958L783.858 393.695L995.473 275.619L1109.71 531.49L942.194 624.958Z" fill="#F37D6E" stroke="black"/>
<path d="M591.935 150.777L592.931 151.326C596.536 153.312 601.009 152.75 604.012 149.935L604.841 149.157C610.848 143.526 620.552 148.871 619.003 156.958L618.789 158.075C618.015 162.117 619.931 166.198 623.536 168.183L624.532 168.732C631.745 172.705 629.66 183.586 621.49 184.611L620.362 184.753C616.278 185.265 612.989 188.349 612.214 192.391L612 193.508C610.451 201.595 599.458 202.975 595.958 195.522L595.475 194.492C593.726 190.767 589.776 188.592 585.693 189.104L584.564 189.246C576.394 190.272 571.685 180.243 577.692 174.611L578.522 173.834C581.524 171.019 582.373 166.591 580.623 162.865L580.14 161.836C576.64 154.383 584.722 146.805 591.935 150.777Z" fill="#FBDD00" stroke="black"/>
<path d="M828.118 143.411C830.001 141.646 830.533 138.869 829.436 136.533C827.395 132.186 832.108 127.767 836.315 130.084C838.575 131.329 841.38 130.977 843.263 129.212C846.766 125.927 852.426 129.045 851.522 133.761C851.036 136.295 852.238 138.855 854.499 140.1C858.705 142.416 857.489 148.762 852.724 149.36C850.164 149.681 848.101 151.615 847.616 154.15C846.712 158.866 840.301 159.671 838.26 155.324C837.163 152.988 834.687 151.624 832.126 151.946C827.362 152.544 824.615 146.695 828.118 143.411Z" fill="#FBDD00" stroke="black"/>
<path d="M756.118 317.411C758.001 315.646 758.533 312.869 757.436 310.533C755.395 306.186 760.108 301.767 764.315 304.084C766.575 305.329 769.38 304.977 771.263 303.212C774.766 299.927 780.426 303.045 779.522 307.761C779.036 310.295 780.238 312.855 782.499 314.1C786.705 316.416 785.489 322.762 780.724 323.36C778.164 323.681 776.101 325.615 775.616 328.15C774.712 332.866 768.301 333.671 766.26 329.324C765.163 326.988 762.687 325.624 760.126 325.946C755.362 326.544 752.615 320.695 756.118 317.411Z" fill="#FBDD00" stroke="black"/>
<path d="M86.1185 33.4109C88.0011 31.6457 88.5331 28.869 87.4361 26.533C85.395 22.1864 90.1084 17.7673 94.3146 20.084C96.5751 21.3291 99.3803 20.977 101.263 19.2118C104.766 15.9274 110.426 19.0446 109.522 23.7608C109.036 26.2954 110.238 28.8545 112.499 30.0996C116.705 32.4163 115.489 38.762 110.724 39.36C108.164 39.6814 106.101 41.6151 105.616 44.1498C104.712 48.866 98.3014 49.6707 96.2603 45.3241C95.1633 42.9881 92.6869 41.6241 90.1263 41.9455C85.3617 42.5436 82.6153 36.6953 86.1185 33.4109Z" fill="white" stroke="black"/>
<path d="M987.464 510.594L920.135 489.797L920.242 489.45L919.764 489.302L905.886 485.015C887.294 479.272 876.877 459.545 882.62 440.952C888.363 422.36 908.091 411.943 926.683 417.686L940.561 421.973L941.039 422.121L941.187 421.643L945.365 408.116C951.108 389.524 970.836 379.107 989.428 384.85C1008.02 390.593 1018.44 410.321 1012.69 428.913L987.464 510.594Z" fill="white" stroke="black"/>
</g>
<defs>
<clipPath id="clip0_770_5526">
<rect width="1110" height="625" fill="white"/>
</clipPath>
</defs>
</svg>
