<svg width="526" height="425" viewBox="0 0 526 425" fill="none" xmlns="http://www.w3.org/2000/svg">
<g clip-path="url(#clip0_936_1185)">
<rect width="526" height="425" fill="#CCCCCC"/>
<circle cx="107" cy="351" r="26" fill="white"/>
<circle cx="166" cy="397" r="6" fill="white"/>
<path d="M723.473 51.0721C420.438 -61.44 182.9 77.9325 124.448 178.277L130.859 177.609C254.02 31.1406 576.699 22.5567 698.277 72.8311L723.473 51.0721Z" fill="#AED8FF" stroke="black"/>
<path d="M722.136 38.251C419.101 -74.2611 181.627 65.7219 123.175 166.067L129.28 165.43C252.442 18.9619 575.362 9.73554 696.941 60.01L722.136 38.251Z" fill="#D1A7F2" stroke="black"/>
<path d="M724.818 22.5421C421.783 -89.9699 186.805 53.6441 128.353 153.989L133.375 151.426C256.536 4.9573 578.045 -5.97332 699.623 44.3012L724.818 22.5421Z" fill="#FFDF8D" stroke="black"/>
<path d="M731.457 3.89614C428.422 -108.616 193.444 34.9981 134.992 135.343L141.487 136.238C264.648 -10.2305 584.684 -24.6193 706.262 25.6552L731.457 3.89614Z" fill="#FED1D1" stroke="black"/>
<rect x="-0.699767" y="0.101615" width="31.723" height="135.034" transform="matrix(-0.801383 -0.598152 -0.598152 0.801383 167.096 141.647)" fill="#D9D9D9" stroke="black"/>
<rect x="-0.680258" y="0.193" width="186.923" height="19.5687" transform="matrix(-0.873258 -0.487257 -0.487257 0.873258 200.354 223.548)" fill="white" stroke="black"/>
<path d="M72.2174 399.515L183.034 237.659L34.9882 155.053L-44.9613 334.132L72.2174 399.515Z" fill="#F37D6E" stroke="black"/>
<path d="M327.189 83.7094C324.971 81.6299 324.344 78.3586 325.637 75.6065C328.115 70.3296 322.392 64.9645 317.286 67.7771C314.623 69.244 311.318 68.8292 309.1 66.7496C304.847 62.7622 297.976 66.5465 299.073 72.2723C299.645 75.2584 298.229 78.2732 295.566 79.7401C290.46 82.5527 291.936 90.2566 297.72 90.9827C300.737 91.3614 303.167 93.6395 303.739 96.6256C304.836 102.351 312.619 103.328 315.097 98.0513C316.389 95.2992 319.307 93.6923 322.323 94.0709C328.108 94.797 331.442 87.6969 327.189 83.7094Z" fill="#FBDD00" stroke="black"/>
<path d="M152.123 62.2805C150.756 60.9989 150.37 58.9829 151.167 57.2868C152.536 54.3712 149.374 51.4069 146.553 52.9609C144.911 53.8649 142.875 53.6093 141.508 52.3277C139.158 50.1245 135.362 52.2155 135.968 55.379C136.32 57.2193 135.448 59.0773 133.806 59.9813C130.985 61.5354 131.801 65.7919 134.997 66.1931C136.856 66.4265 138.353 67.8304 138.706 69.6707C139.312 72.8343 143.612 73.3741 144.981 70.4584C145.778 68.7624 147.576 67.7721 149.435 68.0054C152.631 68.4066 154.473 64.4836 152.123 62.2805Z" fill="#FBDD00" stroke="black"/>
<path d="M202.592 184.246C201.225 182.964 200.838 180.948 201.635 179.252C203.004 176.337 199.842 173.372 197.021 174.926C195.38 175.83 193.343 175.575 191.976 174.293C189.626 172.09 185.83 174.181 186.436 177.344C186.789 179.185 185.916 181.043 184.275 181.947C181.453 183.501 182.269 187.757 185.465 188.158C187.324 188.392 188.822 189.796 189.174 191.636C189.78 194.8 194.08 195.339 195.45 192.424C196.246 190.728 198.044 189.737 199.903 189.971C203.099 190.372 204.941 186.449 202.592 184.246Z" fill="#FBDD00" stroke="black"/>
<path d="M40.6309 319.362L87.5395 304.872L87.4643 304.629L87.942 304.481L97.6702 301.476C110.624 297.475 117.881 283.731 113.88 270.777C109.879 257.824 96.1343 250.567 83.1808 254.568L73.4527 257.573L72.9749 257.72L72.8274 257.242L69.8987 247.761C65.8975 234.807 52.1531 227.55 39.1997 231.551C26.2462 235.552 18.9889 249.297 22.9901 262.25L40.6309 319.362Z" fill="white" stroke="black"/>
<path d="M434.541 235.695L375.055 163.534L385.866 256.362L295.24 232.933L358.617 301.662L271.501 335.881L363.263 354.268L312.912 433.041L398.029 394.092L403.654 487.378L449.576 405.942L509.059 478.07L498.283 385.238L588.874 408.671L525.497 339.941L612.616 305.757L520.852 287.335L571.203 208.563L486.12 247.509L480.46 154.226L434.541 235.695Z" fill="white"/>
<path d="M308.1 165.2H325.9V190.7H312.8V193.2H324.1V207.2H301.7L296.9 201.9V187.7H306.2V185.5H285.9V187.7H294.8V201.9L290.2 207.2H267.8V193.2H279.3V191H266.2V165.2H282.3V161.3H308.1V165.2ZM261.4 162.8V168.2H264V192H261.4V198.7H264V224.6L261.4 225.7V255H233.5V246.4L237.5 241.6V235.2H232.8V209.9L237.5 207.9V192H233.3V168.2H237.5V162.8H261.4ZM304.9 236.6L311.8 231.7H325.4V255H265.3V240.1L282.4 227.7V226.6H266.2V209.6H322.7V220.4L301.6 235.9V236.6H304.9ZM416.8 217.4L396.3 226.2H387.1L367 219.9H364.7L351.3 225.3L341.4 203.7L361.9 194.9H371.1L391.2 201.2H393.5L406.7 195.8L416.8 217.4Z" fill="#232323"/>
<path d="M261.352 278.448H275.08V296.256H259.048V292.848L262.216 290.736V289.536H257.944L256.216 296.256H244.792V290.304L248.2 276.816H261.352V278.448ZM230.92 290.208V277.92H243.64V290.208H230.92ZM230.92 304.032V291.456H243.64V304.032H230.92ZM274.552 311.136L272.152 313.152L274.888 315.264V321.936H263.992L260.056 319.008L256.6 321.936H244.936V315.264L247.624 313.296L245.272 311.568V306.432H257.032L259.72 308.256L261.064 307.104V305.376H244.984V297.36H274.552V311.136ZM230.824 310.032L233.416 305.28H243.64V321.936H230.824V310.032ZM322.744 289.248H299.656L298.696 290.976H322.36V321.936H304.168V318.72L306.184 316.656H295.72V321.936H280.84V307.2H278.728V295.2L282.28 289.248H279.64V278.784H286.36V276.768H301.96V278.784H322.744V289.248ZM306.952 302.688V300.912H295.72V302.688H306.952ZM295.72 308.592V310.416H306.952V308.592H295.72ZM361.768 297.552V300L362.104 300.528L363.976 298.8H371.128V307.584L368.632 309.888L371.224 313.584V322.08H359.704L357.304 318.816L354.376 321.696H345.016V312.672L349.576 308.208L347.896 305.904V277.344H361.768V286.992H371.224V297.552H361.768ZM346.408 305.76L343.672 306.72V321.84H326.824V317.712L329.752 315.408V311.472L328.6 311.856H326.584V299.712L329.752 298.656V291.6H326.68V280.176H329.752V277.584H343.672V280.176H346.216V291.6H343.672V294.096L344.632 293.76H346.408V305.76ZM370.36 278.208V285.792H363.064V278.208H370.36ZM407.656 277.632H418.936V321.792H400.408V316.608L407.656 312V277.632ZM374.92 287.856V277.68H399.352V287.856H387.016V292.704H388.312V289.104H399.016V301.152H392.92V302.688H399.112V311.376H392.92V312.864H399.208V321.84H374.824V312.864H380.632V311.376H375.256V302.688H380.632V301.152H375.256V291.216L377.704 287.856H374.92ZM406.456 279.888V311.376H400.456V279.888H406.456ZM239.944 346.208L238.456 348.416H230.728V339.344L234.52 333.344H244.168V334.544H252.232V343.568H249.304L251.752 346.352V348.416H241.864L239.944 346.208ZM262.648 346.112L261.112 348.416H253.192V339.44L256.984 333.344H266.824V334.544H275.176V343.568H272.296L274.696 346.304V348.416H264.664L262.648 346.112ZM275.464 350.912V360.848H273.496V377.84H251.944V373.376L259.432 370.16V360.848H247.72V350.912H259.432V349.376H273.496V350.912H275.464ZM230.44 356.528L235.432 349.52H246.328V377.792H233.08V367.52H230.44V356.528ZM258.184 362.144V369.68H250.072L247.864 366.8V362.144H258.184ZM307.816 332.816L323.752 339.872V352.832H320.872V355.424H281.272V352.832H278.44V339.872L293.608 332.816H307.816ZM302.248 344.288H299.848L295.24 346.112H307L302.248 344.288ZM279.736 377.936V357.104H322.36V377.936H279.736ZM294.184 366.272V368.528H307.576V366.272H294.184ZM341.8 333.248V337.328H347.992V377.6H326.824V338.864L331 333.248H341.8ZM363.256 335.552H371.08V377.792H351.4V371.408L358.504 366.608V348.416H349.48V338.048L352.984 333.248H363.256V335.552ZM338.872 348.8H336.328V353.984H338.872V348.8ZM357.064 366.464H352.168L349.672 363.2V350H357.064V366.464ZM336.328 367.952H338.872V362.576H336.328V367.952ZM381.88 333.2H389.992L397.432 337.136V346.112H392.536L390.76 344.96V347.072H397.048V365.984H385.576V368.912H387.304V367.136H397.288V377.888H390.424L388.312 375.68L386.344 377.936H375.208V347.072H381.352V344.816L379.384 346.112H374.44V337.136L381.88 333.2ZM419.224 354.032L416.872 358.544H414.184L419.176 367.04V377.84H411.352L408.856 371.12H408.424L405.88 377.84H398.488V367.04L403.576 356.912V354.416L401.176 359.024H398.536V339.152L402.136 333.392H410.728V335.552H419.224V354.032ZM387.016 342.8H384.664L382.936 343.856H388.84L387.016 342.8ZM406.792 348.272H410.344V346.496H407.704L406.792 348.272ZM388.84 354.704V353.552H384.184V354.704H388.84ZM384.184 359.984H388.84V358.736H384.184V359.984ZM437.56 333.632V349.088H442.744V358.448H439.624L442.744 362.24V371.936H439.528V377.792H427.384V372.128L425.272 374.768H422.872V361.904L425.944 358.448H422.776V349.088H428.536V333.632H437.56ZM467.56 358.832V369.68L466.216 370.112V377.984H451.672V374.816L446.68 376.448H443.656V365.36L448.648 363.584L443.752 361.808V348.32H444.76L452.968 351.584V362.048L454.024 361.712V333.776H466.216V358.832H467.56ZM452.968 350.048H451.96L443.752 346.736V334.688H445.336L452.968 337.856V350.048ZM427.576 335.024V348.176H423.016V335.024H427.576ZM438.52 348.176V335.024H442.744V348.176H438.52ZM485.224 334.784H501.304V356.624L496.84 362.576H485.224V334.784ZM485.512 365.408H500.104V377.024H485.512V365.408Z" fill="#232323"/>
<circle cx="57.5" cy="0.5" r="38.5" fill="white"/>
<circle cx="83.5" cy="114.5" r="7.5" fill="white"/>
<circle cx="439.5" cy="72.5" r="7.5" fill="white"/>
<circle cx="242" cy="135" r="4" fill="white"/>
<circle cx="414" cy="94" r="4" fill="white"/>
<circle cx="508" cy="110" r="4" fill="white"/>
<circle cx="36" cy="74" r="4" fill="white"/>
</g>
<defs>
<clipPath id="clip0_936_1185">
<rect width="526" height="425" fill="white"/>
</clipPath>
</defs>
</svg>
