<svg width="470" height="283" viewBox="0 0 470 283" fill="none" xmlns="http://www.w3.org/2000/svg">
<g clip-path="url(#clip0_984_1185)">
<path d="M325.442 121.58L781.446 382.896" stroke="#FFCD1A"/>
<path d="M319.63 128.776L833.44 511.686" stroke="#FFCD1A"/>
<path d="M330.439 110.894L733.166 270.405" stroke="#FFCD1A"/>
<path d="M270.62 124.39L284.735 97.6268L263.634 75.9428L290.398 90.0572L312.088 68.9613L297.967 95.7202L319.063 117.41L292.304 103.29L270.62 124.39Z" fill="#FFCD1A" stroke="black" stroke-miterlimit="10"/>
<circle cx="127.137" cy="141.32" r="123.317" transform="rotate(120 127.137 141.32)" fill="white"/>
<circle cx="127.137" cy="141.32" r="123.317" transform="rotate(120 127.137 141.32)" fill="white"/>
<circle cx="127.137" cy="141.32" r="123.317" transform="rotate(120 127.137 141.32)" stroke="black"/>
<mask id="path-6-inside-1_984_1185" fill="white">
<path d="M69.1385 241.777C55.9464 234.16 44.3836 224.02 35.1104 211.935C25.8371 199.85 19.0351 186.056 15.0925 171.342L127.137 141.32L69.1385 241.777Z"/>
</mask>
<path d="M69.1385 241.777C55.9464 234.16 44.3836 224.02 35.1104 211.935C25.8371 199.85 19.0351 186.056 15.0925 171.342L127.137 141.32L69.1385 241.777Z" fill="#34D39A" stroke="black" stroke-width="2" mask="url(#path-6-inside-1_984_1185)"/>
<mask id="path-7-inside-2_984_1185" fill="white">
<path d="M15.3316 172.221C11.2736 157.538 10.1474 142.2 12.0171 127.083C13.8868 111.965 18.7159 97.3634 26.2286 84.1119L127.137 141.32L15.3316 172.221Z"/>
</mask>
<path d="M15.3316 172.221C11.2736 157.538 10.1474 142.2 12.0171 127.083C13.8868 111.965 18.7159 97.3634 26.2286 84.1119L127.137 141.32L15.3316 172.221Z" fill="#FCA1CC" stroke="black" stroke-width="2" mask="url(#path-7-inside-2_984_1185)"/>
<mask id="path-8-inside-3_984_1185" fill="white">
<path d="M25.8708 84.7475C40.8748 57.8901 65.9333 38.093 95.5338 29.7113L127.137 141.32L25.8708 84.7475Z"/>
</mask>
<path d="M25.8708 84.7475C40.8748 57.8901 65.9333 38.093 95.5338 29.7113L127.137 141.32L25.8708 84.7475Z" fill="#FBDD00" stroke="black" stroke-width="2" mask="url(#path-8-inside-3_984_1185)"/>
<mask id="path-9-inside-4_984_1185" fill="white">
<path d="M94.6747 29.9582C124.21 21.3487 155.955 24.8245 182.927 39.621L127.137 141.32L94.6747 29.9582Z"/>
</mask>
<path d="M94.6747 29.9582C124.21 21.3487 155.955 24.8245 182.927 39.621L127.137 141.32L94.6747 29.9582Z" fill="white"/>
<path d="M94.6747 29.9582C124.21 21.3487 155.955 24.8245 182.927 39.621L127.137 141.32L94.6747 29.9582Z" fill="white"/>
<path d="M94.6747 29.9582C124.21 21.3487 155.955 24.8245 182.927 39.621L127.137 141.32L94.6747 29.9582Z" stroke="black" stroke-width="2" mask="url(#path-9-inside-4_984_1185)"/>
<mask id="path-10-inside-5_984_1185" fill="white">
<path d="M182.245 39.2498C209.316 53.8654 229.472 78.6362 238.279 108.113L127.137 141.32L182.245 39.2498Z"/>
</mask>
<path d="M182.245 39.2498C209.316 53.8654 229.472 78.6362 238.279 108.113L127.137 141.32L182.245 39.2498Z" fill="#34D39A" stroke="black" stroke-width="2" mask="url(#path-10-inside-5_984_1185)"/>
<mask id="path-11-inside-6_984_1185" fill="white">
<path d="M238.04 107.323C247.057 136.737 244.02 168.527 229.597 195.701L127.137 141.32L238.04 107.323Z"/>
</mask>
<path d="M238.04 107.323C247.057 136.737 244.02 168.527 229.597 195.701L127.137 141.32L238.04 107.323Z" fill="#FCA1CC" stroke="black" stroke-width="2" mask="url(#path-11-inside-6_984_1185)"/>
<mask id="path-12-inside-7_984_1185" fill="white">
<path d="M230.025 194.887C215.818 222.174 191.354 242.7 162.013 251.95L127.137 141.32L230.025 194.887Z"/>
</mask>
<path d="M230.025 194.887C215.818 222.174 191.354 242.7 162.013 251.95L127.137 141.32L230.025 194.887Z" fill="#FBDD00" stroke="black" stroke-width="2" mask="url(#path-12-inside-7_984_1185)"/>
<mask id="path-13-inside-8_984_1185" fill="white">
<path d="M162.871 251.676C147.266 256.729 130.766 258.415 114.46 256.622C98.1551 254.83 82.4154 249.599 68.2803 241.276L127.137 141.32L162.871 251.676Z"/>
</mask>
<path d="M162.871 251.676C147.266 256.729 130.766 258.415 114.46 256.622C98.1551 254.83 82.4154 249.599 68.2803 241.276L127.137 141.32L162.871 251.676Z" fill="white"/>
<path d="M162.871 251.676C147.266 256.729 130.766 258.415 114.46 256.622C98.1551 254.83 82.4154 249.599 68.2803 241.276L127.137 141.32L162.871 251.676Z" fill="white"/>
<path d="M162.871 251.676C147.266 256.729 130.766 258.415 114.46 256.622C98.1551 254.83 82.4154 249.599 68.2803 241.276L127.137 141.32L162.871 251.676Z" stroke="black" stroke-width="2" mask="url(#path-13-inside-8_984_1185)"/>
<circle cx="127.137" cy="141.32" r="20.3534" transform="rotate(120 127.137 141.32)" fill="white"/>
<circle cx="127.137" cy="141.32" r="20.3534" transform="rotate(120 127.137 141.32)" fill="white"/>
<circle cx="127.137" cy="141.32" r="20.3534" transform="rotate(120 127.137 141.32)" stroke="black"/>
<mask id="path-15-inside-9_984_1185" fill="white">
<path fill-rule="evenodd" clip-rule="evenodd" d="M179.076 127.607C181.724 130.945 187.064 129.686 187.942 125.516L194.64 93.724C195.415 90.0467 192.657 86.5706 188.9 86.4885L156.937 85.7903C152.47 85.6928 149.911 90.8445 152.688 94.3448V94.3448C154.499 96.6277 154.117 99.9466 151.834 101.758L117.185 129.246C110.23 134.763 109.065 144.874 114.582 151.829C120.1 158.784 130.211 159.949 137.166 154.432L172.006 126.792C174.183 125.064 177.349 125.429 179.076 127.607V127.607Z"/>
</mask>
<path fill-rule="evenodd" clip-rule="evenodd" d="M179.076 127.607C181.724 130.945 187.064 129.686 187.942 125.516L194.64 93.724C195.415 90.0467 192.657 86.5706 188.9 86.4885L156.937 85.7903C152.47 85.6928 149.911 90.8445 152.688 94.3448V94.3448C154.499 96.6277 154.117 99.9466 151.834 101.758L117.185 129.246C110.23 134.763 109.065 144.874 114.582 151.829C120.1 158.784 130.211 159.949 137.166 154.432L172.006 126.792C174.183 125.064 177.349 125.429 179.076 127.607V127.607Z" fill="white"/>
<path d="M137.166 154.432L136.544 153.648L137.166 154.432ZM172.006 126.792L171.384 126.008L172.006 126.792ZM194.64 93.724L193.661 93.5178L194.64 93.724ZM193.661 93.5178L186.964 125.31L188.921 125.723L195.619 93.9301L193.661 93.5178ZM156.915 86.7901L188.878 87.4883L188.922 85.4887L156.959 84.7906L156.915 86.7901ZM117.807 130.029L152.455 102.541L151.212 100.974L116.564 128.462L117.807 130.029ZM115.366 151.207C110.192 144.685 111.284 135.203 117.807 130.029L116.564 128.462C109.176 134.323 107.938 145.063 113.799 152.45L115.366 151.207ZM136.544 153.648C130.022 158.822 120.54 157.73 115.366 151.207L113.799 152.45C119.66 159.838 130.4 161.076 137.787 155.215L136.544 153.648ZM171.384 126.008L136.544 153.648L137.787 155.215L172.627 127.575L171.384 126.008ZM151.905 94.9663C153.373 96.8165 153.063 99.5064 151.212 100.974L152.455 102.541C155.171 100.387 155.626 96.4389 153.472 93.7233L151.905 94.9663ZM172.627 127.575C174.372 126.191 176.908 126.483 178.292 128.228L179.859 126.985C177.789 124.375 173.994 123.938 171.384 126.008L172.627 127.575ZM156.959 84.7906C151.645 84.6745 148.602 90.8026 151.905 94.9663L153.472 93.7233C151.221 90.8864 153.295 86.711 156.915 86.7901L156.959 84.7906ZM186.964 125.31C186.26 128.651 181.981 129.66 179.859 126.985L178.292 128.228C181.467 132.23 187.868 130.721 188.921 125.723L186.964 125.31ZM195.619 93.9301C196.522 89.64 193.305 85.5845 188.922 85.4887L188.878 87.4883C192.009 87.5566 194.307 90.4535 193.661 93.5178L195.619 93.9301Z" fill="black" mask="url(#path-15-inside-9_984_1185)"/>
<mask id="path-17-inside-10_984_1185" fill="white">
<path fill-rule="evenodd" clip-rule="evenodd" d="M200.162 184.43C204.274 183.968 207.233 180.26 206.771 176.148L206.587 174.508L208.227 174.323C212.339 173.861 215.298 170.153 214.836 166.041C214.374 161.929 210.666 158.97 206.554 159.432L204.913 159.616L204.757 158.228C204.295 154.116 200.587 151.157 196.475 151.619C192.363 152.081 189.404 155.789 189.866 159.901L190.022 161.29L188.634 161.446C184.522 161.908 181.563 165.616 182.025 169.728C182.487 173.84 186.195 176.799 190.307 176.337L191.695 176.181L191.88 177.821C192.342 181.934 196.05 184.892 200.162 184.43Z"/>
</mask>
<path fill-rule="evenodd" clip-rule="evenodd" d="M200.162 184.43C204.274 183.968 207.233 180.26 206.771 176.148L206.587 174.508L208.227 174.323C212.339 173.861 215.298 170.153 214.836 166.041C214.374 161.929 210.666 158.97 206.554 159.432L204.913 159.616L204.757 158.228C204.295 154.116 200.587 151.157 196.475 151.619C192.363 152.081 189.404 155.789 189.866 159.901L190.022 161.29L188.634 161.446C184.522 161.908 181.563 165.616 182.025 169.728C182.487 173.84 186.195 176.799 190.307 176.337L191.695 176.181L191.88 177.821C192.342 181.934 196.05 184.892 200.162 184.43Z" fill="#3C3C3C"/>
<path d="M206.587 174.508L206.475 173.514L205.481 173.626L205.593 174.619L206.587 174.508ZM214.836 166.041L215.83 165.929L214.836 166.041ZM206.554 159.432L206.666 160.426L206.554 159.432ZM204.913 159.616L203.92 159.728L204.031 160.722L205.025 160.61L204.913 159.616ZM204.757 158.228L205.751 158.116L204.757 158.228ZM190.022 161.29L190.134 162.283L191.127 162.172L191.016 161.178L190.022 161.29ZM190.307 176.337L190.419 177.331L190.307 176.337ZM191.695 176.181L192.689 176.069L192.577 175.075L191.584 175.187L191.695 176.181ZM205.777 176.26C206.177 179.823 203.613 183.036 200.05 183.437L200.273 185.424C204.934 184.9 208.288 180.697 207.765 176.036L205.777 176.26ZM205.593 174.619L205.777 176.26L207.765 176.036L207.58 174.396L205.593 174.619ZM208.116 173.33L206.475 173.514L206.698 175.501L208.339 175.317L208.116 173.33ZM213.843 166.153C214.243 169.716 211.679 172.929 208.116 173.33L208.339 175.317C213 174.793 216.354 170.59 215.83 165.929L213.843 166.153ZM206.666 160.426C210.229 160.025 213.442 162.589 213.843 166.153L215.83 165.929C215.306 161.268 211.103 157.915 206.442 158.438L206.666 160.426ZM205.025 160.61L206.666 160.426L206.442 158.438L204.802 158.623L205.025 160.61ZM203.764 158.34L203.92 159.728L205.907 159.505L205.751 158.116L203.764 158.34ZM196.587 152.613C200.15 152.212 203.363 154.776 203.764 158.34L205.751 158.116C205.227 153.455 201.024 150.102 196.363 150.625L196.587 152.613ZM190.86 159.79C190.459 156.226 193.023 153.013 196.587 152.613L196.363 150.625C191.702 151.149 188.348 155.352 188.872 160.013L190.86 159.79ZM191.016 161.178L190.86 159.79L188.872 160.013L189.028 161.401L191.016 161.178ZM188.746 162.439L190.134 162.283L189.91 160.296L188.522 160.452L188.746 162.439ZM183.019 169.616C182.618 166.053 185.182 162.84 188.746 162.439L188.522 160.452C183.861 160.976 180.507 165.179 181.031 169.839L183.019 169.616ZM190.196 175.343C186.632 175.744 183.419 173.179 183.019 169.616L181.031 169.839C181.555 174.5 185.758 177.854 190.419 177.331L190.196 175.343ZM191.584 175.187L190.196 175.343L190.419 177.331L191.807 177.175L191.584 175.187ZM192.873 177.71L192.689 176.069L190.701 176.293L190.886 177.933L192.873 177.71ZM200.05 183.437C196.487 183.837 193.274 181.273 192.873 177.71L190.886 177.933C191.41 182.594 195.613 185.948 200.273 185.424L200.05 183.437Z" fill="black" mask="url(#path-17-inside-10_984_1185)"/>
<mask id="path-19-inside-11_984_1185" fill="white">
<path fill-rule="evenodd" clip-rule="evenodd" d="M87.2357 216.935C89.2244 216.711 90.6553 214.918 90.4319 212.929L90.3427 212.136L91.136 212.047C93.1246 211.823 94.5556 210.03 94.3321 208.041C94.1087 206.053 92.3154 204.622 90.3268 204.845L89.5335 204.934L89.4581 204.263C89.2346 202.274 87.4414 200.843 85.4528 201.067C83.4641 201.29 82.0332 203.084 82.2566 205.072L82.3321 205.744L81.6606 205.819C79.672 206.042 78.241 207.836 78.4645 209.824C78.6879 211.813 80.4812 213.244 82.4698 213.02L83.1412 212.945L83.2304 213.738C83.4538 215.727 85.2471 217.158 87.2357 216.935Z"/>
</mask>
<path fill-rule="evenodd" clip-rule="evenodd" d="M87.2357 216.935C89.2244 216.711 90.6553 214.918 90.4319 212.929L90.3427 212.136L91.136 212.047C93.1246 211.823 94.5556 210.03 94.3321 208.041C94.1087 206.053 92.3154 204.622 90.3268 204.845L89.5335 204.934L89.4581 204.263C89.2346 202.274 87.4414 200.843 85.4528 201.067C83.4641 201.29 82.0332 203.084 82.2566 205.072L82.3321 205.744L81.6606 205.819C79.672 206.042 78.241 207.836 78.4645 209.824C78.6879 211.813 80.4812 213.244 82.4698 213.02L83.1412 212.945L83.2304 213.738C83.4538 215.727 85.2471 217.158 87.2357 216.935Z" fill="#3C3C3C"/>
<path d="M90.3427 212.136L90.2311 211.142L89.2373 211.254L89.349 212.247L90.3427 212.136ZM94.3321 208.041L95.3259 207.93L94.3321 208.041ZM90.3268 204.845L90.4385 205.839L90.3268 204.845ZM89.5335 204.934L88.5398 205.046L88.6514 206.04L89.6452 205.928L89.5335 204.934ZM82.3321 205.744L82.4437 206.737L83.4375 206.626L83.3258 205.632L82.3321 205.744ZM81.6606 205.819L81.549 204.825L81.6606 205.819ZM83.1412 212.945L84.135 212.833L84.0233 211.84L83.0296 211.951L83.1412 212.945ZM89.4381 213.041C89.5999 214.481 88.5639 215.779 87.1241 215.941L87.3474 217.928C89.8848 217.643 91.7107 215.355 91.4256 212.818L89.4381 213.041ZM89.349 212.247L89.4381 213.041L91.4256 212.818L91.3365 212.024L89.349 212.247ZM91.0243 211.053L90.2311 211.142L90.4544 213.13L91.2477 213.04L91.0243 211.053ZM93.3384 208.153C93.5002 209.593 92.4641 210.891 91.0243 211.053L91.2477 213.04C93.7851 212.755 95.611 210.467 95.3259 207.93L93.3384 208.153ZM90.4385 205.839C91.8783 205.677 93.1766 206.713 93.3384 208.153L95.3259 207.93C95.0408 205.392 92.7526 203.566 90.2151 203.851L90.4385 205.839ZM89.6452 205.928L90.4385 205.839L90.2151 203.851L89.4219 203.941L89.6452 205.928ZM88.4643 204.375L88.5398 205.046L90.5273 204.823L90.4518 204.151L88.4643 204.375ZM85.5644 202.061C87.0042 201.899 88.3026 202.935 88.4643 204.375L90.4518 204.151C90.1667 201.614 87.8786 199.788 85.3411 200.073L85.5644 202.061ZM83.2504 204.961C83.0886 203.521 84.1246 202.222 85.5644 202.061L85.3411 200.073C82.8036 200.358 80.9778 202.646 81.2629 205.184L83.2504 204.961ZM83.3258 205.632L83.2504 204.961L81.2629 205.184L81.3383 205.855L83.3258 205.632ZM81.7723 206.813L82.4437 206.737L82.2204 204.75L81.549 204.825L81.7723 206.813ZM79.4582 209.713C79.2965 208.273 80.3325 206.975 81.7723 206.813L81.549 204.825C79.0115 205.11 77.1856 207.399 77.4707 209.936L79.4582 209.713ZM82.3582 212.027C80.9184 212.188 79.62 211.152 79.4582 209.713L77.4707 209.936C77.7559 212.473 80.044 214.299 82.5815 214.014L82.3582 212.027ZM83.0296 211.951L82.3582 212.027L82.5815 214.014L83.2529 213.939L83.0296 211.951ZM84.2241 213.627L84.135 212.833L82.1475 213.057L82.2366 213.85L84.2241 213.627ZM87.1241 215.941C85.6843 216.103 84.3859 215.067 84.2241 213.627L82.2366 213.85C82.5218 216.387 84.8099 218.213 87.3474 217.928L87.1241 215.941Z" fill="black" mask="url(#path-19-inside-11_984_1185)"/>
<mask id="path-21-inside-12_984_1185" fill="white">
<path fill-rule="evenodd" clip-rule="evenodd" d="M98.4566 60.4047C101.456 58.0517 105.795 58.5758 108.148 61.5753C110.501 64.5748 109.977 68.9138 106.977 71.2668L105.781 72.2054L106.575 73.218C108.928 76.2175 108.404 80.5565 105.405 82.9095C102.405 85.2624 98.0661 84.7383 95.7132 81.7389L94.9188 80.7263L93.9062 81.5206C90.9067 83.8736 86.5677 83.3495 84.2147 80.35C81.8618 77.3506 82.3859 73.0116 85.3853 70.6586L86.398 69.8642L85.4593 68.6676C83.1063 65.6681 83.6304 61.3291 86.6299 58.9762C89.6293 56.6232 93.9683 57.1473 96.3213 60.1468L97.26 61.3434L98.4566 60.4047ZM91.3948 74.7177C93.4287 77.3104 97.1794 77.7635 99.7721 75.7295C102.365 73.6956 102.818 69.945 100.784 67.3522C98.7501 64.7594 94.9994 64.3064 92.4066 66.3403C89.8139 68.3742 89.3609 72.1249 91.3948 74.7177Z"/>
</mask>
<path fill-rule="evenodd" clip-rule="evenodd" d="M98.4566 60.4047C101.456 58.0517 105.795 58.5758 108.148 61.5753C110.501 64.5748 109.977 68.9138 106.977 71.2668L105.781 72.2054L106.575 73.218C108.928 76.2175 108.404 80.5565 105.405 82.9095C102.405 85.2624 98.0661 84.7383 95.7132 81.7389L94.9188 80.7263L93.9062 81.5206C90.9067 83.8736 86.5677 83.3495 84.2147 80.35C81.8618 77.3506 82.3859 73.0116 85.3853 70.6586L86.398 69.8642L85.4593 68.6676C83.1063 65.6681 83.6304 61.3291 86.6299 58.9762C89.6293 56.6232 93.9683 57.1473 96.3213 60.1468L97.26 61.3434L98.4566 60.4047ZM91.3948 74.7177C93.4287 77.3104 97.1794 77.7635 99.7721 75.7295C102.365 73.6956 102.818 69.945 100.784 67.3522C98.7501 64.7594 94.9994 64.3064 92.4066 66.3403C89.8139 68.3742 89.3609 72.1249 91.3948 74.7177Z" fill="white"/>
<path d="M98.4566 60.4047L99.0738 61.1915L98.4566 60.4047ZM105.781 72.2054L105.164 71.4186L104.377 72.0358L104.994 72.8226L105.781 72.2054ZM106.575 73.218L107.362 72.6008L106.575 73.218ZM94.9188 80.7263L95.7056 80.109L95.0884 79.3223L94.3016 79.9395L94.9188 80.7263ZM86.398 69.8642L87.0152 70.651L87.802 70.0338L87.1848 69.247L86.398 69.8642ZM97.26 61.3434L96.4732 61.9606L97.0904 62.7474L97.8772 62.1302L97.26 61.3434ZM108.935 60.9581C106.241 57.5241 101.273 56.9241 97.8394 59.6179L99.0738 61.1915C101.639 59.1794 105.349 59.6276 107.361 62.1925L108.935 60.9581ZM107.595 72.0535C111.029 69.3597 111.629 64.3921 108.935 60.9581L107.361 62.1925C109.373 64.7575 108.925 68.4679 106.36 70.48L107.595 72.0535ZM106.398 72.9922L107.595 72.0535L106.36 70.48L105.164 71.4186L106.398 72.9922ZM107.362 72.6008L106.568 71.5882L104.994 72.8226L105.788 73.8352L107.362 72.6008ZM106.022 83.6963C109.456 81.0024 110.056 76.0348 107.362 72.6008L105.788 73.8352C107.8 76.4002 107.352 80.1106 104.787 82.1227L106.022 83.6963ZM94.9264 82.3561C97.6202 85.7901 102.588 86.3901 106.022 83.6963L104.787 82.1227C102.222 84.1348 98.512 83.6866 96.5 81.1217L94.9264 82.3561ZM94.132 81.3435L94.9264 82.3561L96.5 81.1217L95.7056 80.109L94.132 81.3435ZM94.5234 82.3074L95.536 81.5131L94.3016 79.9395L93.2889 80.7338L94.5234 82.3074ZM83.4279 80.9673C86.1218 84.4013 91.0894 85.0013 94.5234 82.3074L93.2889 80.7338C90.724 82.7459 87.0136 82.2978 85.0015 79.7328L83.4279 80.9673ZM84.7681 69.8718C81.3341 72.5656 80.7341 77.5333 83.4279 80.9673L85.0015 79.7328C82.9894 77.1679 83.4376 73.4575 86.0025 71.4454L84.7681 69.8718ZM85.7808 69.0774L84.7681 69.8718L86.0025 71.4454L87.0152 70.651L85.7808 69.0774ZM84.6725 69.2848L85.6112 70.4814L87.1848 69.247L86.2461 68.0504L84.6725 69.2848ZM86.0127 58.1894C82.5786 60.8832 81.9786 65.8508 84.6725 69.2848L86.2461 68.0504C84.234 65.4855 84.6821 61.7751 87.2471 59.763L86.0127 58.1894ZM97.1081 59.5296C94.4143 56.0956 89.4467 55.4955 86.0127 58.1894L87.2471 59.763C89.812 57.7509 93.5224 58.1991 95.5345 60.764L97.1081 59.5296ZM98.0468 60.7262L97.1081 59.5296L95.5345 60.764L96.4732 61.9606L98.0468 60.7262ZM97.8394 59.6179L96.6428 60.5566L97.8772 62.1302L99.0738 61.1915L97.8394 59.6179ZM99.1549 74.9427C96.9967 76.6358 93.8746 76.2587 92.1816 74.1005L90.608 75.3349C92.9828 78.3622 97.362 78.8911 100.389 76.5163L99.1549 74.9427ZM99.9972 67.9694C101.69 70.1276 101.313 73.2497 99.1549 74.9427L100.389 76.5163C103.417 74.1415 103.946 69.7623 101.571 66.735L99.9972 67.9694ZM93.0239 67.1271C95.1821 65.4341 98.3041 65.8112 99.9972 67.9694L101.571 66.735C99.196 63.7077 94.8167 63.1787 91.7894 65.5535L93.0239 67.1271ZM92.1816 74.1005C90.4885 71.9422 90.8656 68.8202 93.0239 67.1271L91.7894 65.5535C88.7621 67.9283 88.2332 72.3076 90.608 75.3349L92.1816 74.1005Z" fill="black" mask="url(#path-21-inside-12_984_1185)"/>
<circle cx="19" cy="19" r="18.5" transform="matrix(1 0 0 -1 279 241)" fill="#99E4EE" stroke="black"/>
<circle cx="7" cy="7" r="6.5" transform="matrix(1 0 0 -1 224 169)" fill="white" stroke="black"/>
<circle cx="9" cy="9" r="8.5" transform="matrix(1 0 0 -1 384 75)" fill="#F095FF" stroke="black"/>
<circle cx="4" cy="4" r="4" transform="matrix(1 0 0 -1 412 226)" fill="#FFCD1A"/>
<circle cx="4" cy="4" r="4" transform="matrix(1 0 0 -1 271 170)" fill="#FFCD1A"/>
<circle cx="4" cy="4" r="4" transform="matrix(1 0 0 -1 346 65)" fill="#FFCD1A"/>
<circle cx="2" cy="2" r="2" transform="matrix(1 0 0 -1 363 213)" fill="#FFCD1A"/>
<circle cx="2" cy="2" r="2" transform="matrix(1 0 0 -1 420 91)" fill="#FFCD1A"/>
</g>
<defs>
<clipPath id="clip0_984_1185">
<rect width="470" height="283" fill="white"/>
</clipPath>
</defs>
</svg>
