<svg width="26" height="26" viewBox="0 0 26 26" fill="none" xmlns="http://www.w3.org/2000/svg">
<path d="M7.71248 3.85586H4.25102V1.77252H9.12289L11.2062 6.98086H21.9593V9.06419H19.7531L18.8916 23.709C18.876 23.9741 18.7596 24.2232 18.5664 24.4054C18.3732 24.5876 18.1176 24.6891 17.8521 24.6892H7.31664C7.05106 24.6891 6.79553 24.5876 6.6023 24.4054C6.40907 24.2232 6.29273 23.9741 6.27706 23.709L5.4156 9.06419H3.20935V6.98086H8.96248L7.71248 3.85586ZM7.50206 9.06419L7.68748 12.2152C10.4708 12.3298 11.8218 12.8454 12.9593 13.3006C14.0541 13.7381 14.9594 14.1194 17.3625 14.2381L17.6666 9.06419H7.50206Z" fill="#4F4F4F"/>
</svg>
