<svg width="27" height="27" viewBox="0 0 27 27" fill="none" xmlns="http://www.w3.org/2000/svg">
<path d="M14.2592 19.0239L11.1177 15.8823L7.97616 12.7408C7.88445 12.649 7.81665 12.5361 7.77867 12.412C7.74069 12.288 7.7337 12.1565 7.7583 12.0291C7.78291 11.9016 7.83836 11.7822 7.91981 11.6812C8.00125 11.5802 8.10621 11.5006 8.22551 11.4496L12.4034 9.65885C12.4993 9.61778 12.5862 9.55821 12.6591 9.48354C12.732 9.40887 12.7895 9.32057 12.8282 9.22367L13.8471 6.67694C13.8959 6.55499 13.9742 6.44706 14.0749 6.36281C14.1757 6.27856 14.2958 6.22061 14.4245 6.19417C14.5531 6.16773 14.6863 6.17362 14.8122 6.21131C14.938 6.24899 15.0525 6.3173 15.1454 6.41011L20.5899 11.8546C20.6827 11.9475 20.751 12.062 20.7887 12.1879C20.8264 12.3137 20.8323 12.4469 20.8059 12.5756C20.7794 12.7042 20.7215 12.8243 20.6372 12.9251C20.553 13.0259 20.445 13.1042 20.3231 13.153L17.7764 14.1718C17.6795 14.2106 17.5912 14.268 17.5165 14.3409C17.4418 14.4138 17.3822 14.5007 17.3412 14.5967L15.5504 18.7745C15.4994 18.8938 15.4199 18.9988 15.3188 19.0802C15.2178 19.1617 15.0984 19.2171 14.971 19.2417C14.8436 19.2663 14.7121 19.2593 14.588 19.2214C14.4639 19.1834 14.351 19.1156 14.2592 19.0239V19.0239Z" fill="#3C3C3C"/>
<path d="M7.14722 19.8529L11.1178 15.8823M11.1178 15.8823L14.2593 19.0239C14.3511 19.1156 14.464 19.1834 14.5881 19.2214C14.7122 19.2593 14.8437 19.2663 14.9711 19.2417C15.0985 19.2171 15.2179 19.1617 15.319 19.0802C15.42 18.9988 15.4995 18.8938 15.5506 18.7745L17.3413 14.5967C17.3824 14.5007 17.4419 14.4138 17.5166 14.3409C17.5913 14.268 17.6796 14.2106 17.7765 14.1718L20.3232 13.153C20.4452 13.1042 20.5531 13.0259 20.6373 12.9251C20.7216 12.8243 20.7795 12.7042 20.806 12.5756C20.8324 12.4469 20.8265 12.3137 20.7888 12.1879C20.7512 12.062 20.6829 11.9475 20.59 11.8546L15.1456 6.41011C15.0526 6.3173 14.9381 6.24899 14.8123 6.21131C14.6865 6.17362 14.5532 6.16773 14.4246 6.19417C14.2959 6.22061 14.1758 6.27856 14.0751 6.36281C13.9743 6.44706 13.896 6.55499 13.8472 6.67694L12.8283 9.22367C12.7896 9.32057 12.7321 9.40887 12.6592 9.48354C12.5863 9.55821 12.4994 9.61779 12.4035 9.65885L8.22563 11.4496C8.10634 11.5006 8.00137 11.5802 7.91993 11.6812C7.83848 11.7822 7.78303 11.9016 7.75842 12.0291C7.73382 12.1565 7.74081 12.288 7.77879 12.412C7.81677 12.5361 7.88457 12.649 7.97628 12.7408L11.1178 15.8823Z" stroke="#3C3C3C" stroke-width="2" stroke-linecap="round" stroke-linejoin="round"/>
</svg>
