<svg width="16" height="16" viewBox="0 0 16 16" fill="none" xmlns="http://www.w3.org/2000/svg">
<path d="M15.2785 3.18591C15.6758 2.79658 15.679 2.1579 15.2857 1.76459L14.2354 0.714285C13.8421 0.320969 13.2034 0.324194 12.8141 0.721463L8 5.6338L3.18591 0.721464C2.79658 0.324195 2.1579 0.320969 1.76459 0.714285L0.714286 1.76459C0.320969 2.1579 0.324194 2.79658 0.721464 3.18591L5.6338 8L0.721464 12.8141C0.324195 13.2034 0.320969 13.8421 0.714285 14.2354L1.76459 15.2857C2.1579 15.679 2.79658 15.6758 3.18591 15.2785L8 10.3662L12.8141 15.2785C13.2034 15.6758 13.8421 15.679 14.2354 15.2857L15.2857 14.2354C15.679 13.8421 15.6758 13.2034 15.2785 12.8141L10.3662 8L15.2785 3.18591Z" fill="#3C3C3C"/>
</svg>
