<svg width="25" height="25" viewBox="0 0 25 25" fill="none" xmlns="http://www.w3.org/2000/svg">
<path d="M5.65588 22.2725C5.10588 22.2725 4.63522 22.0769 4.24388 21.6855C3.85255 21.2942 3.65655 20.8232 3.65588 20.2725V6.27252C3.65588 5.72252 3.85188 5.25186 4.24388 4.86052C4.63588 4.46919 5.10655 4.27319 5.65588 4.27252H6.65588V2.27252H8.65588V4.27252H16.6559V2.27252H18.6559V4.27252H19.6559C20.2059 4.27252 20.6769 4.46852 21.0689 4.86052C21.4609 5.25252 21.6566 5.72319 21.6559 6.27252V11.9475C21.3392 11.7975 21.0142 11.6725 20.6809 11.5725C20.3476 11.4725 20.0059 11.3975 19.6559 11.3475V10.2725H5.65588V20.2725H11.9559C12.0726 20.6392 12.2102 20.9892 12.3689 21.3225C12.5276 21.6559 12.7149 21.9725 12.9309 22.2725H5.65588ZM18.6559 23.2725C17.2726 23.2725 16.0936 22.7849 15.1189 21.8095C14.1442 20.8342 13.6566 19.6552 13.6559 18.2725C13.6559 16.8892 14.1436 15.7102 15.1189 14.7355C16.0942 13.7609 17.2732 13.2732 18.6559 13.2725C20.0392 13.2725 21.2186 13.7602 22.1939 14.7355C23.1692 15.7109 23.6566 16.8899 23.6559 18.2725C23.6559 19.6559 23.1682 20.8352 22.1929 21.8105C21.2176 22.7859 20.0386 23.2732 18.6559 23.2725ZM20.3309 20.6475L21.0309 19.9475L19.1559 18.0725V15.2725H18.1559V18.4725L20.3309 20.6475Z" fill="#DA9000"/>
</svg>
