<svg width="38" height="38" viewBox="0 0 38 38" fill="none" xmlns="http://www.w3.org/2000/svg">
<path d="M6.375 11.75C7.00489 11.75 7.60898 11.4998 8.05438 11.0544C8.49978 10.609 8.75 10.0049 8.75 9.375C8.75 8.74511 8.49978 8.14102 8.05438 7.69562C7.60898 7.25022 7.00489 7 6.375 7C5.74511 7 5.14102 7.25022 4.69562 7.69562C4.25022 8.14102 4 8.74511 4 9.375C4 10.0049 4.25022 10.609 4.69562 11.0544C5.14102 11.4998 5.74511 11.75 6.375 11.75ZM13.5 9.375C13.5 8.99707 13.6501 8.63461 13.9174 8.36737C14.1846 8.10013 14.5471 7.95 14.925 7.95H32.975C33.3529 7.95 33.7154 8.10013 33.9826 8.36737C34.2499 8.63461 34.4 8.99707 34.4 9.375C34.4 9.75293 34.2499 10.1154 33.9826 10.3826C33.7154 10.6499 33.3529 10.8 32.975 10.8H14.925C14.5471 10.8 14.1846 10.6499 13.9174 10.3826C13.6501 10.1154 13.5 9.75293 13.5 9.375ZM14.925 17.45C14.5471 17.45 14.1846 17.6001 13.9174 17.8674C13.6501 18.1346 13.5 18.4971 13.5 18.875C13.5 19.2529 13.6501 19.6154 13.9174 19.8826C14.1846 20.1499 14.5471 20.3 14.925 20.3H32.975C33.3529 20.3 33.7154 20.1499 33.9826 19.8826C34.2499 19.6154 34.4 19.2529 34.4 18.875C34.4 18.4971 34.2499 18.1346 33.9826 17.8674C33.7154 17.6001 33.3529 17.45 32.975 17.45H14.925ZM14.925 26.95C14.5471 26.95 14.1846 27.1001 13.9174 27.3674C13.6501 27.6346 13.5 27.9971 13.5 28.375C13.5 28.7529 13.6501 29.1154 13.9174 29.3826C14.1846 29.6499 14.5471 29.8 14.925 29.8H32.975C33.3529 29.8 33.7154 29.6499 33.9826 29.3826C34.2499 29.1154 34.4 28.7529 34.4 28.375C34.4 27.9971 34.2499 27.6346 33.9826 27.3674C33.7154 27.1001 33.3529 26.95 32.975 26.95H14.925ZM8.75 18.875C8.75 19.5049 8.49978 20.109 8.05438 20.5544C7.60898 20.9998 7.00489 21.25 6.375 21.25C5.74511 21.25 5.14102 20.9998 4.69562 20.5544C4.25022 20.109 4 19.5049 4 18.875C4 18.2451 4.25022 17.641 4.69562 17.1956C5.14102 16.7502 5.74511 16.5 6.375 16.5C7.00489 16.5 7.60898 16.7502 8.05438 17.1956C8.49978 17.641 8.75 18.2451 8.75 18.875ZM6.375 30.75C7.00489 30.75 7.60898 30.4998 8.05438 30.0544C8.49978 29.609 8.75 29.0049 8.75 28.375C8.75 27.7451 8.49978 27.141 8.05438 26.6956C7.60898 26.2502 7.00489 26 6.375 26C5.74511 26 5.14102 26.2502 4.69562 26.6956C4.25022 27.141 4 27.7451 4 28.375C4 29.0049 4.25022 29.609 4.69562 30.0544C5.14102 30.4998 5.74511 30.75 6.375 30.75Z" fill="black"/>
</svg>
