<svg width="23" height="23" viewBox="0 0 23 23" fill="none" xmlns="http://www.w3.org/2000/svg">
<path d="M21.5094 15.8851L19.8489 14.9598C20.1494 14.6612 20.494 14.4072 20.8716 14.2059C21.1184 14.0717 21.3003 13.8488 21.3776 13.5858C21.4549 13.3227 21.4213 13.0409 21.2843 12.8017C21.1472 12.5624 20.9178 12.385 20.6458 12.3082C20.3739 12.2314 20.0815 12.2613 19.8323 12.3915C19.1114 12.7764 18.4726 13.2896 17.9497 13.9039L13.6467 11.5034L17.9487 9.10708C18.4715 9.72149 19.1104 10.2347 19.8314 10.6195C19.9549 10.6867 20.0911 10.7296 20.232 10.7458C20.3728 10.762 20.5156 10.7511 20.6521 10.7138C20.7886 10.6765 20.9161 10.6134 21.0272 10.5283C21.1383 10.4432 21.2308 10.3377 21.2994 10.2179C21.368 10.0981 21.4113 9.96638 21.4269 9.83034C21.4425 9.6943 21.43 9.55664 21.3901 9.42529C21.3503 9.29394 21.2838 9.1715 21.1946 9.06505C21.1055 8.9586 20.9953 8.87024 20.8706 8.80507C20.4931 8.60371 20.1485 8.34969 19.848 8.05123L21.5084 7.12588C21.6354 7.06037 21.7475 6.97089 21.8379 6.86276C21.9284 6.75464 21.9954 6.63007 22.0349 6.49647C22.0745 6.36286 22.0858 6.22295 22.0682 6.08505C22.0506 5.94714 22.0044 5.81406 21.9324 5.69372C21.8604 5.57337 21.7641 5.46821 21.6491 5.3845C21.5342 5.30079 21.403 5.24022 21.2633 5.20641C21.1236 5.1726 20.9783 5.16622 20.836 5.18767C20.6937 5.20912 20.5573 5.25795 20.435 5.33126L18.7745 6.25613C18.6563 5.85562 18.6 5.44045 18.6075 5.02406C18.6106 4.8877 18.5858 4.75209 18.5345 4.625C18.4832 4.49791 18.4063 4.38184 18.3084 4.28344C18.2105 4.18505 18.0935 4.10626 17.9639 4.0516C17.8344 3.99694 17.695 3.96748 17.5536 3.96491H17.5336C17.2521 3.96486 16.9818 4.07141 16.7809 4.26164C16.58 4.45187 16.4644 4.71059 16.4592 4.98213C16.4441 5.77644 16.5849 6.56633 16.8743 7.3101L12.5723 9.7078V4.9157C13.3851 4.78609 14.1652 4.50904 14.871 4.09919C15.1151 3.9573 15.2908 3.72768 15.3594 3.46083C15.428 3.19399 15.3839 2.91179 15.2368 2.6763C15.0898 2.44082 14.8517 2.27135 14.5751 2.20517C14.2986 2.13899 14.006 2.18152 13.762 2.32341C13.3919 2.53796 12.9911 2.69848 12.5723 2.79975V1.23222C12.5723 0.95731 12.4591 0.693662 12.2576 0.499274C12.0561 0.304885 11.7829 0.195679 11.4979 0.195679C11.213 0.195679 10.9397 0.304885 10.7382 0.499274C10.5367 0.693662 10.4235 0.95731 10.4235 1.23222V2.79975C10.0048 2.69848 9.60386 2.53796 9.23385 2.32341C8.98977 2.18152 8.69725 2.13899 8.42066 2.20517C8.14407 2.27135 7.90606 2.44082 7.75899 2.6763C7.61192 2.91179 7.56783 3.19399 7.63643 3.46083C7.70503 3.72768 7.88069 3.9573 8.12477 4.09919C8.83066 4.50904 9.61067 4.78609 10.4235 4.9157V9.7078L6.12151 7.3101C6.41135 6.5661 6.55253 5.77587 6.53759 4.98119C6.53234 4.70964 6.41684 4.45093 6.21591 4.2607C6.01499 4.07047 5.7447 3.96392 5.46319 3.96397H5.44219C5.30109 3.96648 5.16189 3.99579 5.03253 4.05021C4.90317 4.10464 4.7862 4.18312 4.68828 4.28117C4.59037 4.37922 4.51344 4.49492 4.46188 4.62166C4.41033 4.7484 4.38516 4.8837 4.38781 5.01982C4.39569 5.43681 4.33957 5.85263 4.22128 6.25378L2.56084 5.33126C2.43857 5.26089 2.30302 5.21467 2.16207 5.19528C2.02112 5.1759 1.87758 5.18373 1.73979 5.21833C1.60201 5.25293 1.47273 5.31361 1.35946 5.39684C1.24619 5.48006 1.1512 5.58417 1.08001 5.70313C1.00881 5.82208 0.962835 5.9535 0.944744 6.08974C0.926653 6.22598 0.936811 6.36434 0.974627 6.49676C1.01244 6.62919 1.07717 6.75304 1.16503 6.86112C1.25289 6.9692 1.36215 7.05936 1.48644 7.12635L3.14688 8.0517C2.84631 8.35016 2.50172 8.60418 2.12424 8.80554C1.99949 8.87071 1.88936 8.95907 1.80019 9.06552C1.71102 9.17197 1.64458 9.29441 1.60472 9.42576C1.56485 9.55711 1.55234 9.69478 1.56792 9.83081C1.58349 9.96685 1.62683 10.0986 1.69545 10.2184C1.76406 10.3382 1.85658 10.4437 1.96768 10.5288C2.07878 10.6139 2.20625 10.6769 2.34273 10.7143C2.47922 10.7516 2.62201 10.7625 2.76288 10.7463C2.90375 10.7301 3.03991 10.6872 3.16348 10.62C3.88437 10.235 4.52318 9.72184 5.04613 9.10755L9.3491 11.5034L5.0471 13.8997C4.52415 13.2854 3.88535 12.7722 3.16446 12.3873C3.04088 12.32 2.90473 12.2771 2.76386 12.2609C2.62299 12.2447 2.48019 12.2556 2.34371 12.293C2.20722 12.3303 2.07976 12.3933 1.96866 12.4784C1.85756 12.5636 1.76504 12.6691 1.69642 12.7888C1.62781 12.9086 1.58446 13.0404 1.56889 13.1764C1.55332 13.3124 1.56583 13.4501 1.60569 13.5815C1.64556 13.7128 1.71199 13.8352 1.80116 13.9417C1.89033 14.0481 2.00047 14.1365 2.12522 14.2017C2.50269 14.403 2.84729 14.6571 3.14786 14.9555L1.48644 15.8851C1.36215 15.9521 1.25289 16.0422 1.16503 16.1503C1.07717 16.2584 1.01244 16.3823 0.974627 16.5147C0.936811 16.6471 0.926653 16.7855 0.944744 16.9217C0.962835 17.058 1.00881 17.1894 1.08001 17.3083C1.1512 17.4273 1.24619 17.5314 1.35946 17.6146C1.47273 17.6978 1.60201 17.7585 1.73979 17.7931C1.87758 17.8277 2.02112 17.8356 2.16207 17.8162C2.30302 17.7968 2.43857 17.7506 2.56084 17.6802L4.22128 16.7553C4.33954 17.1558 4.39582 17.571 4.3883 17.9874C4.38333 18.262 4.49153 18.5273 4.68912 18.725C4.88672 18.9227 5.15757 19.0366 5.44219 19.0418H5.46221C5.74373 19.0419 6.01401 18.9353 6.21494 18.7451C6.41586 18.5549 6.53137 18.2962 6.53662 18.0246C6.55175 17.2303 6.4109 16.4404 6.12151 15.6966L10.4235 13.2989V18.091C9.61067 18.2206 8.83066 18.4977 8.12477 18.9076C7.88069 19.0494 7.70503 19.2791 7.63643 19.5459C7.56783 19.8128 7.61192 20.095 7.75899 20.3304C7.90606 20.5659 8.14407 20.7354 8.42066 20.8016C8.69725 20.8678 8.98977 20.8252 9.23385 20.6833C9.60386 20.4688 10.0048 20.3083 10.4235 20.207V21.7745C10.4235 22.0494 10.5367 22.3131 10.7382 22.5075C10.9397 22.7019 11.213 22.8111 11.4979 22.8111C11.7829 22.8111 12.0561 22.7019 12.2576 22.5075C12.4591 22.3131 12.5723 22.0494 12.5723 21.7745V20.207C12.9911 20.3083 13.3919 20.4688 13.762 20.6833C14.006 20.8252 14.2986 20.8678 14.5751 20.8016C14.8517 20.7354 15.0898 20.5659 15.2368 20.3304C15.3839 20.095 15.428 19.8128 15.3594 19.5459C15.2908 19.2791 15.1151 19.0494 14.871 18.9076C14.1652 18.4977 13.3851 18.2206 12.5723 18.091V13.2989L16.8743 15.6966C16.5845 16.4406 16.4433 17.2309 16.4582 18.0256C16.4635 18.2971 16.579 18.5558 16.7799 18.746C16.9808 18.9363 17.2511 19.0428 17.5326 19.0428H17.5536C17.6947 19.0403 17.8339 19.011 17.9633 18.9565C18.0926 18.9021 18.2096 18.8236 18.3075 18.7256C18.4054 18.6275 18.4824 18.5118 18.5339 18.3851C18.5855 18.2583 18.6107 18.123 18.608 17.9869C18.6001 17.5699 18.6562 17.1541 18.7745 16.753L20.435 17.6778C20.5572 17.7536 20.6942 17.8046 20.8375 17.8278C20.9808 17.8511 21.1274 17.846 21.2687 17.813C21.4099 17.7799 21.5427 17.7196 21.659 17.6357C21.7754 17.5517 21.8729 17.4458 21.9456 17.3245C22.0183 17.2031 22.0648 17.0688 22.0822 16.9296C22.0995 16.7904 22.0875 16.6493 22.0467 16.5147C22.0059 16.3802 21.9373 16.255 21.8449 16.1468C21.7526 16.0386 21.6384 15.9495 21.5094 15.8851Z" fill="#5CBDCA"/>
</svg>
