<svg width="40" height="40" viewBox="0 0 40 40" fill="none" xmlns="http://www.w3.org/2000/svg">
<g clip-path="url(#clip0_930_2782)">
<mask id="mask0_930_2782" style="mask-type:luminance" maskUnits="userSpaceOnUse" x="0" y="0" width="40" height="40">
<path d="M40 0H0V40H40V0Z" fill="white"/>
</mask>
<g mask="url(#mask0_930_2782)">
<mask id="mask1_930_2782" style="mask-type:luminance" maskUnits="userSpaceOnUse" x="0" y="0" width="21" height="40">
<path d="M21 0H0V40H21V0Z" fill="white"/>
</mask>
<g mask="url(#mask1_930_2782)">
<path d="M12.649 37.9442L20.9945 32.3624L29.3366 37.942C29.8491 38.3038 30.4645 38.5 31.098 38.5C31.7341 38.5 32.352 38.3022 32.8657 37.9376L32.8676 37.9363C33.3768 37.5715 33.7564 37.0611 33.9586 36.4779C34.1605 35.8952 34.1765 35.2654 34.005 34.6736C34.0048 34.6731 34.0047 34.6726 34.0044 34.6721L31.2529 24.9889L39.2102 18.717C39.7183 18.3373 40.0915 17.8119 40.2823 17.2163C40.4737 16.6184 40.4729 15.9764 40.2798 15.379C40.0867 14.7815 39.7097 14.2552 39.1974 13.8765C38.6864 13.4987 38.0669 13.2874 37.425 13.2757L27.3561 12.8961L23.8679 3.49406C23.8676 3.49363 23.8675 3.49319 23.8673 3.49276C23.655 2.91403 23.2683 2.41035 22.7553 2.05246C22.2415 1.69405 21.6268 1.5 20.9945 1.5C20.3621 1.5 19.7474 1.69405 19.2337 2.05246C18.7205 2.41051 18.3336 2.91448 18.1213 3.49355C18.1213 3.49372 18.1213 3.49338 18.1213 3.49355L14.6439 12.9302L4.57531 13.3098C3.93351 13.3216 3.31397 13.5329 2.80294 13.9107C2.29066 14.2894 1.91373 14.8156 1.72062 15.4131C1.52757 16.0105 1.52671 16.6526 1.71814 17.2504C1.90892 17.8462 2.28233 18.3717 2.79063 18.7515L10.7132 24.9667L7.98414 34.6164C7.98404 34.6168 7.98393 34.6172 7.98383 34.6175C7.81334 35.2108 7.82992 35.8417 8.0316 36.4256C8.23348 37.01 8.61219 37.522 9.1204 37.8897C9.62897 38.2575 10.2418 38.4621 10.8757 38.472C11.5092 38.4818 12.1281 38.2966 12.6482 37.9448C12.6485 37.9446 12.6488 37.9444 12.649 37.9442ZM27.4137 13.0513C27.4138 13.0517 27.4135 13.0509 27.4137 13.0513Z" fill="#FFF066"/>
</g>
<mask id="mask2_930_2782" style="mask-type:luminance" maskUnits="userSpaceOnUse" x="20" y="0" width="20" height="40">
<path d="M20 0H40V40H20V0Z" fill="white"/>
</mask>
<g mask="url(#mask2_930_2782)">
<path d="M27.9535 37.9442L20.0054 32.3624L12.0606 37.942C11.5725 38.3038 10.9864 38.5 10.383 38.5C9.77723 38.5 9.18883 38.3022 8.69953 37.9376L8.69773 37.9363C8.21283 37.5715 7.85123 37.0611 7.65873 36.4779C7.46643 35.8952 7.45113 35.2654 7.61453 34.6736C7.61473 34.6731 7.61483 34.6726 7.61503 34.6721L10.2355 24.9889L2.65713 18.717C2.17323 18.3373 1.81783 17.8119 1.63613 17.2163C1.45383 16.6184 1.45463 15.9764 1.63853 15.379C1.82243 14.7815 2.18143 14.2552 2.66933 13.8765C3.15603 13.4987 3.74603 13.2874 4.35733 13.2757L13.9468 12.8961L17.2689 3.49406C17.2691 3.49363 17.2692 3.49319 17.2694 3.49276C17.4716 2.91403 17.8399 2.41035 18.3285 2.05246C18.8178 1.69405 19.4032 1.5 20.0054 1.5C20.6077 1.5 21.1931 1.69405 21.6824 2.05246C22.1711 2.41051 22.5396 2.91448 22.7418 3.49355C22.7418 3.49372 22.7418 3.49338 22.7418 3.49355L26.0536 12.9302L35.6427 13.3098C36.254 13.3216 36.844 13.5329 37.3307 13.9107C37.8186 14.2894 38.1776 14.8156 38.3615 15.4131C38.5454 16.0105 38.5462 16.6526 38.3639 17.2504C38.1822 17.8462 37.8265 18.3717 37.3424 18.7515L29.7971 24.9667L32.3962 34.6164C32.3963 34.6168 32.3964 34.6172 32.3965 34.6175C32.5589 35.2108 32.5431 35.8417 32.351 36.4256C32.1588 37.01 31.7981 37.522 31.3141 37.8897C30.8297 38.2575 30.2461 38.4621 29.6424 38.472C29.039 38.4818 28.4496 38.2966 27.9543 37.9448C27.954 37.9446 27.9537 37.9444 27.9535 37.9442ZM13.8919 13.0513C13.8921 13.0509 13.8918 13.0517 13.8919 13.0513Z" fill="#F3F2F2"/>
</g>
<path d="M17.2582 3.49355C17.4604 2.91448 17.8289 2.41051 18.3176 2.05246C18.8069 1.69405 19.3923 1.5 19.9946 1.5C20.5968 1.5 21.1822 1.69405 21.6715 2.05246C22.1601 2.41035 22.5284 2.91403 22.7306 3.49276C22.7308 3.49319 22.7309 3.49363 22.7311 3.49406L26.0532 12.8961L35.6427 13.2757C36.254 13.2874 36.844 13.4987 37.3307 13.8765C37.8186 14.2552 38.1776 14.7815 38.3615 15.379C38.5454 15.9764 38.5462 16.6184 38.3639 17.2163C38.1822 17.8119 37.8268 18.3373 37.3429 18.717L29.7645 24.9889L32.385 34.6721C32.3852 34.6726 32.3853 34.6731 32.3855 34.6736C32.5489 35.2654 32.5336 35.8952 32.3413 36.4779C32.1488 37.0611 31.7872 37.5715 31.3023 37.9363L31.3005 37.9376C30.8112 38.3022 30.2228 38.5 29.617 38.5C29.0136 38.5 28.4275 38.3038 27.9394 37.942L19.9946 32.3624L12.0465 37.9442C12.0463 37.9444 12.046 37.9446 12.0457 37.9448C11.5504 38.2966 10.961 38.4818 10.3576 38.472C9.75393 38.4621 9.17026 38.2575 8.68591 37.8897C8.2019 37.522 7.84122 37.01 7.64896 36.4256C7.45688 35.8417 7.44109 35.2108 7.60346 34.6175C7.60356 34.6172 7.60366 34.6168 7.60376 34.6164L10.2029 24.9667L2.65756 18.7515C2.17346 18.3717 1.81783 17.8462 1.63614 17.2504C1.45382 16.6526 1.45464 16.0105 1.6385 15.4131C1.82241 14.8156 2.18139 14.2894 2.66928 13.9107C3.15598 13.5329 3.74601 13.3216 4.35725 13.3098L13.9464 12.9302L17.2582 3.49355ZM17.2582 3.49355C17.2582 3.49338 17.2582 3.49372 17.2582 3.49355ZM26.1081 13.0513C26.1079 13.0509 26.1082 13.0517 26.1081 13.0513Z" stroke="#3C3C3C" stroke-width="1.5"/>
</g>
</g>
<defs>
<clipPath id="clip0_930_2782">
<rect width="40" height="40" fill="white"/>
</clipPath>
</defs>
</svg>
