<svg width="693" height="593" viewBox="0 0 693 593" fill="none" xmlns="http://www.w3.org/2000/svg">
<circle cx="516" cy="161" r="14.5" fill="#F095FF" stroke="black"/>
<path d="M628.5 29.2779L647.195 2L646.275 35.0454L677.445 23.9698L657.274 50.1595L689 59.506L657.274 68.8405L677.445 95.0302L646.275 83.9546L647.195 117L628.5 89.7342L609.806 117L610.713 83.9546L579.555 95.0302L599.726 68.8405L568 59.506L599.726 50.1595L579.555 23.9698L610.713 35.0454L609.806 2L628.5 29.2779Z" fill="white" stroke="black" stroke-miterlimit="10"/>
<path d="M617 230.5L-44 529" stroke="white"/>
<path d="M614.5 221L-147 466.5" stroke="white"/>
<path d="M623 241.5L-60.5 654" stroke="white"/>
<path d="M655.996 184L660.507 212.493L689 216.996L660.507 221.507L655.996 250L651.493 221.507L623 216.996L651.493 212.493L655.996 184Z" fill="#FFF066" stroke="black" stroke-miterlimit="10"/>
</svg>
