<svg width="727" height="545" viewBox="0 0 727 545" fill="none" xmlns="http://www.w3.org/2000/svg">
<rect x="1.12256" y="93.5" width="590" height="320" fill="white" stroke="black"/>
<path d="M643.76 177.29L201.622 518" stroke="#FFCD1A"/>
<path d="M639.072 168.657L54.1226 516.5" stroke="#FFCD1A"/>
<path d="M652.204 186.547L331.622 516.5" stroke="#FFCD1A"/>
<path d="M663.348 122.379L683.843 147.13L713.71 135.274L688.959 155.769L700.808 185.64L680.32 160.885L650.449 172.734L675.204 152.246L663.348 122.379Z" fill="#FFCD1A" stroke="black" stroke-miterlimit="10"/>
<mask id="path-6-inside-1_756_5464" fill="white">
<path fill-rule="evenodd" clip-rule="evenodd" d="M562.478 53.3222C557.749 47.6885 549.348 46.9549 543.715 51.6837L517.792 73.4426L517.792 73.4425L540.314 54.5379C545.971 49.7892 546.708 41.3533 541.959 35.6958C537.211 30.0384 528.775 29.3017 523.117 34.0504L501.014 52.6031L501.434 52.0391C506.348 45.4435 504.985 36.1132 498.389 31.1993C491.794 26.2855 482.463 27.6489 477.549 34.2446L471.644 42.1708L449.996 60.342C438.248 70.203 432.175 84.3169 432.14 98.5413L319.993 192.675C297.781 211.319 294.888 244.44 313.533 266.652C332.177 288.864 365.297 291.756 387.51 273.112L504.909 174.57C515.932 174.357 526.958 170.515 536.059 162.875L543.096 156.969L569.382 134.905L579.25 126.622C584.907 121.873 585.644 113.437 580.895 107.78C576.147 102.122 567.711 101.386 562.053 106.134L552.185 114.418L552.142 114.367L572.309 97.4389C577.953 92.7019 578.688 84.287 573.951 78.6436C569.214 73.0001 560.799 72.2653 555.155 77.0022L534.988 93.93L534.916 93.8441L560.839 72.0852C566.473 67.3564 567.206 58.9559 562.478 53.3222Z"/>
</mask>
<path fill-rule="evenodd" clip-rule="evenodd" d="M562.478 53.3222C557.749 47.6885 549.348 46.9549 543.715 51.6837L517.792 73.4426L517.792 73.4425L540.314 54.5379C545.971 49.7892 546.708 41.3533 541.959 35.6958C537.211 30.0384 528.775 29.3017 523.117 34.0504L501.014 52.6031L501.434 52.0391C506.348 45.4435 504.985 36.1132 498.389 31.1993C491.794 26.2855 482.463 27.6489 477.549 34.2446L471.644 42.1708L449.996 60.342C438.248 70.203 432.175 84.3169 432.14 98.5413L319.993 192.675C297.781 211.319 294.888 244.44 313.533 266.652C332.177 288.864 365.297 291.756 387.51 273.112L504.909 174.57C515.932 174.357 526.958 170.515 536.059 162.875L543.096 156.969L569.382 134.905L579.25 126.622C584.907 121.873 585.644 113.437 580.895 107.78C576.147 102.122 567.711 101.386 562.053 106.134L552.185 114.418L552.142 114.367L572.309 97.4389C577.953 92.7019 578.688 84.287 573.951 78.6436C569.214 73.0001 560.799 72.2653 555.155 77.0022L534.988 93.93L534.916 93.8441L560.839 72.0852C566.473 67.3564 567.206 58.9559 562.478 53.3222Z" fill="#FFEACB"/>
<path d="M517.792 73.4426L517.026 74.0855L517.669 74.8515L518.435 74.2086L517.792 73.4426ZM517.792 73.4425L517.149 72.6766L516.383 73.3195L517.026 74.0854L517.792 73.4425ZM540.314 54.5379L539.671 53.772L540.314 54.5379ZM501.014 52.6031L500.212 52.0057L501.657 53.369L501.014 52.6031ZM501.434 52.0391L502.236 52.6366L502.236 52.6366L501.434 52.0391ZM498.389 31.1993L498.987 30.3974L498.987 30.3974L498.389 31.1993ZM477.549 34.2446L476.747 33.6471L476.747 33.6471L477.549 34.2446ZM471.644 42.1708L472.287 42.9367L472.377 42.8617L472.446 42.7682L471.644 42.1708ZM449.996 60.342L450.639 61.1079L449.996 60.342ZM432.14 98.5413L432.783 99.3073L433.139 99.0085L433.14 98.5438L432.14 98.5413ZM319.993 192.675L320.636 193.441L319.993 192.675ZM387.51 273.112L386.867 272.346L386.867 272.346L387.51 273.112ZM504.909 174.57L504.89 173.57L504.537 173.577L504.267 173.804L504.909 174.57ZM536.059 162.875L536.702 163.641L536.702 163.641L536.059 162.875ZM543.096 156.969L542.453 156.203L542.453 156.203L543.096 156.969ZM569.382 134.905L570.025 135.671L570.025 135.671L569.382 134.905ZM579.25 126.622L578.607 125.856L578.607 125.856L579.25 126.622ZM562.053 106.134L561.41 105.368L562.053 106.134ZM552.185 114.418L551.419 115.06L552.062 115.826L552.828 115.183L552.185 114.418ZM552.142 114.367L551.499 113.601L550.733 114.244L551.376 115.01L552.142 114.367ZM572.309 97.4389L571.667 96.6729L572.309 97.4389ZM555.155 77.0022L555.798 77.7682L555.155 77.0022ZM534.988 93.93L534.222 94.5729L534.865 95.3389L535.631 94.696L534.988 93.93ZM534.916 93.8441L534.273 93.0782L533.507 93.7211L534.15 94.487L534.916 93.8441ZM560.839 72.0852L560.196 71.3192L560.839 72.0852ZM544.357 52.4496C549.568 48.0759 557.338 48.7544 561.712 53.9651L563.243 52.6793C558.16 46.6226 549.128 45.8339 543.072 50.9178L544.357 52.4496ZM518.435 74.2086L544.357 52.4496L543.072 50.9178L517.149 72.6767L518.435 74.2086ZM517.026 74.0854L517.026 74.0855L518.558 72.7997L518.558 72.7996L517.026 74.0854ZM539.671 53.772L517.149 72.6766L518.435 74.2085L540.957 55.3038L539.671 53.772ZM541.193 36.3387C545.587 41.5732 544.905 49.3783 539.671 53.772L540.957 55.3038C547.037 50.2 547.829 41.1334 542.725 35.0529L541.193 36.3387ZM523.76 34.8163C528.995 30.4227 536.8 31.1043 541.193 36.3387L542.725 35.0529C537.621 28.9724 528.555 28.1807 522.474 33.2845L523.76 34.8163ZM501.657 53.369L523.76 34.8163L522.474 33.2845L500.371 51.8372L501.657 53.369ZM500.633 51.4417L500.212 52.0057L501.816 53.2005L502.236 52.6366L500.633 51.4417ZM497.792 32.0013C503.945 36.5851 505.216 45.2889 500.633 51.4417L502.236 52.6366C507.48 45.598 506.025 35.6412 498.987 30.3974L497.792 32.0013ZM478.351 34.842C482.935 28.6892 491.639 27.4174 497.792 32.0013L498.987 30.3974C491.948 25.1536 481.991 26.6086 476.747 33.6471L478.351 34.842ZM472.446 42.7682L478.351 34.842L476.747 33.6471L470.842 41.5733L472.446 42.7682ZM450.639 61.1079L472.287 42.9367L471.001 41.4048L449.353 59.5761L450.639 61.1079ZM433.14 98.5438C433.175 84.6014 439.126 70.7716 450.639 61.1079L449.353 59.5761C437.37 69.6345 431.176 84.0324 431.14 98.5389L433.14 98.5438ZM320.636 193.441L432.783 99.3073L431.497 97.7754L319.35 191.909L320.636 193.441ZM314.299 266.009C296.009 244.22 298.847 211.73 320.636 193.441L319.35 191.909C296.715 210.909 293.767 244.66 312.767 267.295L314.299 266.009ZM386.867 272.346C365.078 290.635 332.588 287.798 314.299 266.009L312.767 267.295C331.766 289.93 365.517 292.877 388.152 273.878L386.867 272.346ZM504.267 173.804L386.867 272.346L388.152 273.878L505.552 175.336L504.267 173.804ZM535.416 162.109C526.496 169.597 515.693 173.361 504.89 173.57L504.929 175.57C516.172 175.353 527.419 171.433 536.702 163.641L535.416 162.109ZM542.453 156.203L535.416 162.109L536.702 163.641L543.739 157.735L542.453 156.203ZM568.739 134.139L542.453 156.203L543.739 157.735L570.025 135.671L568.739 134.139ZM578.607 125.856L568.739 134.139L570.025 135.671L579.893 127.388L578.607 125.856ZM580.129 108.423C584.523 113.657 583.842 121.462 578.607 125.856L579.893 127.388C585.973 122.284 586.765 113.217 581.661 107.137L580.129 108.423ZM562.696 106.9C567.931 102.507 575.736 103.188 580.129 108.423L581.661 107.137C576.558 101.056 567.491 100.265 561.41 105.368L562.696 106.9ZM552.828 115.183L562.696 106.9L561.41 105.368L551.542 113.652L552.828 115.183ZM551.376 115.01L551.419 115.06L552.951 113.775L552.908 113.724L551.376 115.01ZM571.667 96.6729L551.499 113.601L552.785 115.133L572.952 98.2048L571.667 96.6729ZM573.185 79.2865C577.567 84.5069 576.887 92.2911 571.667 96.6729L572.952 98.2048C579.019 93.1128 579.809 84.0671 574.717 78.0007L573.185 79.2865ZM555.798 77.7682C561.019 73.3863 568.803 74.0661 573.185 79.2865L574.717 78.0007C569.625 71.9342 560.579 71.1443 554.513 76.2363L555.798 77.7682ZM535.631 94.696L555.798 77.7682L554.513 76.2363L534.345 93.1641L535.631 94.696ZM534.15 94.487L534.222 94.5729L535.754 93.2871L535.682 93.2012L534.15 94.487ZM560.196 71.3192L534.273 93.0782L535.559 94.6101L561.482 72.8511L560.196 71.3192ZM561.712 53.9651C566.085 59.1758 565.407 66.9455 560.196 71.3192L561.482 72.8511C567.539 67.7673 568.327 58.736 563.243 52.6793L561.712 53.9651Z" fill="black" mask="url(#path-6-inside-1_756_5464)"/>
<path d="M246.534 284.278H258.273C352.438 284.278 428.773 360.613 428.773 454.778V543.894H44.1832L54.2946 455.73C65.4993 358.034 148.198 284.278 246.534 284.278Z" fill="#FED908" stroke="black"/>
<circle cx="253.525" cy="264.646" r="182.034" fill="#FFEACB" stroke="black"/>
<mask id="path-10-inside-2_756_5464" fill="white">
<path fill-rule="evenodd" clip-rule="evenodd" d="M482.265 289.57C477.414 284.041 468.999 283.492 463.47 288.343L438.029 310.663L438.029 310.663L460.133 291.27C465.685 286.399 466.237 277.949 461.366 272.397C456.495 266.845 448.045 266.293 442.492 271.164L420.8 290.196L421.208 289.622C425.976 282.921 424.409 273.623 417.708 268.854C411.006 264.086 401.708 265.653 396.94 272.354L391.209 280.408L369.963 299.048C358.434 309.163 352.671 323.407 352.947 337.629L242.885 434.192C221.085 453.317 218.918 486.493 238.044 508.292C257.169 530.092 290.345 532.259 312.144 513.134L427.361 412.048C438.377 411.594 449.315 407.512 458.248 399.675L490.951 370.983L500.636 362.486C506.188 357.614 506.74 349.165 501.869 343.612C496.997 338.06 488.547 337.508 482.995 342.379L473.31 350.876L473.267 350.826L493.059 333.462C498.597 328.602 499.148 320.173 494.289 314.635C489.43 309.096 481.001 308.546 475.462 313.405L455.67 330.77L455.596 330.685L481.037 308.365C486.566 303.514 487.115 295.099 482.265 289.57Z"/>
</mask>
<path fill-rule="evenodd" clip-rule="evenodd" d="M482.265 289.57C477.414 284.041 468.999 283.492 463.47 288.343L438.029 310.663L438.029 310.663L460.133 291.27C465.685 286.399 466.237 277.949 461.366 272.397C456.495 266.845 448.045 266.293 442.492 271.164L420.8 290.196L421.208 289.622C425.976 282.921 424.409 273.623 417.708 268.854C411.006 264.086 401.708 265.653 396.94 272.354L391.209 280.408L369.963 299.048C358.434 309.163 352.671 323.407 352.947 337.629L242.885 434.192C221.085 453.317 218.918 486.493 238.044 508.292C257.169 530.092 290.345 532.259 312.144 513.134L427.361 412.048C438.377 411.594 449.315 407.512 458.248 399.675L490.951 370.983L500.636 362.486C506.188 357.614 506.74 349.165 501.869 343.612C496.997 338.06 488.547 337.508 482.995 342.379L473.31 350.876L473.267 350.826L493.059 333.462C498.597 328.602 499.148 320.173 494.289 314.635C489.43 309.096 481.001 308.546 475.462 313.405L455.67 330.77L455.596 330.685L481.037 308.365C486.566 303.514 487.115 295.099 482.265 289.57Z" fill="#FFEACB"/>
<path d="M438.029 310.663L437.278 311.323L437.937 312.074L438.689 311.415L438.029 310.663ZM438.029 310.663L437.37 309.911L436.618 310.571L437.278 311.322L438.029 310.663ZM420.8 290.196L419.985 289.616L421.459 290.947L420.8 290.196ZM421.208 289.622L420.393 289.043L420.393 289.043L421.208 289.622ZM417.708 268.854L417.128 269.669L417.128 269.669L417.708 268.854ZM396.94 272.354L396.125 271.775L396.125 271.775L396.94 272.354ZM391.209 280.408L391.868 281.16L391.956 281.083L392.024 280.988L391.209 280.408ZM369.963 299.048L370.623 299.8L369.963 299.048ZM352.947 337.629L353.607 338.38L353.956 338.074L353.947 337.609L352.947 337.629ZM242.885 434.192L242.225 433.44L242.225 433.44L242.885 434.192ZM238.044 508.292L238.795 507.633L238.795 507.633L238.044 508.292ZM312.144 513.134L311.484 512.382L311.484 512.382L312.144 513.134ZM427.361 412.048L427.32 411.048L426.967 411.063L426.702 411.296L427.361 412.048ZM458.248 399.675L457.589 398.923L457.589 398.923L458.248 399.675ZM490.951 370.983L491.61 371.734L491.61 371.734L490.951 370.983ZM500.636 362.486L499.976 361.734L499.976 361.734L500.636 362.486ZM473.31 350.876L472.559 351.536L473.218 352.287L473.97 351.628L473.31 350.876ZM473.267 350.826L472.607 350.075L471.855 350.734L472.515 351.486L473.267 350.826ZM455.67 330.77L454.918 331.429L455.578 332.181L456.329 331.521L455.67 330.77ZM455.596 330.685L454.936 329.934L454.185 330.593L454.844 331.345L455.596 330.685ZM464.13 289.094C469.244 284.608 477.026 285.116 481.513 290.23L483.016 288.911C477.801 282.967 468.755 282.376 462.811 287.591L464.13 289.094ZM438.689 311.415L464.13 289.094L462.811 287.591L437.37 309.911L438.689 311.415ZM437.278 311.322L437.278 311.323L438.781 310.004L438.781 310.003L437.278 311.322ZM459.473 290.519L437.37 309.911L438.689 311.415L460.792 292.022L459.473 290.519ZM460.614 273.056C465.121 278.194 464.61 286.012 459.473 290.519L460.792 292.022C466.76 286.787 467.353 277.705 462.118 271.737L460.614 273.056ZM443.152 271.916C448.289 267.408 456.107 267.919 460.614 273.056L462.118 271.737C456.882 265.77 447.8 265.177 441.833 270.412L443.152 271.916ZM421.459 290.947L443.152 271.916L441.833 270.412L420.14 289.444L421.459 290.947ZM420.393 289.043L419.985 289.616L421.615 290.775L422.023 290.202L420.393 289.043ZM417.128 269.669C423.38 274.117 424.841 282.791 420.393 289.043L422.023 290.202C427.111 283.051 425.439 273.128 418.287 268.039L417.128 269.669ZM397.754 272.934C402.203 266.683 410.876 265.221 417.128 269.669L418.287 268.039C411.136 262.951 401.213 264.623 396.125 271.775L397.754 272.934ZM392.024 280.988L397.754 272.934L396.125 271.775L390.394 279.828L392.024 280.988ZM370.623 299.8L391.868 281.16L390.549 279.656L369.304 298.296L370.623 299.8ZM353.947 337.609C353.677 323.669 359.324 309.713 370.623 299.8L369.304 298.296C357.543 308.614 351.666 323.144 351.947 337.648L353.947 337.609ZM243.544 434.944L353.607 338.38L352.288 336.877L242.225 433.44L243.544 434.944ZM238.795 507.633C220.034 486.249 222.16 453.705 243.544 434.944L242.225 433.44C220.011 452.93 217.802 486.738 237.292 508.952L238.795 507.633ZM311.484 512.382C290.101 531.143 257.556 529.017 238.795 507.633L237.292 508.952C256.781 531.166 290.589 533.375 312.804 513.885L311.484 512.382ZM426.702 411.296L311.484 512.382L312.804 513.885L428.021 412.799L426.702 411.296ZM457.589 398.923C448.834 406.604 438.116 410.604 427.32 411.048L427.402 413.047C438.638 412.584 449.797 408.419 458.908 400.426L457.589 398.923ZM490.291 370.231L457.589 398.923L458.908 400.426L491.61 371.734L490.291 370.231ZM499.976 361.734L490.291 370.231L491.61 371.734L501.295 363.237L499.976 361.734ZM501.117 344.272C505.624 349.409 505.113 357.227 499.976 361.734L501.295 363.237C507.263 358.002 507.856 348.92 502.62 342.953L501.117 344.272ZM483.655 343.131C488.792 338.624 496.61 339.135 501.117 344.272L502.62 342.953C497.385 336.985 488.303 336.392 482.336 341.627L483.655 343.131ZM473.97 351.628L483.655 343.131L482.336 341.627L472.651 350.124L473.97 351.628ZM472.515 351.486L472.559 351.536L474.062 350.217L474.018 350.167L472.515 351.486ZM492.399 332.71L472.607 350.075L473.926 351.578L493.718 334.213L492.399 332.71ZM493.537 315.294C498.032 320.418 497.523 328.215 492.399 332.71L493.718 334.213C499.672 328.99 500.264 319.929 495.041 313.975L493.537 315.294ZM476.122 314.157C481.245 309.662 489.042 310.171 493.537 315.294L495.041 313.975C489.817 308.022 480.756 307.43 474.803 312.653L476.122 314.157ZM456.329 331.521L476.122 314.157L474.803 312.653L455.01 330.018L456.329 331.521ZM454.844 331.345L454.918 331.429L456.422 330.11L456.348 330.026L454.844 331.345ZM480.377 307.613L454.936 329.934L456.255 331.437L481.696 309.116L480.377 307.613ZM481.513 290.23C486 295.344 485.491 303.126 480.377 307.613L481.696 309.116C487.64 303.901 488.231 294.855 483.016 288.911L481.513 290.23Z" fill="black" mask="url(#path-10-inside-2_756_5464)"/>
<path d="M248.897 527.263L166.975 497.032C127.053 482.301 106.632 437.995 121.364 398.073C136.096 358.151 180.402 337.73 220.324 352.462L302.246 382.693L248.897 527.263Z" fill="#FED908" stroke="black"/>
<path d="M258.572 216.077C266.183 229.491 277.015 237.72 291.489 229.507C305.963 221.294 304.455 207.775 296.843 194.361" stroke="black" stroke-width="3"/>
<path d="M327.019 177.239C334.63 190.653 345.461 198.882 359.935 190.669C374.41 182.456 372.901 168.937 365.29 155.523" stroke="black" stroke-width="3"/>
<path d="M275.703 277.097C273.164 286.027 263.321 291.114 253.665 288.369C244.01 285.624 238.314 276.12 240.853 267.19C242.119 262.734 246.419 257.92 251.557 253.637C256.507 249.511 262.149 245.946 266.349 243.75C268.767 247.827 271.69 253.827 273.729 259.94C275.845 266.285 276.969 272.641 275.703 277.097Z" fill="#99E4EE" stroke="black"/>
<path d="M310.267 243.197L312.42 244.187C315.369 245.542 318.809 243.781 319.432 240.596V240.596C319.982 237.787 322.767 236.008 325.547 236.691L326.879 237.019C329.953 237.774 333.034 235.807 333.642 232.7V232.7C334.25 229.594 337.331 227.627 340.404 228.382L341.196 228.577C344.27 229.332 347.351 227.365 347.959 224.259V224.259C348.567 221.152 351.664 219.189 354.738 219.944V219.944C358.088 220.768 361.393 218.387 361.649 214.947L361.808 212.807" stroke="black" stroke-width="3"/>
<path d="M261.666 171.462C262.912 179.514 261.772 197.652 247.251 205.797" stroke="black" stroke-width="3"/>
<path d="M325.201 137.748C331.705 142.653 348.225 150.228 362.27 141.285" stroke="black" stroke-width="3"/>
<path d="M168.516 188.939L357.194 85.9709C316.017 30.2057 240.646 27.9705 178.52 50.5683C102.441 72.7824 64.5538 128.609 72.9975 155.888C-3.31523 188.544 15.1226 319.5 90.6225 355.5C111.122 343 122.622 330.558 122.622 294C184.262 277.017 174.077 212.872 168.516 188.939Z" fill="black"/>
<circle cx="186.292" cy="189.385" r="24" transform="rotate(4.13505 186.292 189.385)" fill="black"/>
<circle cx="220.228" cy="163.766" r="24" transform="rotate(4.13505 220.228 163.766)" fill="black"/>
<circle cx="254.308" cy="136.151" r="24" transform="rotate(4.13505 254.308 136.151)" fill="black"/>
<circle cx="292.942" cy="114.882" r="24" transform="rotate(4.13505 292.942 114.882)" fill="black"/>
<circle cx="338.125" cy="100.101" r="24" transform="rotate(4.13505 338.125 100.101)" fill="black"/>
<circle cx="27.5" cy="27.5" r="27" transform="matrix(1 0 0 -1 561.623 436)" fill="#99E4EE" stroke="black"/>
<circle cx="13" cy="13" r="12.5" transform="matrix(1 0 0 -1 700.623 310)" fill="#F095FF" stroke="black"/>
</svg>
