<svg width="375" height="243" viewBox="0 0 375 243" fill="none" xmlns="http://www.w3.org/2000/svg">
<g clip-path="url(#clip0_960_267)">
<path d="M341.735 68.6928C342.441 67.2553 342.141 65.5268 340.992 64.4114C339.117 62.5919 340.666 59.437 343.252 59.8073C344.837 60.0343 346.389 59.2147 347.094 57.7772C348.246 55.4324 351.725 55.9306 352.172 58.5042C352.446 60.082 353.704 61.3039 355.29 61.5309C357.875 61.9012 358.477 65.364 356.167 66.5843C354.751 67.3325 353.978 68.9073 354.252 70.4851C354.699 73.0587 351.591 74.7007 349.717 72.8812C348.568 71.7658 346.831 71.5171 345.415 72.2653C343.106 73.4856 340.584 71.0376 341.735 68.6928Z" fill="#FBDD00" stroke="black"/>
<path d="M86.1252 132.41L99.6855 111.07L99.8727 136.336L123.409 127.035L108.69 147.584L133.203 153.867L109.194 161.853L125.323 181.314L101.19 173.694L102.784 198.911L87.7541 178.588L74.1935 199.919L73.9971 174.654L50.4701 183.954L65.1885 163.405L40.6768 157.131L64.6852 149.136L48.5556 129.676L72.6794 137.295L71.0951 112.078L86.1252 132.41Z" fill="white" stroke="black" stroke-miterlimit="10"/>
<path d="M-271.663 161.894C-68.0005 -15.5579 158.852 23.2396 234.181 84.4189L228.972 85.7897C89.4359 7.6654 -165.347 96.2548 -245.54 171.463L-271.663 161.894Z" fill="#AED8FF" stroke="black"/>
<path d="M-274.404 151.477C-70.7418 -25.9754 156.241 13.3182 231.57 74.4975L226.61 75.803C87.0732 -2.32127 -168.088 85.8373 -248.282 161.045L-274.404 151.477Z" fill="#D1A7F2" stroke="black"/>
<path d="M-281.14 139.989C-77.4781 -37.4632 148.626 5.40586 223.956 66.5852L219.273 66.0645C79.7364 -12.0598 -174.825 74.3494 -255.018 149.557L-281.14 139.989Z" fill="#FFDF8D" stroke="black"/>
<path d="M-291.837 127.373C-88.1747 -50.0787 137.93 -7.20965 213.259 53.9697L208.446 56.5874C68.9096 -21.5369 -185.521 61.7339 -265.715 136.942L-291.837 127.373Z" fill="#FED1D1" stroke="black"/>
<rect x="189.894" y="68.8929" width="26.3453" height="112.678" transform="rotate(-57.4343 189.894 68.8929)" fill="#D9D9D9" stroke="black"/>
<rect x="188.086" y="142.755" width="156.04" height="16.1885" transform="rotate(-49.8571 188.086 142.755)" fill="white" stroke="black"/>
<path d="M340.337 241.831L206.042 148.126L297.261 39.9646L412.532 156.226L340.337 241.831Z" fill="#F37D6E" stroke="black"/>
<path d="M47.8373 70.4059C48.9727 68.0932 48.4898 65.3125 46.6412 63.518C43.2027 60.1801 46.0443 54.3922 50.7881 55.0715C53.3384 55.4367 55.8338 54.1181 56.9693 51.8055C59.0812 47.5038 65.4639 48.4177 66.2838 53.1392C66.7246 55.6776 68.7497 57.6434 71.3001 58.0086C76.0439 58.6879 77.147 65.0407 72.9099 67.2795C70.632 68.4831 69.3882 71.0166 69.829 73.5549C70.6488 78.2765 64.9479 81.2887 61.5094 77.9508C59.6607 76.1563 56.8669 75.7563 54.589 76.9599C50.3519 79.1987 45.7254 74.7076 47.8373 70.4059Z" fill="#FBDD00" stroke="black"/>
<path d="M174.931 112.2C175.637 110.762 175.337 109.034 174.188 107.918C172.313 106.099 173.862 102.944 176.448 103.314C178.033 103.541 179.584 102.722 180.29 101.284C181.441 98.9393 184.92 99.4375 185.367 102.011C185.641 103.589 186.9 104.811 188.485 105.038C191.071 105.408 191.672 108.871 189.363 110.091C187.947 110.839 187.174 112.414 187.448 113.992C187.895 116.566 184.787 118.208 182.913 116.388C181.764 115.273 180.027 115.024 178.611 115.772C176.302 116.993 173.78 114.545 174.931 112.2Z" fill="#FBDD00" stroke="black"/>
<path d="M341.284 169.877L300.499 172.394L300.486 172.182L299.987 172.212L291.495 172.737C280.232 173.432 270.539 164.865 269.844 153.603C269.148 142.34 277.715 132.647 288.978 131.951L297.47 131.427L297.969 131.397L297.938 130.898L297.427 122.621C296.732 111.358 305.299 101.665 316.561 100.969C327.824 100.274 337.517 108.841 338.212 120.103L341.284 169.877Z" fill="white" stroke="black"/>
</g>
<defs>
<clipPath id="clip0_960_267">
<rect width="375" height="243" fill="white"/>
</clipPath>
</defs>
</svg>
