<svg width="464" height="392" viewBox="0 0 464 392" fill="none" xmlns="http://www.w3.org/2000/svg">
<path d="M402.5 -51C170.5 -36.5 41.5 158 22.5 221L38 227C152.4 55.8 368.333 2.66667 462 -2.5L402.5 -51Z" fill="#D9D9D9" stroke="black"/>
<circle cx="8" cy="8" r="7.5" transform="matrix(1 0 0 -1 58 391.5)" fill="#F095FF" stroke="black"/>
<circle cx="13" cy="13" r="12.5" transform="matrix(1 0 0 -1 97 328.5)" fill="#F095FF" stroke="black"/>
<circle cx="27.5" cy="27.5" r="27" transform="matrix(1 0 0 -1 0 251.5)" fill="#99E4EE" stroke="black"/>
<circle cx="13" cy="13" r="12.5" transform="matrix(1 0 0 -1 139 125.5)" fill="#F095FF" stroke="black"/>
<path d="M54.9967 124.5L58.9604 149.54L84 153.497L58.9604 157.46L54.9967 182.5L51.0396 157.46L26 153.497L51.0396 149.54L54.9967 124.5Z" fill="#FFF066" stroke="black" stroke-miterlimit="10"/>
</svg>
