<svg width="375" height="248" viewBox="0 0 375 248" fill="none" xmlns="http://www.w3.org/2000/svg">
<g clip-path="url(#clip0_960_268)">
<circle cx="57.1372" cy="124.206" r="123.317" transform="rotate(120 57.1372 124.206)" fill="white"/>
<circle cx="57.1372" cy="124.206" r="123.317" transform="rotate(120 57.1372 124.206)" fill="white"/>
<circle cx="57.1372" cy="124.206" r="123.317" transform="rotate(120 57.1372 124.206)" stroke="black"/>
<mask id="path-2-inside-1_960_268" fill="white">
<path d="M-0.861524 224.663C-14.0536 217.046 -25.6164 206.906 -34.8896 194.821C-44.1629 182.736 -50.9649 168.943 -54.9075 154.229L57.137 124.206L-0.861524 224.663Z"/>
</mask>
<path d="M-0.861524 224.663C-14.0536 217.046 -25.6164 206.906 -34.8896 194.821C-44.1629 182.736 -50.9649 168.943 -54.9075 154.229L57.137 124.206L-0.861524 224.663Z" fill="#34D39A" stroke="black" stroke-width="2" mask="url(#path-2-inside-1_960_268)"/>
<mask id="path-3-inside-2_960_268" fill="white">
<path d="M-54.6684 155.107C-58.7264 140.425 -59.8526 125.087 -57.9829 109.969C-56.1132 94.8511 -51.2841 80.2496 -43.7714 66.9981L57.137 124.206L-54.6684 155.107Z"/>
</mask>
<path d="M-54.6684 155.107C-58.7264 140.425 -59.8526 125.087 -57.9829 109.969C-56.1132 94.8511 -51.2841 80.2496 -43.7714 66.9981L57.137 124.206L-54.6684 155.107Z" fill="#FCA1CC" stroke="black" stroke-width="2" mask="url(#path-3-inside-2_960_268)"/>
<mask id="path-4-inside-3_960_268" fill="white">
<path d="M-44.1292 67.6338C-29.1252 40.7764 -4.06667 20.9793 25.5338 12.5976L57.137 124.206L-44.1292 67.6338Z"/>
</mask>
<path d="M-44.1292 67.6338C-29.1252 40.7764 -4.06667 20.9793 25.5338 12.5976L57.137 124.206L-44.1292 67.6338Z" fill="#FBDD00" stroke="black" stroke-width="2" mask="url(#path-4-inside-3_960_268)"/>
<mask id="path-5-inside-4_960_268" fill="white">
<path d="M24.6747 12.8444C54.2097 4.23492 85.9552 7.71075 112.927 22.5073L57.137 124.206L24.6747 12.8444Z"/>
</mask>
<path d="M24.6747 12.8444C54.2097 4.23492 85.9552 7.71075 112.927 22.5073L57.137 124.206L24.6747 12.8444Z" fill="white"/>
<path d="M24.6747 12.8444C54.2097 4.23492 85.9552 7.71075 112.927 22.5073L57.137 124.206L24.6747 12.8444Z" fill="white"/>
<path d="M24.6747 12.8444C54.2097 4.23492 85.9552 7.71075 112.927 22.5073L57.137 124.206L24.6747 12.8444Z" stroke="black" stroke-width="2" mask="url(#path-5-inside-4_960_268)"/>
<mask id="path-6-inside-5_960_268" fill="white">
<path d="M112.245 22.1361C139.316 36.7517 159.472 61.5224 168.279 90.999L57.137 124.206L112.245 22.1361Z"/>
</mask>
<path d="M112.245 22.1361C139.316 36.7517 159.472 61.5224 168.279 90.999L57.137 124.206L112.245 22.1361Z" fill="#34D39A" stroke="black" stroke-width="2" mask="url(#path-6-inside-5_960_268)"/>
<mask id="path-7-inside-6_960_268" fill="white">
<path d="M168.04 90.2097C177.057 119.623 174.02 151.413 159.597 178.587L57.137 124.206L168.04 90.2097Z"/>
</mask>
<path d="M168.04 90.2097C177.057 119.623 174.02 151.413 159.597 178.587L57.137 124.206L168.04 90.2097Z" fill="#FCA1CC" stroke="black" stroke-width="2" mask="url(#path-7-inside-6_960_268)"/>
<mask id="path-8-inside-7_960_268" fill="white">
<path d="M160.025 177.773C145.818 205.06 121.354 225.587 92.0132 234.836L57.137 124.206L160.025 177.773Z"/>
</mask>
<path d="M160.025 177.773C145.818 205.06 121.354 225.587 92.0132 234.836L57.137 124.206L160.025 177.773Z" fill="#FBDD00" stroke="black" stroke-width="2" mask="url(#path-8-inside-7_960_268)"/>
<mask id="path-9-inside-8_960_268" fill="white">
<path d="M92.8714 234.562C77.2657 239.615 60.7656 241.301 44.4604 239.509C28.1551 237.716 12.4154 232.486 -1.71966 224.162L57.137 124.206L92.8714 234.562Z"/>
</mask>
<path d="M92.8714 234.562C77.2657 239.615 60.7656 241.301 44.4604 239.509C28.1551 237.716 12.4154 232.486 -1.71966 224.162L57.137 124.206L92.8714 234.562Z" fill="white"/>
<path d="M92.8714 234.562C77.2657 239.615 60.7656 241.301 44.4604 239.509C28.1551 237.716 12.4154 232.486 -1.71966 224.162L57.137 124.206L92.8714 234.562Z" fill="white"/>
<path d="M92.8714 234.562C77.2657 239.615 60.7656 241.301 44.4604 239.509C28.1551 237.716 12.4154 232.486 -1.71966 224.162L57.137 124.206L92.8714 234.562Z" stroke="black" stroke-width="2" mask="url(#path-9-inside-8_960_268)"/>
<circle cx="57.1373" cy="124.206" r="20.3534" transform="rotate(120 57.1373 124.206)" fill="white"/>
<circle cx="57.1373" cy="124.206" r="20.3534" transform="rotate(120 57.1373 124.206)" fill="white"/>
<circle cx="57.1373" cy="124.206" r="20.3534" transform="rotate(120 57.1373 124.206)" stroke="black"/>
<mask id="path-11-inside-9_960_268" fill="white">
<path fill-rule="evenodd" clip-rule="evenodd" d="M109.076 110.493C111.724 113.831 117.064 112.572 117.942 108.403L124.64 76.6103C125.415 72.9331 122.657 69.4569 118.9 69.3748L86.9371 68.6767C82.4702 68.5791 79.9114 73.7308 82.6883 77.2311V77.2311C84.4994 79.514 84.1169 82.8329 81.834 84.644L47.1851 112.132C40.2302 117.649 39.0649 127.76 44.5824 134.715C50.1 141.67 60.2108 142.835 67.1657 137.318L102.006 109.678C104.183 107.951 107.349 108.316 109.076 110.493V110.493Z"/>
</mask>
<path fill-rule="evenodd" clip-rule="evenodd" d="M109.076 110.493C111.724 113.831 117.064 112.572 117.942 108.403L124.64 76.6103C125.415 72.9331 122.657 69.4569 118.9 69.3748L86.9371 68.6767C82.4702 68.5791 79.9114 73.7308 82.6883 77.2311V77.2311C84.4994 79.514 84.1169 82.8329 81.834 84.644L47.1851 112.132C40.2302 117.649 39.0649 127.76 44.5824 134.715C50.1 141.67 60.2108 142.835 67.1657 137.318L102.006 109.678C104.183 107.951 107.349 108.316 109.076 110.493V110.493Z" fill="white"/>
<path d="M124.64 76.6103L123.661 76.4041L124.64 76.6103ZM123.661 76.4041L116.964 108.197L118.921 108.609L125.619 76.8164L123.661 76.4041ZM86.9153 69.6764L118.878 70.3746L118.922 68.375L86.9589 67.6769L86.9153 69.6764ZM47.8066 112.915L82.4555 85.4274L81.2125 83.8606L46.5636 111.349L47.8066 112.915ZM45.3659 134.094C40.1916 127.572 41.2843 118.09 47.8066 112.915L46.5636 111.349C39.176 117.209 37.9383 127.949 43.799 135.337L45.3659 134.094ZM66.5442 136.534C60.022 141.709 50.5401 140.616 45.3659 134.094L43.799 135.337C49.6598 142.724 60.3997 143.962 67.7872 138.101L66.5442 136.534ZM101.384 108.895L66.5442 136.534L67.7872 138.101L102.627 110.461L101.384 108.895ZM81.9049 77.8526C83.3727 79.7028 83.0627 82.3927 81.2125 83.8606L82.4555 85.4274C85.1711 83.273 85.6261 79.3252 83.4717 76.6096L81.9049 77.8526ZM102.627 110.461C104.372 109.077 106.908 109.37 108.292 111.114L109.859 109.871C107.789 107.261 103.994 106.824 101.384 108.895L102.627 110.461ZM86.9589 67.6769C81.6454 67.5608 78.6017 73.6889 81.9049 77.8526L83.4717 76.6096C81.2211 73.7727 83.2949 69.5973 86.9153 69.6764L86.9589 67.6769ZM116.964 108.197C116.26 111.538 111.981 112.546 109.859 109.871L108.292 111.114C111.467 115.116 117.868 113.607 118.921 108.609L116.964 108.197ZM125.619 76.8164C126.522 72.5263 123.305 68.4708 118.922 68.375L118.878 70.3746C122.009 70.4429 124.307 73.3398 123.661 76.4041L125.619 76.8164Z" fill="black" mask="url(#path-11-inside-9_960_268)"/>
<mask id="path-13-inside-10_960_268" fill="white">
<path fill-rule="evenodd" clip-rule="evenodd" d="M130.162 167.317C134.274 166.855 137.233 163.147 136.771 159.034L136.587 157.394L138.227 157.21C142.339 156.748 145.298 153.039 144.836 148.927C144.374 144.815 140.666 141.856 136.554 142.318L134.913 142.503L134.757 141.114C134.295 137.002 130.587 134.043 126.475 134.505C122.363 134.967 119.404 138.675 119.866 142.788L120.022 144.176L118.634 144.332C114.522 144.794 111.563 148.502 112.025 152.614C112.487 156.726 116.195 159.685 120.307 159.223L121.695 159.067L121.88 160.708C122.342 164.82 126.05 167.779 130.162 167.317Z"/>
</mask>
<path fill-rule="evenodd" clip-rule="evenodd" d="M130.162 167.317C134.274 166.855 137.233 163.147 136.771 159.034L136.587 157.394L138.227 157.21C142.339 156.748 145.298 153.039 144.836 148.927C144.374 144.815 140.666 141.856 136.554 142.318L134.913 142.503L134.757 141.114C134.295 137.002 130.587 134.043 126.475 134.505C122.363 134.967 119.404 138.675 119.866 142.788L120.022 144.176L118.634 144.332C114.522 144.794 111.563 148.502 112.025 152.614C112.487 156.726 116.195 159.685 120.307 159.223L121.695 159.067L121.88 160.708C122.342 164.82 126.05 167.779 130.162 167.317Z" fill="#3C3C3C"/>
<path d="M136.771 159.034L137.765 158.923L136.771 159.034ZM136.587 157.394L136.475 156.4L135.481 156.512L135.593 157.506L136.587 157.394ZM144.836 148.927L145.83 148.816L144.836 148.927ZM136.554 142.318L136.666 143.312L136.554 142.318ZM134.913 142.503L133.92 142.614L134.031 143.608L135.025 143.496L134.913 142.503ZM134.757 141.114L135.751 141.003L134.757 141.114ZM120.022 144.176L120.134 145.17L121.127 145.058L121.016 144.064L120.022 144.176ZM120.307 159.223L120.419 160.217L120.307 159.223ZM121.695 159.067L122.689 158.956L122.577 157.962L121.584 158.073L121.695 159.067ZM135.777 159.146C136.177 162.709 133.613 165.923 130.05 166.323L130.273 168.31C134.934 167.787 138.288 163.584 137.765 158.923L135.777 159.146ZM135.593 157.506L135.777 159.146L137.765 158.923L137.58 157.282L135.593 157.506ZM138.116 156.216L136.475 156.4L136.698 158.388L138.339 158.203L138.116 156.216ZM143.843 149.039C144.243 152.602 141.679 155.815 138.116 156.216L138.339 158.203C143 157.68 146.354 153.477 145.83 148.816L143.843 149.039ZM136.666 143.312C140.229 142.912 143.442 145.476 143.843 149.039L145.83 148.816C145.306 144.155 141.103 140.801 136.442 141.325L136.666 143.312ZM135.025 143.496L136.666 143.312L136.442 141.325L134.802 141.509L135.025 143.496ZM133.764 141.226L133.92 142.614L135.907 142.391L135.751 141.003L133.764 141.226ZM126.587 135.499C130.15 135.099 133.363 137.663 133.764 141.226L135.751 141.003C135.227 136.342 131.024 132.988 126.363 133.512L126.587 135.499ZM120.86 142.676C120.459 139.113 123.023 135.899 126.587 135.499L126.363 133.512C121.702 134.035 118.348 138.238 118.872 142.899L120.86 142.676ZM121.016 144.064L120.86 142.676L118.872 142.899L119.028 144.288L121.016 144.064ZM118.746 145.326L120.134 145.17L119.91 143.182L118.522 143.338L118.746 145.326ZM113.019 152.502C112.618 148.939 115.182 145.726 118.746 145.326L118.522 143.338C113.861 143.862 110.507 148.065 111.031 152.726L113.019 152.502ZM120.196 158.229C116.632 158.63 113.419 156.066 113.019 152.502L111.031 152.726C111.555 157.387 115.758 160.741 120.419 160.217L120.196 158.229ZM121.584 158.073L120.196 158.229L120.419 160.217L121.807 160.061L121.584 158.073ZM122.873 160.596L122.689 158.956L120.701 159.179L120.886 160.819L122.873 160.596ZM130.05 166.323C126.487 166.723 123.274 164.159 122.873 160.596L120.886 160.819C121.41 165.48 125.613 168.834 130.273 168.31L130.05 166.323Z" fill="black" mask="url(#path-13-inside-10_960_268)"/>
<mask id="path-15-inside-11_960_268" fill="white">
<path fill-rule="evenodd" clip-rule="evenodd" d="M17.2357 199.821C19.2244 199.597 20.6553 197.804 20.4319 195.815L20.3427 195.022L21.136 194.933C23.1246 194.71 24.5556 192.916 24.3321 190.928C24.1087 188.939 22.3154 187.508 20.3268 187.732L19.5335 187.821L19.4581 187.149C19.2346 185.161 17.4414 183.73 15.4528 183.953C13.4641 184.177 12.0332 185.97 12.2566 187.958L12.3321 188.63L11.6606 188.705C9.672 188.929 8.24104 190.722 8.46449 192.711C8.68794 194.699 10.4812 196.13 12.4698 195.907L13.1412 195.831L13.2304 196.625C13.4538 198.613 15.2471 200.044 17.2357 199.821Z"/>
</mask>
<path fill-rule="evenodd" clip-rule="evenodd" d="M17.2357 199.821C19.2244 199.597 20.6553 197.804 20.4319 195.815L20.3427 195.022L21.136 194.933C23.1246 194.71 24.5556 192.916 24.3321 190.928C24.1087 188.939 22.3154 187.508 20.3268 187.732L19.5335 187.821L19.4581 187.149C19.2346 185.161 17.4414 183.73 15.4528 183.953C13.4641 184.177 12.0332 185.97 12.2566 187.958L12.3321 188.63L11.6606 188.705C9.672 188.929 8.24104 190.722 8.46449 192.711C8.68794 194.699 10.4812 196.13 12.4698 195.907L13.1412 195.831L13.2304 196.625C13.4538 198.613 15.2471 200.044 17.2357 199.821Z" fill="#3C3C3C"/>
<path d="M20.3427 195.022L20.2311 194.028L19.2373 194.14L19.349 195.134L20.3427 195.022ZM24.3321 190.928L25.3259 190.816L24.3321 190.928ZM20.3268 187.732L20.4385 188.725L20.3268 187.732ZM19.5335 187.821L18.5398 187.932L18.6514 188.926L19.6452 188.814L19.5335 187.821ZM12.3321 188.63L12.4437 189.624L13.4375 189.512L13.3258 188.518L12.3321 188.63ZM11.6606 188.705L11.549 187.712L11.6606 188.705ZM13.1412 195.831L14.135 195.72L14.0233 194.726L13.0296 194.838L13.1412 195.831ZM19.4381 195.927C19.5999 197.367 18.5639 198.665 17.1241 198.827L17.3474 200.815C19.8848 200.529 21.7107 198.241 21.4256 195.704L19.4381 195.927ZM19.349 195.134L19.4381 195.927L21.4256 195.704L21.3365 194.91L19.349 195.134ZM21.0243 193.939L20.2311 194.028L20.4544 196.016L21.2477 195.927L21.0243 193.939ZM23.3384 191.039C23.5002 192.479 22.4641 193.777 21.0243 193.939L21.2477 195.927C23.7851 195.642 25.611 193.353 25.3259 190.816L23.3384 191.039ZM20.4385 188.725C21.8783 188.563 23.1766 189.6 23.3384 191.039L25.3259 190.816C25.0408 188.279 22.7526 186.453 20.2151 186.738L20.4385 188.725ZM19.6452 188.814L20.4385 188.725L20.2151 186.738L19.4219 186.827L19.6452 188.814ZM18.4643 187.261L18.5398 187.932L20.5273 187.709L20.4518 187.038L18.4643 187.261ZM15.5644 184.947C17.0042 184.785 18.3026 185.821 18.4643 187.261L20.4518 187.038C20.1667 184.5 17.8786 182.674 15.3411 182.959L15.5644 184.947ZM13.2504 187.847C13.0886 186.407 14.1246 185.109 15.5644 184.947L15.3411 182.959C12.8036 183.245 10.9778 185.533 11.2629 188.07L13.2504 187.847ZM13.3258 188.518L13.2504 187.847L11.2629 188.07L11.3383 188.741L13.3258 188.518ZM11.7723 189.699L12.4437 189.624L12.2204 187.636L11.549 187.712L11.7723 189.699ZM9.45824 192.599C9.29646 191.159 10.3325 189.861 11.7723 189.699L11.549 187.712C9.01151 187.997 7.18563 190.285 7.47075 192.822L9.45824 192.599ZM12.3582 194.913C10.9184 195.075 9.62002 194.039 9.45824 192.599L7.47075 192.822C7.75587 195.36 10.044 197.186 12.5815 196.9L12.3582 194.913ZM13.0296 194.838L12.3582 194.913L12.5815 196.9L13.2529 196.825L13.0296 194.838ZM14.2241 196.513L14.135 195.72L12.1475 195.943L12.2366 196.736L14.2241 196.513ZM17.1241 198.827C15.6843 198.989 14.3859 197.953 14.2241 196.513L12.2366 196.736C12.5218 199.274 14.8099 201.1 17.3474 200.815L17.1241 198.827Z" fill="black" mask="url(#path-15-inside-11_960_268)"/>
<mask id="path-17-inside-12_960_268" fill="white">
<path fill-rule="evenodd" clip-rule="evenodd" d="M28.4566 43.291C31.456 40.9381 35.795 41.4622 38.148 44.4616C40.501 47.4611 39.9769 51.8001 36.9774 54.1531L35.7808 55.0917L36.5752 56.1043C38.9282 59.1038 38.4041 63.4428 35.4046 65.7958C32.4051 68.1487 28.0661 67.6246 25.7132 64.6252L24.9188 63.6126L23.9062 64.4069C20.9067 66.7599 16.5677 66.2358 14.2147 63.2364C11.8618 60.2369 12.3859 55.8979 15.3853 53.5449L16.398 52.7505L15.4593 51.5539C13.1063 48.5544 13.6304 44.2154 16.6299 41.8625C19.6293 39.5095 23.9683 40.0336 26.3213 43.0331L27.26 44.2297L28.4566 43.291ZM21.3948 57.604C23.4287 60.1967 27.1794 60.6498 29.7721 58.6159C32.3649 56.5819 32.8179 52.8313 30.784 50.2385C28.7501 47.6457 24.9994 47.1927 22.4066 49.2266C19.8139 51.2606 19.3609 55.0112 21.3948 57.604Z"/>
</mask>
<path fill-rule="evenodd" clip-rule="evenodd" d="M28.4566 43.291C31.456 40.9381 35.795 41.4622 38.148 44.4616C40.501 47.4611 39.9769 51.8001 36.9774 54.1531L35.7808 55.0917L36.5752 56.1043C38.9282 59.1038 38.4041 63.4428 35.4046 65.7958C32.4051 68.1487 28.0661 67.6246 25.7132 64.6252L24.9188 63.6126L23.9062 64.4069C20.9067 66.7599 16.5677 66.2358 14.2147 63.2364C11.8618 60.2369 12.3859 55.8979 15.3853 53.5449L16.398 52.7505L15.4593 51.5539C13.1063 48.5544 13.6304 44.2154 16.6299 41.8625C19.6293 39.5095 23.9683 40.0336 26.3213 43.0331L27.26 44.2297L28.4566 43.291ZM21.3948 57.604C23.4287 60.1967 27.1794 60.6498 29.7721 58.6159C32.3649 56.5819 32.8179 52.8313 30.784 50.2385C28.7501 47.6457 24.9994 47.1927 22.4066 49.2266C19.8139 51.2606 19.3609 55.0112 21.3948 57.604Z" fill="white"/>
<path d="M28.4566 43.291L29.0738 44.0778L28.4566 43.291ZM35.7808 55.0917L35.1636 54.3049L34.3768 54.9221L34.994 55.7089L35.7808 55.0917ZM36.5752 56.1043L37.362 55.4871L36.5752 56.1043ZM24.9188 63.6126L25.7056 62.9954L25.0884 62.2086L24.3016 62.8258L24.9188 63.6126ZM16.398 52.7505L17.0152 53.5373L17.802 52.9201L17.1848 52.1333L16.398 52.7505ZM27.26 44.2297L26.4732 44.8469L27.0904 45.6337L27.8772 45.0165L27.26 44.2297ZM38.9348 43.8444C36.241 40.4104 31.2734 39.8104 27.8394 42.5042L29.0738 44.0778C31.6387 42.0657 35.3491 42.5139 37.3612 45.0788L38.9348 43.8444ZM37.5946 54.9399C41.0286 52.246 41.6287 47.2784 38.9348 43.8444L37.3612 45.0788C39.3733 47.6438 38.9251 51.3542 36.3602 53.3663L37.5946 54.9399ZM36.3981 55.8785L37.5946 54.9399L36.3602 53.3663L35.1636 54.3049L36.3981 55.8785ZM37.362 55.4871L36.5676 54.4745L34.994 55.7089L35.7884 56.7215L37.362 55.4871ZM36.0218 66.5826C39.4558 63.8887 40.0558 58.9211 37.362 55.4871L35.7884 56.7215C37.8005 59.2865 37.3523 62.9969 34.7874 65.009L36.0218 66.5826ZM24.9264 65.2424C27.6202 68.6764 32.5878 69.2764 36.0218 66.5826L34.7874 65.009C32.2225 67.0211 28.512 66.5729 26.5 64.008L24.9264 65.2424ZM24.132 64.2298L24.9264 65.2424L26.5 64.008L25.7056 62.9954L24.132 64.2298ZM24.5234 65.1937L25.536 64.3994L24.3016 62.8258L23.2889 63.6202L24.5234 65.1937ZM13.4279 63.8536C16.1218 67.2876 21.0894 67.8876 24.5234 65.1937L23.2889 63.6202C20.724 65.6322 17.0136 65.1841 15.0015 62.6191L13.4279 63.8536ZM14.7681 52.7581C11.3341 55.452 10.7341 60.4196 13.4279 63.8536L15.0015 62.6191C12.9894 60.0542 13.4376 56.3438 16.0025 54.3317L14.7681 52.7581ZM15.7808 51.9637L14.7681 52.7581L16.0025 54.3317L17.0152 53.5373L15.7808 51.9637ZM14.6725 52.1711L15.6112 53.3677L17.1848 52.1333L16.2461 50.9367L14.6725 52.1711ZM16.0127 41.0757C12.5786 43.7695 11.9786 48.7371 14.6725 52.1711L16.2461 50.9367C14.234 48.3718 14.6821 44.6614 17.2471 42.6493L16.0127 41.0757ZM27.1081 42.4159C24.4143 38.9819 19.4467 38.3818 16.0127 41.0757L17.2471 42.6493C19.812 40.6372 23.5224 41.0854 25.5345 43.6503L27.1081 42.4159ZM28.0468 43.6125L27.1081 42.4159L25.5345 43.6503L26.4732 44.8469L28.0468 43.6125ZM27.8394 42.5042L26.6428 43.4429L27.8772 45.0165L29.0738 44.0778L27.8394 42.5042ZM29.1549 57.8291C26.9967 59.5221 23.8746 59.145 22.1816 56.9868L20.608 58.2212C22.9828 61.2485 27.362 61.7774 30.3893 59.4027L29.1549 57.8291ZM29.9972 50.8557C31.6902 53.0139 31.3131 56.136 29.1549 57.8291L30.3893 59.4027C33.4166 57.0279 33.9456 52.6486 31.5708 49.6213L29.9972 50.8557ZM23.0239 50.0134C25.1821 48.3204 28.3041 48.6975 29.9972 50.8557L31.5708 49.6213C29.196 46.594 24.8167 46.065 21.7894 48.4398L23.0239 50.0134ZM22.1816 56.9868C20.4885 54.8285 20.8656 51.7065 23.0239 50.0134L21.7894 48.4398C18.7621 50.8146 18.2332 55.1939 20.608 58.2212L22.1816 56.9868Z" fill="black" mask="url(#path-17-inside-12_960_268)"/>
<path d="M269.812 97.8131L768.683 263.199" stroke="#FFCD1A"/>
<path d="M265.548 106.021L845.257 379.073" stroke="#FFCD1A"/>
<path d="M272.584 86.3455L698.993 162.56" stroke="#FFCD1A"/>
<path d="M216.645 111.472L225.154 82.4353L200.162 65.3819L229.198 73.8905L246.259 48.9016L237.743 77.9346L262.732 94.9951L233.699 86.4794L216.645 111.472Z" fill="#FFCD1A" stroke="black" stroke-miterlimit="10"/>
<circle cx="19" cy="19" r="18.5" transform="matrix(1 0 0 -1 277 242)" fill="#99E4EE" stroke="black"/>
<circle cx="7" cy="7" r="6.5" transform="matrix(1 0 0 -1 224 169)" fill="white" stroke="black"/>
<circle cx="9" cy="9" r="8.5" transform="matrix(1 0 0 -1 306 32)" fill="#F095FF" stroke="black"/>
</g>
<defs>
<clipPath id="clip0_960_268">
<rect width="375" height="248" fill="white"/>
</clipPath>
</defs>
</svg>
