<svg width="504" height="443" viewBox="0 0 504 443" fill="none" xmlns="http://www.w3.org/2000/svg">
<g clip-path="url(#clip0_936_1185)">
<rect width="504" height="443" fill="#CCCCCC"/>
<circle cx="121" cy="365" r="26" fill="white"/>
<circle cx="190" cy="403" r="6" fill="white"/>
<path d="M738.755 66.8852C435.721 -45.6269 198.183 93.7456 139.731 194.09L146.141 193.422C269.303 46.9537 591.982 38.3697 713.56 88.6442L738.755 66.8852Z" fill="#AED8FF" stroke="black"/>
<path d="M737.419 54.0641C434.384 -58.448 196.91 81.535 138.458 181.88L144.563 181.243C267.724 34.7749 590.645 25.5486 712.223 75.8231L737.419 54.0641Z" fill="#D1A7F2" stroke="black"/>
<path d="M740.101 38.3552C437.066 -74.1569 202.088 69.4572 143.636 169.802L148.657 167.239C271.819 20.7704 593.327 9.83975 714.906 60.1142L740.101 38.3552Z" fill="#FFDF8D" stroke="black"/>
<path d="M746.74 19.7092C443.705 -92.8029 208.726 50.8112 150.274 151.156L156.769 152.051C279.93 5.58254 599.966 -8.80625 721.544 41.4682L746.74 19.7092Z" fill="#FED1D1" stroke="black"/>
<rect x="-0.699767" y="0.101615" width="31.723" height="135.034" transform="matrix(-0.801383 -0.598152 -0.598152 0.801383 182.379 157.46)" fill="#D9D9D9" stroke="black"/>
<rect x="-0.680258" y="0.193" width="186.923" height="19.5687" transform="matrix(-0.873258 -0.487257 -0.487257 0.873258 215.637 239.361)" fill="white" stroke="black"/>
<path d="M87.5001 415.328L198.317 253.472L50.2709 170.866L-29.6786 349.945L87.5001 415.328Z" fill="#F37D6E" stroke="black"/>
<path d="M340.919 91.4196C343.397 86.1426 337.675 80.7776 332.569 83.5902C329.905 85.057 326.601 84.6422 324.383 82.5627C320.13 78.5752 313.259 82.3596 314.356 88.0853C314.928 91.0714 313.512 94.0863 310.849 95.5532C305.742 98.3658 307.218 106.07 313.003 106.796C316.02 107.174 318.449 109.453 319.022 112.439C320.118 118.164 327.901 119.141 330.379 113.864C331.672 111.112 334.589 109.505 337.606 109.884C343.391 110.61 346.725 103.51 342.472 99.5225C340.254 97.4429 339.627 94.1717 340.919 91.4196Z" fill="#FBDD00" stroke="black"/>
<path d="M166.449 73.0999C167.818 70.1843 164.657 67.2199 161.835 68.774C160.194 69.678 158.157 69.4223 156.79 68.1407C154.441 65.9376 150.644 68.0285 151.25 71.1921C151.603 73.0324 150.73 74.8904 149.089 75.7944C146.268 77.3484 147.083 81.605 150.279 82.0062C152.138 82.2395 153.636 83.6435 153.988 85.4838C154.595 88.6474 158.895 89.1871 160.264 86.2715C161.06 84.5754 162.858 83.5851 164.718 83.8185C167.914 84.2196 169.756 80.2967 167.406 78.0935C166.039 76.812 165.653 74.7959 166.449 73.0999Z" fill="#FBDD00" stroke="black"/>
<path d="M216.918 195.065C218.287 192.15 215.125 189.185 212.304 190.739C210.662 191.643 208.626 191.388 207.259 190.106C204.909 187.903 201.113 189.994 201.719 193.157C202.071 194.998 201.199 196.856 199.558 197.76C196.736 199.314 197.552 203.57 200.748 203.971C202.607 204.205 204.104 205.609 204.457 207.449C205.063 210.613 209.363 211.152 210.732 208.237C211.529 206.541 213.327 205.55 215.186 205.784C218.382 206.185 220.224 202.262 217.874 200.059C216.507 198.777 216.121 196.761 216.918 195.065Z" fill="#FBDD00" stroke="black"/>
<path d="M55.9137 335.175L102.822 320.685L102.747 320.442L103.225 320.294L112.953 317.289C125.906 313.288 133.164 299.544 129.163 286.59C125.161 273.637 111.417 266.38 98.4635 270.381L88.7354 273.386L88.2577 273.533L88.1101 273.055L85.1814 263.574C81.1803 250.62 67.4359 243.363 54.4824 247.364C41.529 251.365 34.2717 265.11 38.2728 278.063L55.9137 335.175Z" fill="white" stroke="black"/>
<path d="M398.967 262.124L341.335 193.308L351.403 282.18L263.161 260.216L324.605 325.722L239.493 358.966L328.868 376.094L279.375 451.825L362.562 414.061L367.573 503.399L412.761 425.14L470.391 493.923L460.356 405.048L548.564 427.016L487.12 361.509L572.236 328.298L482.858 311.137L532.351 235.406L449.196 273.167L444.152 183.832L398.967 262.124Z" fill="white"/>
<path d="M304.19 195.38H320.21V218.33H308.42V220.58H318.59V233.18H298.43L294.11 228.41V215.63H302.48V213.65H284.21V215.63H292.22V228.41L288.08 233.18H267.92V220.58H278.27V218.6H266.48V195.38H280.97V191.87H304.19V195.38ZM262.16 193.22V198.08H264.5V219.5H262.16V225.53H264.5V248.84L262.16 249.83V276.2H237.05V268.46L240.65 264.14V258.38H236.42V235.61L240.65 233.81V219.5H236.87V198.08H240.65V193.22H262.16ZM301.31 259.64L307.52 255.23H319.76V276.2H265.67V262.79L281.06 251.63V250.64H266.48V235.34H317.33V245.06L298.34 259.01V259.64H301.31ZM402.02 242.36L383.57 250.28H375.29L357.2 244.61H355.13L343.07 249.47L334.16 230.03L352.61 222.11H360.89L378.98 227.78H381.05L392.93 222.92L402.02 242.36Z" fill="#232323"/>
<path d="M259.96 292.04H271.4V306.88H258.04V304.04L260.68 302.28V301.28H257.12L255.68 306.88H246.16V301.92L249 290.68H259.96V292.04ZM234.6 301.84V291.6H245.2V301.84H234.6ZM234.6 313.36V302.88H245.2V313.36H234.6ZM270.96 319.28L268.96 320.96L271.24 322.72V328.28H262.16L258.88 325.84L256 328.28H246.28V322.72L248.52 321.08L246.56 319.64V315.36H256.36L258.6 316.88L259.72 315.92V314.48H246.32V307.8H270.96V319.28ZM234.52 318.36L236.68 314.4H245.2V328.28H234.52V318.36ZM311.12 301.04H291.88L291.08 302.48H310.8V328.28H295.64V325.6L297.32 323.88H288.6V328.28H276.2V316H274.44V306L277.4 301.04H275.2V292.32H280.8V290.64H293.8V292.32H311.12V301.04ZM297.96 312.24V310.76H288.6V312.24H297.96ZM288.6 317.16V318.68H297.96V317.16H288.6ZM343.64 307.96V310L343.92 310.44L345.48 309H351.44V316.32L349.36 318.24L351.52 321.32V328.4H341.92L339.92 325.68L337.48 328.08H329.68V320.56L333.48 316.84L332.08 314.92V291.12H343.64V299.16H351.52V307.96H343.64ZM330.84 314.8L328.56 315.6V328.2H314.52V324.76L316.96 322.84V319.56L316 319.88H314.32V309.76L316.96 308.88V303H314.4V293.48H316.96V291.32H328.56V293.48H330.68V303H328.56V305.08L329.36 304.8H330.84V314.8ZM350.8 291.84V298.16H344.72V291.84H350.8ZM381.88 291.36H391.28V328.16H375.84V323.84L381.88 320V291.36ZM354.6 299.88V291.4H374.96V299.88H364.68V303.92H365.76V300.92H374.68V310.96H369.6V312.24H374.76V319.48H369.6V320.72H374.84V328.2H354.52V320.72H359.36V319.48H354.88V312.24H359.36V310.96H354.88V302.68L356.92 299.88H354.6ZM380.88 293.24V319.48H375.88V293.24H380.88ZM242.12 349.84L240.88 351.68H234.44V344.12L237.6 339.12H245.64V340.12H252.36V347.64H249.92L251.96 349.96V351.68H243.72L242.12 349.84ZM261.04 349.76L259.76 351.68H253.16V344.2L256.32 339.12H264.52V340.12H271.48V347.64H269.08L271.08 349.92V351.68H262.72L261.04 349.76ZM271.72 353.76V362.04H270.08V376.2H252.12V372.48L258.36 369.8V362.04H248.6V353.76H258.36V352.48H270.08V353.76H271.72ZM234.2 358.44L238.36 352.6H247.44V376.16H236.4V367.6H234.2V358.44ZM257.32 363.12V369.4H250.56L248.72 367V363.12H257.32ZM298.68 338.68L311.96 344.56V355.36H309.56V357.52H276.56V355.36H274.2V344.56L286.84 338.68H298.68ZM294.04 348.24H292.04L288.2 349.76H298L294.04 348.24ZM275.28 376.28V358.92H310.8V376.28H275.28ZM287.32 366.56V368.44H298.48V366.56H287.32ZM327 339.04V342.44H332.16V376H314.52V343.72L318 339.04H327ZM344.88 340.96H351.4V376.16H335V370.84L340.92 366.84V351.68H333.4V343.04L336.32 339.04H344.88V340.96ZM324.56 352H322.44V356.32H324.56V352ZM339.72 366.72H335.64L333.56 364V353H339.72V366.72ZM322.44 367.96H324.56V363.48H322.44V367.96ZM360.4 339H367.16L373.36 342.28V349.76H369.28L367.8 348.8V350.56H373.04V366.32H363.48V368.76H364.92V367.28H373.24V376.24H367.52L365.76 374.4L364.12 376.28H354.84V350.56H359.96V348.68L358.32 349.76H354.2V342.28L360.4 339ZM391.52 356.36L389.56 360.12H387.32L391.48 367.2V376.2H384.96L382.88 370.6H382.52L380.4 376.2H374.24V367.2L378.48 358.76V356.68L376.48 360.52H374.28V343.96L377.28 339.16H384.44V340.96H391.52V356.36ZM364.68 347H362.72L361.28 347.88H366.2L364.68 347ZM381.16 351.56H384.12V350.08H381.92L381.16 351.56ZM366.2 356.92V355.96H362.32V356.92H366.2ZM362.32 361.32H366.2V360.28H362.32V361.32ZM406.8 339.36V352.24H411.12V360.04H408.52L411.12 363.2V371.28H408.44V376.16H398.32V371.44L396.56 373.64H394.56V362.92L397.12 360.04H394.48V352.24H399.28V339.36H406.8ZM431.8 360.36V369.4L430.68 369.76V376.32H418.56V373.68L414.4 375.04H411.88V365.8L416.04 364.32L411.96 362.84V351.6H412.8L419.64 354.32V363.04L420.52 362.76V339.48H430.68V360.36H431.8ZM419.64 353.04H418.8L411.96 350.28V340.24H413.28L419.64 342.88V353.04ZM398.48 340.52V351.48H394.68V340.52H398.48ZM407.6 351.48V340.52H411.12V351.48H407.6ZM446.52 340.32H459.92V358.52L456.2 363.48H446.52V340.32ZM446.76 365.84H458.92V375.52H446.76V365.84Z" fill="#232323"/>
<circle cx="57.5" cy="0.5" r="38.5" fill="white"/>
<circle cx="83.5" cy="114.5" r="7.5" fill="white"/>
<circle cx="439.5" cy="72.5" r="7.5" fill="white"/>
<circle cx="242" cy="135" r="4" fill="white"/>
<circle cx="414" cy="94" r="4" fill="white"/>
<circle cx="36" cy="74" r="4" fill="white"/>
</g>
<defs>
<clipPath id="clip0_936_1185">
<rect width="504" height="443" fill="white"/>
</clipPath>
</defs>
</svg>
