<svg width="688" height="594" viewBox="0 0 688 594" fill="none" xmlns="http://www.w3.org/2000/svg">
<g clip-path="url(#clip0_259_4402)">
<circle cx="515" cy="159" r="14.5" fill="#F095FF" stroke="black"/>
<path d="M627.5 27.2779L646.195 0L645.275 33.0454L676.445 21.9698L656.274 48.1595L688 57.506L656.274 66.8405L676.445 93.0302L645.275 81.9546L646.195 115L627.5 87.7342L608.806 115L609.713 81.9546L578.555 93.0302L598.726 66.8405L567 57.506L598.726 48.1595L578.555 21.9698L609.713 33.0454L608.806 0L627.5 27.2779Z" fill="white" stroke="black" stroke-miterlimit="10"/>
<path d="M616 228.5L-45 527" stroke="white"/>
<path d="M613.5 219L-148 464.5" stroke="white"/>
<path d="M622 239.5L-61.5 652" stroke="white"/>
<path d="M654.996 182L659.507 210.493L688 214.996L659.507 219.507L654.996 248L650.493 219.507L622 214.996L650.493 210.493L654.996 182Z" fill="#FFF066" stroke="black" stroke-miterlimit="10"/>
</g>
<defs>
<clipPath id="clip0_259_4402">
<rect width="688" height="594" fill="white"/>
</clipPath>
</defs>
</svg>
