<svg width="38" height="38" viewBox="0 0 38 38" fill="none" xmlns="http://www.w3.org/2000/svg">
<path d="M5.54175 11.0834C6.17164 11.0834 6.77573 10.8332 7.22113 10.3878C7.66653 9.94235 7.91675 9.33826 7.91675 8.70837C7.91675 8.07848 7.66653 7.47439 7.22113 7.029C6.77573 6.5836 6.17164 6.33337 5.54175 6.33337C4.91186 6.33337 4.30777 6.5836 3.86237 7.029C3.41697 7.47439 3.16675 8.07848 3.16675 8.70837C3.16675 9.33826 3.41697 9.94235 3.86237 10.3878C4.30777 10.8332 4.91186 11.0834 5.54175 11.0834ZM12.6667 8.70837C12.6667 8.33044 12.8169 7.96799 13.0841 7.70075C13.3514 7.43351 13.7138 7.28337 14.0917 7.28337H32.1418C32.5197 7.28337 32.8821 7.43351 33.1494 7.70075C33.4166 7.96799 33.5667 8.33044 33.5667 8.70837C33.5667 9.08631 33.4166 9.44876 33.1494 9.716C32.8821 9.98324 32.5197 10.1334 32.1418 10.1334H14.0917C13.7138 10.1334 13.3514 9.98324 13.0841 9.716C12.8169 9.44876 12.6667 9.08631 12.6667 8.70837ZM14.0917 16.7834C13.7138 16.7834 13.3514 16.9335 13.0841 17.2007C12.8169 17.468 12.6667 17.8304 12.6667 18.2084C12.6667 18.5863 12.8169 18.9488 13.0841 19.216C13.3514 19.4832 13.7138 19.6334 14.0917 19.6334H32.1418C32.5197 19.6334 32.8821 19.4832 33.1494 19.216C33.4166 18.9488 33.5667 18.5863 33.5667 18.2084C33.5667 17.8304 33.4166 17.468 33.1494 17.2007C32.8821 16.9335 32.5197 16.7834 32.1418 16.7834H14.0917ZM14.0917 26.2834C13.7138 26.2834 13.3514 26.4335 13.0841 26.7007C12.8169 26.968 12.6667 27.3304 12.6667 27.7084C12.6667 28.0863 12.8169 28.4488 13.0841 28.716C13.3514 28.9832 13.7138 29.1334 14.0917 29.1334H32.1418C32.5197 29.1334 32.8821 28.9832 33.1494 28.716C33.4166 28.4488 33.5667 28.0863 33.5667 27.7084C33.5667 27.3304 33.4166 26.968 33.1494 26.7007C32.8821 26.4335 32.5197 26.2834 32.1418 26.2834H14.0917ZM7.91675 18.2084C7.91675 18.8383 7.66653 19.4424 7.22113 19.8878C6.77573 20.3332 6.17164 20.5834 5.54175 20.5834C4.91186 20.5834 4.30777 20.3332 3.86237 19.8878C3.41697 19.4424 3.16675 18.8383 3.16675 18.2084C3.16675 17.5785 3.41697 16.9744 3.86237 16.529C4.30777 16.0836 4.91186 15.8334 5.54175 15.8334C6.17164 15.8334 6.77573 16.0836 7.22113 16.529C7.66653 16.9744 7.91675 17.5785 7.91675 18.2084ZM5.54175 30.0834C6.17164 30.0834 6.77573 29.8332 7.22113 29.3878C7.66653 28.9424 7.91675 28.3383 7.91675 27.7084C7.91675 27.0785 7.66653 26.4744 7.22113 26.029C6.77573 25.5836 6.17164 25.3334 5.54175 25.3334C4.91186 25.3334 4.30777 25.5836 3.86237 26.029C3.41697 26.4744 3.16675 27.0785 3.16675 27.7084C3.16675 28.3383 3.41697 28.9424 3.86237 29.3878C4.30777 29.8332 4.91186 30.0834 5.54175 30.0834Z" fill="black"/>
</svg>
