<svg width="50" height="50" viewBox="0 0 50 50" fill="none" xmlns="http://www.w3.org/2000/svg">
<path d="M18.875 25.5452V44.9063C18.8751 45.1674 18.9418 45.4242 19.0691 45.6522C19.1963 45.8803 19.3797 46.072 19.6019 46.2092C19.824 46.3464 20.0776 46.4244 20.3385 46.436C20.5994 46.4476 20.8588 46.3922 21.0923 46.2752L30.2798 41.6815C30.5338 41.5542 30.7474 41.3587 30.8967 41.117C31.046 40.8752 31.125 40.5967 31.125 40.3126V25.5452L44.5602 9.12712C44.6877 8.97148 44.7833 8.79225 44.8415 8.59967C44.8998 8.40709 44.9195 8.20493 44.8996 8.00472C44.8797 7.80452 44.8205 7.6102 44.7255 7.43285C44.6305 7.25551 44.5015 7.09861 44.3459 6.97112C44.1902 6.84363 44.011 6.74805 43.8184 6.68982C43.6258 6.6316 43.4237 6.61188 43.2235 6.63179C43.0233 6.65169 42.8289 6.71084 42.6516 6.80584C42.4742 6.90085 42.3173 7.02985 42.1899 7.1855L28.4086 24.0292C28.1845 24.3031 28.0623 24.6462 28.0625 25.0001V39.3662L21.9375 42.4287V25.0001C21.9378 24.6462 21.8155 24.3031 21.5915 24.0292L9.85598 9.68756H34.1875C34.5937 9.68756 34.9831 9.52623 35.2703 9.23906C35.5575 8.9519 35.7188 8.56242 35.7188 8.15631C35.7188 7.75019 35.5575 7.36072 35.2703 7.07355C34.9831 6.78639 34.5937 6.62506 34.1875 6.62506H6.62505C6.33496 6.62486 6.05079 6.70707 5.80562 6.86211C5.56045 7.01715 5.36436 7.23864 5.24018 7.5008C5.116 7.76296 5.06884 8.055 5.10419 8.34292C5.13954 8.63084 5.25595 8.90279 5.43986 9.12712L18.875 25.5452Z" fill="black"/>
</svg>
