<svg width="24" height="24" viewBox="0 0 24 24" fill="none" xmlns="http://www.w3.org/2000/svg">
<g clip-path="url(#clip0_390_4251)">
<path fill-rule="evenodd" clip-rule="evenodd" d="M4.0844 8.51811C1.88685 11.894 1.35562 15.6991 2.76 18.46L6 18C7.43822 17.7864 8.75171 17.0629 9.70082 15.9615C9.98948 15.6265 10.2386 15.2633 10.4454 14.8792L4.0844 8.51811ZM12.1679 8.26013C12.4146 7.82679 12.7048 7.41603 13.0359 7.03466C14.2324 5.65642 15.8839 4.75345 17.69 4.48999L20.28 4.11999C20.2567 4.09332 20.2345 4.06666 20.2122 4.04C20.1678 3.98666 20.1233 3.93333 20.07 3.87999C17.3001 1.11006 12.3643 1.40116 8.19487 4.28709L12.1679 8.26013Z" fill="#B98159"/>
<rect x="0.0311279" y="2.302" width="2.68065" height="30.4131" transform="rotate(-45 0.0311279 2.302)" fill="#B98159"/>
<path fill-rule="evenodd" clip-rule="evenodd" d="M11.6248 15.9281C11.4037 16.2928 11.1511 16.6404 10.8687 16.9666C9.67438 18.3463 8.02508 19.2522 6.22001 19.52L3.76001 19.87L3.91001 20.04C6.6212 22.7512 11.4073 22.5367 15.5189 19.8222L11.6248 15.9281ZM19.6216 15.8442C22.0409 12.417 22.7016 8.41863 21.25 5.59003L17.91 6.07003C16.481 6.27762 15.1733 6.9895 14.2233 8.07704C13.843 8.51243 13.53 8.99652 13.2906 9.5132L19.6216 15.8442Z" fill="#B98159"/>
</g>
<defs>
<clipPath id="clip0_390_4251">
<rect width="24" height="24" fill="white"/>
</clipPath>
</defs>
</svg>
