<svg width="21" height="20" viewBox="0 0 21 20" fill="none" xmlns="http://www.w3.org/2000/svg">
<g clip-path="url(#clip0_303_4269)">
<path d="M6.68318 18.6906L10.4973 16.1523L14.3084 18.6886C14.5962 18.8899 14.9429 19 15.3012 19C15.6621 19 16.0113 18.8883 16.3004 18.6842L16.3022 18.6828C16.5884 18.4788 16.8 18.1947 16.9122 17.8724C17.0242 17.5509 17.0333 17.2036 16.9382 16.8771L16.9377 16.8756L15.6736 12.4489L19.3249 9.58537C19.6087 9.37349 19.8153 9.0824 19.9208 8.75482C20.0269 8.425 20.0264 8.07109 19.9193 7.74153C19.8123 7.41181 19.6026 7.11937 19.315 6.90785C19.0286 6.69724 18.6801 6.57815 18.3174 6.57096L13.7119 6.3982L12.1131 2.11028L12.1126 2.10936C11.9948 1.78993 11.7795 1.5099 11.4914 1.30992C11.2026 1.10947 10.8556 1 10.4973 1C10.139 1 9.79192 1.10947 9.50314 1.30992C9.21487 1.51003 8.99947 1.79029 8.88168 2.10999V2.10999L7.28751 6.41438L2.68254 6.58711C2.31989 6.59429 1.97132 6.7134 1.68499 6.924C1.39742 7.13551 1.18773 7.42796 1.08063 7.75768C0.973591 8.08725 0.973115 8.44114 1.07926 8.77096C1.18474 9.09873 1.39154 9.38999 1.67554 9.60189L5.31022 12.439L4.05649 16.8498L4.05615 16.8509C3.96182 17.1779 3.97101 17.5255 4.08282 17.8475C4.19481 18.1701 4.40558 18.4547 4.69094 18.6601C4.97669 18.8658 5.32261 18.9811 5.68178 18.9867C6.04047 18.9922 6.38972 18.8879 6.68199 18.6914L6.68318 18.6906Z" fill="#FFF066"/>
<path d="M19.9208 8.75482C19.8153 9.0824 19.6087 9.37349 19.3249 9.58537L15.6736 12.4489L16.9377 16.8756C16.9379 16.876 16.938 16.8765 16.9382 16.8771C17.0333 17.2036 17.0242 17.5509 16.9122 17.8724C16.8 18.1947 16.5884 18.4788 16.3022 18.6828L16.3004 18.6842C16.0113 18.8883 15.6621 19 15.3012 19C14.9429 19 14.5962 18.8899 14.3084 18.6886L10.4973 16.1523L6.68318 18.6906C6.68278 18.6909 6.68239 18.6912 6.68199 18.6914C6.38972 18.8879 6.04047 18.9922 5.68178 18.9867C5.32261 18.9811 4.97669 18.8658 4.69094 18.6601C4.40558 18.4547 4.19481 18.1701 4.08282 17.8475C3.97101 17.5255 3.96182 17.1779 4.05615 16.8509C4.05626 16.8505 4.05637 16.8502 4.05649 16.8498L5.31022 12.439L1.67554 9.60189C1.39154 9.38999 1.18474 9.09873 1.07926 8.77096C0.973115 8.44114 0.973591 8.08725 1.08063 7.75768C1.18773 7.42796 1.39742 7.13551 1.68499 6.924M19.9208 8.75482L19.4292 8.61407M19.9208 8.75482C20.0269 8.425 20.0264 8.07109 19.9193 7.74153C19.8123 7.41181 19.6026 7.11937 19.315 6.90785C19.0286 6.69724 18.6801 6.57815 18.3174 6.57096L13.7119 6.3982L12.1131 2.11028C12.1129 2.10997 12.1128 2.10967 12.1126 2.10936C11.9948 1.78993 11.7795 1.5099 11.4914 1.30992C11.2026 1.10947 10.8556 1 10.4973 1C10.139 1 9.79192 1.10947 9.50314 1.30992C9.21487 1.51003 8.99947 1.79029 8.88168 2.10999M1.68499 6.924C1.97132 6.7134 2.31989 6.59429 2.68254 6.58711L7.28751 6.41438L8.88168 2.10999M1.68499 6.924L2.00086 7.30609M8.88168 2.10999C8.88164 2.11009 8.88172 2.1099 8.88168 2.10999Z" stroke="#3C3C3C"/>
</g>
<defs>
<clipPath id="clip0_303_4269">
<rect width="21" height="20" fill="white"/>
</clipPath>
</defs>
</svg>
