<svg width="20" height="20" viewBox="0 0 20 20" fill="none" xmlns="http://www.w3.org/2000/svg">
<path d="M6.52649 19.0554L10.2391 16.4361L13.9488 19.0534C14.229 19.2611 14.5665 19.3747 14.9152 19.3747C15.2665 19.3747 15.6064 19.2594 15.8878 19.0488L15.8896 19.0474C16.1682 18.8369 16.3741 18.5437 16.4834 18.2111C16.5925 17.8793 16.6012 17.5209 16.5087 17.184C16.5085 17.1834 16.5084 17.1829 16.5082 17.1824L15.2777 12.6144L18.8319 9.65938C19.1081 9.44073 19.3092 9.14034 19.4119 8.8023L18.9334 8.65706L19.4119 8.80229C19.5152 8.46194 19.5147 8.09674 19.4105 7.75665C19.3063 7.4164 19.1022 7.11462 18.8222 6.89634C18.5435 6.67901 18.2042 6.55611 17.8512 6.54869L13.3682 6.37042L11.8119 1.94555C11.8117 1.94523 11.8116 1.94492 11.8115 1.9446C11.6968 1.61496 11.4872 1.32599 11.2068 1.11962C10.9257 0.912771 10.5879 0.799805 10.2391 0.799805C9.89034 0.799805 9.55252 0.912771 9.27143 1.11962C8.99082 1.32612 8.78116 1.61534 8.66649 1.94525C8.66646 1.94535 8.66642 1.94545 8.66639 1.94555L7.11474 6.38711L2.63228 6.56536C2.27929 6.57277 1.93998 6.69568 1.66128 6.91301L1.96874 7.3073L1.66128 6.91301C1.38136 7.13128 1.17724 7.43307 1.073 7.77332C0.968801 8.11341 0.968338 8.4786 1.07166 8.81896C1.17433 9.1572 1.37563 9.45776 1.65207 9.67643L5.19006 12.6041L3.96967 17.1558C3.96957 17.1562 3.96946 17.1566 3.96935 17.157C3.87752 17.4944 3.88648 17.8531 3.99531 18.1854C4.10432 18.5183 4.30948 18.812 4.58725 19.0239C4.8654 19.2362 5.20212 19.3552 5.55173 19.361C5.90088 19.3667 6.24084 19.259 6.52533 19.0562C6.52572 19.056 6.5261 19.0557 6.52649 19.0554Z" stroke="#3C3C3C"/>
</svg>
