<svg width="20" height="20" viewBox="0 0 20 20" fill="none" xmlns="http://www.w3.org/2000/svg">
<path d="M6.03198 19.0554L9.74462 16.4361L13.4543 19.0534C13.7345 19.2611 14.072 19.3747 14.4207 19.3747C14.772 19.3747 15.1119 19.2594 15.3933 19.0488L15.3951 19.0474C15.6737 18.8369 15.8796 18.5437 15.9889 18.2111C16.0979 17.8793 16.1067 17.5209 16.0142 17.184C16.014 17.1834 16.0139 17.1829 16.0137 17.1824L14.7832 12.6144L18.3374 9.65938C18.6136 9.44073 18.8147 9.14034 18.9174 8.8023L18.4389 8.65706L18.9174 8.80229C19.0207 8.46194 19.0202 8.09674 18.916 7.75665C18.8118 7.4164 18.6077 7.11462 18.3277 6.89634C18.049 6.67901 17.7097 6.55611 17.3567 6.54869L12.8737 6.37042L11.3174 1.94555C11.3172 1.94523 11.3171 1.94492 11.317 1.9446C11.2023 1.61496 10.9927 1.32599 10.7123 1.11962C10.4312 0.912771 10.0934 0.799805 9.74462 0.799805C9.39583 0.799805 9.05801 0.912771 8.77692 1.11962C8.49632 1.32612 8.28665 1.61534 8.17199 1.94525C8.17195 1.94535 8.17192 1.94545 8.17188 1.94555L6.62023 6.38711L2.13778 6.56536C1.78478 6.57277 1.44548 6.69568 1.16677 6.91301L1.47423 7.3073L1.16677 6.91301C0.886849 7.13128 0.682733 7.43307 0.578489 7.77332C0.474294 8.11341 0.473831 8.4786 0.57715 8.81896C0.679825 9.1572 0.881124 9.45776 1.15757 9.67643L4.69555 12.6041L3.47517 17.1558C3.47506 17.1562 3.47495 17.1566 3.47484 17.157C3.38302 17.4944 3.39197 17.8531 3.5008 18.1854C3.60981 18.5183 3.81498 18.812 4.09274 19.0239C4.37089 19.2362 4.70761 19.3552 5.05722 19.361C5.40637 19.3667 5.74633 19.259 6.03082 19.0562C6.03121 19.056 6.03159 19.0557 6.03198 19.0554Z" fill="#FFF066" stroke="#3C3C3C"/>
</svg>
