<svg width="65" height="65" viewBox="0 0 65 65" fill="none" xmlns="http://www.w3.org/2000/svg">
<path fill-rule="evenodd" clip-rule="evenodd" d="M44.8296 14.1746C41.4601 10.8561 36.9495 9.0001 32.2542 9C29.8825 8.99972 27.534 9.47358 25.3428 10.3945C23.1516 11.3154 21.1606 12.6654 19.4836 14.3673C17.8065 16.0692 16.4763 18.0897 15.5688 20.3135C14.6613 22.5372 14.1944 24.9205 14.1947 27.3274V37.2649L11.1869 45.1201L11.0977 45.3874C10.9864 45.7972 10.97 46.2276 11.0496 46.6449C11.1292 47.0622 11.3027 47.4552 11.5567 47.7932C11.8106 48.1312 12.138 48.4051 12.5135 48.5936C12.8889 48.782 13.3022 48.8799 13.721 48.8796L24.0769 48.8776V48.8654H41.2404V48.8814L50.7811 48.8796L51.0572 48.8645C51.7269 48.7951 52.3474 48.4761 52.7986 47.9692C53.2499 47.4623 53.4998 46.8035 53.5 46.1204L53.4788 45.7798C53.4511 45.5556 53.3959 45.3335 53.3152 45.1223L50.3116 37.2671V27.3252L50.3031 26.7755C50.1623 22.0128 48.199 17.493 44.8296 14.1746ZM39.4244 50.8654H25.0842C25.4529 52.2194 26.1897 53.453 27.2249 54.417C28.6491 55.7432 30.5261 56.4548 32.4583 56.401C34.3905 56.3472 36.2262 55.5322 37.5766 54.1287C38.4616 53.209 39.0926 52.0838 39.4244 50.8654Z" fill="#5CBDCA"/>
</svg>
