<svg width="65" height="65" viewBox="0 0 65 65" fill="none" xmlns="http://www.w3.org/2000/svg">
<path d="M36.3439 27.2679C35.0576 27.2679 34.0608 28.2647 34.0608 29.4953C34.0608 30.726 35.0576 31.7228 36.3439 31.7228C37.5189 31.7228 38.5157 30.726 38.5157 29.4953C38.5157 28.2647 37.5189 27.2679 36.3439 27.2679ZM20.7516 27.2679C19.4652 27.2679 18.4684 28.2647 18.4684 29.4953C18.4684 30.726 19.4652 31.7228 20.7516 31.7228C21.9265 31.7228 22.9233 30.726 22.9233 29.4953C22.9233 28.2647 21.9265 27.2679 20.7516 27.2679Z" fill="#FFCD1A"/>
<path d="M54.2195 23.0356C51.541 19.3603 47.7988 16.9045 43.6947 15.7963V15.8019C42.7424 14.7438 41.6676 13.7693 40.4648 12.9006C31.3488 6.27383 18.552 8.29527 11.8974 17.4112C6.53469 24.8176 6.763 34.78 12.2315 41.8579L12.276 49.242C12.276 49.4202 12.3039 49.5984 12.3596 49.7654C12.6547 50.7065 13.6571 51.2244 14.5926 50.9293L21.6426 48.7074C23.5081 49.37 25.4349 49.7487 27.3505 49.8545L27.3227 49.8768C32.2844 53.4909 38.7886 54.5768 44.7527 52.6055L51.8305 54.9109C52.0087 54.9666 52.1925 55 52.3818 55C53.3675 55 54.1638 54.2037 54.1638 53.218V45.7559C59.0699 39.0958 59.1979 29.8907 54.2195 23.0356ZM22.4222 44.7536L21.754 44.4751L16.2409 46.2014L16.1853 40.41L15.7398 39.9088C11.0286 34.1619 10.7168 25.8812 15.1272 19.8058C20.4954 12.444 30.7864 10.8179 38.126 16.1304C45.4878 21.482 47.1194 31.7562 41.8013 39.0735C37.3408 45.1935 29.3552 47.4544 22.4222 44.7536ZM50.5442 43.8069L50.0987 44.3638L50.1544 50.1552L44.697 48.3176L44.0288 48.596C40.9103 49.7543 37.5858 49.8489 34.5063 48.9858L34.4952 48.9802C38.6104 47.7161 42.3415 45.1545 45.0311 41.468C49.2856 35.6042 49.9762 28.2368 47.5037 21.9553L47.5371 21.9776C48.8179 22.8964 49.9929 24.0436 50.9897 25.4302C55.0325 30.9766 54.8042 38.5278 50.5442 43.8069Z" fill="#FFCD1A"/>
<path d="M28.5477 27.2679C27.2613 27.2679 26.2645 28.2647 26.2645 29.4953C26.2645 30.726 27.2613 31.7228 28.5477 31.7228C29.7227 31.7228 30.7195 30.726 30.7195 29.4953C30.7195 28.2647 29.7227 27.2679 28.5477 27.2679Z" fill="#FFCD1A"/>
</svg>
