<svg width="65" height="65" viewBox="0 0 65 65" fill="none" xmlns="http://www.w3.org/2000/svg">
<path d="M34.85 11C30.4872 11 26.3031 12.7208 23.2181 15.7839C20.1331 18.847 18.4 23.0015 18.4 27.3333C18.4 31.6652 20.1331 35.8196 23.2181 38.8827C26.3031 41.9458 30.4872 43.6667 34.85 43.6667C37.9663 43.6667 40.955 42.4375 43.1585 40.2496C45.3621 38.0617 46.6 35.0942 46.6 32C46.6 28.9058 45.3621 25.9383 43.1585 23.7504C40.955 21.5625 37.9663 20.3333 34.85 20.3333C32.9802 20.3333 31.187 21.0708 29.8649 22.3836C28.5428 23.6963 27.8 25.4768 27.8 27.3333C27.8 29.1898 28.5428 30.9703 29.8649 32.2831C31.187 33.5958 32.9802 34.3333 34.85 34.3333C35.4733 34.3333 36.071 34.0875 36.5117 33.6499C36.9524 33.2123 37.2 32.6188 37.2 32C37.2 31.3812 36.9524 30.7877 36.5117 30.3501C36.071 29.9125 35.4733 29.6667 34.85 29.6667C34.2267 29.6667 33.629 29.4208 33.1883 28.9832C32.7476 28.5457 32.5 27.9522 32.5 27.3333C32.5 26.7145 32.7476 26.121 33.1883 25.6834C33.629 25.2458 34.2267 25 34.85 25C36.7198 25 38.513 25.7375 39.8351 27.0503C41.1572 28.363 41.9 30.1435 41.9 32C41.9 33.8565 41.1572 35.637 39.8351 36.9497C38.513 38.2625 36.7198 39 34.85 39C31.7337 39 28.745 37.7708 26.5415 35.5829C24.3379 33.395 23.1 30.4275 23.1 27.3333C23.1 24.2391 24.3379 21.2717 26.5415 19.0838C28.745 16.8958 31.7337 15.6667 34.85 15.6667C39.2128 15.6667 43.3969 17.3875 46.4819 20.4506C49.5669 23.5137 51.3 27.6681 51.3 32C51.3 36.3319 49.5669 40.4863 46.4819 43.5494C43.3969 46.6125 39.2128 48.3333 34.85 48.3333C29.2407 48.3333 23.8611 46.1208 19.8947 42.1826C15.9283 38.2443 13.7 32.9029 13.7 27.3333C13.7 26.7145 13.4524 26.121 13.0117 25.6834C12.571 25.2458 11.9733 25 11.35 25C10.7267 25 10.129 25.2458 9.6883 25.6834C9.24759 26.121 9 26.7145 9 27.3333C9 34.1406 11.7235 40.669 16.5713 45.4824C21.4191 50.2958 27.9942 53 34.85 53C40.4593 53 45.8389 50.7875 49.8053 46.8492C53.7717 42.911 56 37.5695 56 32C56 26.4305 53.7717 21.089 49.8053 17.1508C45.8389 13.2125 40.4593 11 34.85 11Z" fill="#7C7C7C"/>
</svg>
