<svg width="1110" height="625" viewBox="0 0 1110 625" fill="none" xmlns="http://www.w3.org/2000/svg">
<g clip-path="url(#clip0_285_4421)">
<path d="M723.353 444.79L757.884 418.891L742.939 459.355L786.138 458.702L750.234 482.638L785.59 507.463L742.429 505.73L756.447 546.541L722.503 519.812L709.833 561.045L698.092 519.521L663.565 545.405L678.496 504.937L635.311 505.594L671.215 481.658L635.855 456.849L679.021 458.566L665.003 417.755L698.932 444.479L711.616 403.252L723.353 444.79Z" fill="white" stroke="black" stroke-miterlimit="10"/>
<path d="M12.5631 126.434C444.883 -34.0796 783.762 164.754 867.152 307.909L858.007 306.956C682.3 97.9991 221.955 85.7529 48.5074 157.476L12.5631 126.434Z" fill="#AED8FF" stroke="black"/>
<path d="M14.4702 108.143C446.79 -52.3705 785.579 147.334 868.968 290.489L860.258 289.581C684.552 80.6245 223.862 67.4619 50.4146 139.185L14.4702 108.143Z" fill="#D1A7F2" stroke="black"/>
<path d="M10.6437 85.7323C442.964 -74.7814 778.192 130.103 861.582 273.259L854.417 269.602C678.711 60.6451 220.036 45.0511 46.588 116.774L10.6437 85.7323Z" fill="#FFDF8D" stroke="black"/>
<path d="M1.17252 59.1312C433.492 -101.382 768.721 103.502 852.111 246.658L842.845 247.934C667.139 38.9776 210.564 18.4501 37.1169 90.1734L1.17252 59.1312Z" fill="#FED1D1" stroke="black"/>
<rect x="805.297" y="256.321" width="45.6838" height="193.071" transform="rotate(-36.7377 805.297 256.321)" fill="#D9D9D9" stroke="black"/>
<rect x="757.858" y="373.126" width="267.098" height="28.3441" transform="rotate(-29.1605 757.858 373.126)" fill="white" stroke="black"/>
<path d="M941.6 623.816L783.264 392.553L994.879 274.477L1109.11 530.348L941.6 623.816Z" fill="#F37D6E" stroke="black"/>
<path d="M591.341 149.635L592.337 150.184C595.942 152.169 600.415 151.608 603.418 148.793L604.247 148.015C610.254 142.383 619.958 147.728 618.409 155.815L618.195 156.932C617.421 160.974 619.337 165.055 622.942 167.041L623.938 167.59C631.151 171.562 629.066 182.443 620.896 183.469L619.768 183.611C615.684 184.123 612.395 187.207 611.62 191.249L611.407 192.366C609.857 200.453 598.864 201.833 595.364 194.379L594.881 193.35C593.132 189.625 589.182 187.45 585.099 187.962L583.971 188.104C575.8 189.129 571.091 179.101 577.098 173.469L577.928 172.691C580.93 169.876 581.779 165.448 580.029 161.723L579.546 160.694C576.046 153.24 584.128 145.663 591.341 149.635Z" fill="#FBDD00" stroke="black"/>
<path d="M827.524 142.269C829.407 140.504 829.939 137.727 828.842 135.391C826.801 131.044 831.514 126.625 835.72 128.942C837.981 130.187 840.786 129.835 842.669 128.07C846.172 124.785 851.831 127.902 850.928 132.619C850.442 135.153 851.644 137.712 853.904 138.957C858.111 141.274 856.895 147.62 852.13 148.218C849.57 148.539 847.507 150.473 847.021 153.008C846.118 157.724 839.707 158.528 837.666 154.182C836.569 151.846 834.093 150.482 831.532 150.803C826.767 151.401 824.021 145.553 827.524 142.269Z" fill="#FBDD00" stroke="black"/>
<path d="M755.524 316.269C757.407 314.504 757.939 311.727 756.842 309.391C754.801 305.044 759.514 300.625 763.72 302.942C765.981 304.187 768.786 303.835 770.669 302.07C774.172 298.785 779.831 301.902 778.928 306.619C778.442 309.153 779.644 311.712 781.904 312.957C786.111 315.274 784.895 321.62 780.13 322.218C777.57 322.539 775.507 324.473 775.021 327.008C774.118 331.724 767.707 332.528 765.666 328.182C764.569 325.846 762.093 324.482 759.532 324.803C754.767 325.401 752.021 319.553 755.524 316.269Z" fill="#FBDD00" stroke="black"/>
<path d="M85.5242 32.2686C87.4069 30.5035 87.9389 27.7268 86.8419 25.3908C84.8008 21.0442 89.5142 16.6251 93.7204 18.9418C95.9809 20.1869 98.7861 19.8348 100.669 18.0696C104.172 14.7852 109.831 17.9024 108.928 22.6186C108.442 25.1532 109.644 27.7123 111.904 28.9574C116.111 31.2741 114.895 37.6197 110.13 38.2178C107.57 38.5392 105.507 40.4729 105.021 43.0076C104.118 47.7238 97.7072 48.5285 95.666 44.1819C94.5691 41.8459 92.0927 40.4819 89.532 40.8033C84.7674 41.4014 82.0211 35.5531 85.5242 32.2686Z" fill="white" stroke="black"/>
<path d="M986.87 509.452L919.541 488.655L919.648 488.308L919.17 488.16L905.292 483.873C886.699 478.13 876.283 458.403 882.026 439.81C887.769 421.218 907.496 410.801 926.089 416.544L939.967 420.831L940.445 420.979L940.592 420.501L944.771 406.974C950.514 388.382 970.241 377.965 988.834 383.708C1007.43 389.451 1017.84 409.179 1012.1 427.771L986.87 509.452Z" fill="white" stroke="black"/>
</g>
<defs>
<clipPath id="clip0_285_4421">
<rect width="1110" height="625" fill="white"/>
</clipPath>
</defs>
</svg>
