<svg width="726" height="517" viewBox="0 0 726 517" fill="none" xmlns="http://www.w3.org/2000/svg">
<g clip-path="url(#clip0_285_4419)">
<rect x="0.5" y="65.5" width="590" height="320" fill="white" stroke="black"/>
<path d="M643.137 149.29L201 490" stroke="#FFCD1A"/>
<path d="M638.449 140.657L53.5 488.5" stroke="#FFCD1A"/>
<path d="M651.581 158.547L331 488.5" stroke="#FFCD1A"/>
<path d="M662.726 94.3794L683.221 119.13L713.087 107.274L688.336 127.769L700.185 157.64L679.697 132.885L649.827 144.734L674.582 124.246L662.726 94.3794Z" fill="#FFCD1A" stroke="black" stroke-miterlimit="10"/>
<mask id="path-6-inside-1_285_4419" fill="white">
<path fill-rule="evenodd" clip-rule="evenodd" d="M561.855 25.3222C557.126 19.6885 548.726 18.9549 543.092 23.6837L517.169 45.4426L517.169 45.4425L539.691 26.5379C545.349 21.7892 546.085 13.3533 541.337 7.69582C536.588 2.03836 528.152 1.30167 522.495 6.0504L500.392 24.6031L500.812 24.0391C505.726 17.4435 504.362 8.11317 497.767 3.19934C491.171 -1.71449 481.841 -0.351086 476.927 6.24458L471.022 14.1708L449.373 32.342C437.625 42.203 431.553 56.3169 431.518 70.5414L319.37 164.675C297.158 183.319 294.266 216.44 312.91 238.652C331.554 260.864 364.675 263.756 386.887 245.112L504.287 146.57C515.31 146.357 526.335 142.515 535.437 134.875L542.473 128.969L568.759 106.905L578.627 98.6218C584.285 93.8731 585.022 85.4372 580.273 79.7797C575.524 74.1223 567.088 73.3856 561.431 78.1343L551.562 86.4175L551.52 86.3667L571.687 69.4389C577.33 64.7019 578.065 56.287 573.328 50.6436C568.591 45.0001 560.176 44.2653 554.533 49.0022L534.366 65.93L534.294 65.8441L560.216 44.0852C565.85 39.3564 566.584 30.9559 561.855 25.3222Z"/>
</mask>
<path fill-rule="evenodd" clip-rule="evenodd" d="M561.855 25.3222C557.126 19.6885 548.726 18.9549 543.092 23.6837L517.169 45.4426L517.169 45.4425L539.691 26.5379C545.349 21.7892 546.085 13.3533 541.337 7.69582C536.588 2.03836 528.152 1.30167 522.495 6.0504L500.392 24.6031L500.812 24.0391C505.726 17.4435 504.362 8.11317 497.767 3.19934C491.171 -1.71449 481.841 -0.351086 476.927 6.24458L471.022 14.1708L449.373 32.342C437.625 42.203 431.553 56.3169 431.518 70.5414L319.37 164.675C297.158 183.319 294.266 216.44 312.91 238.652C331.554 260.864 364.675 263.756 386.887 245.112L504.287 146.57C515.31 146.357 526.335 142.515 535.437 134.875L542.473 128.969L568.759 106.905L578.627 98.6218C584.285 93.8731 585.022 85.4372 580.273 79.7797C575.524 74.1223 567.088 73.3856 561.431 78.1343L551.562 86.4175L551.52 86.3667L571.687 69.4389C577.33 64.7019 578.065 56.287 573.328 50.6436C568.591 45.0001 560.176 44.2653 554.533 49.0022L534.366 65.93L534.294 65.8441L560.216 44.0852C565.85 39.3564 566.584 30.9559 561.855 25.3222Z" fill="#FFEACB"/>
<path d="M517.169 45.4426L516.403 46.0855L517.046 46.8515L517.812 46.2086L517.169 45.4426ZM517.169 45.4425L516.526 44.6766L515.76 45.3195L516.403 46.0854L517.169 45.4425ZM500.392 24.6031L499.59 24.0057L501.035 25.369L500.392 24.6031ZM500.812 24.0391L501.614 24.6366L501.614 24.6366L500.812 24.0391ZM497.767 3.19934L497.169 4.00125L497.169 4.00125L497.767 3.19934ZM476.927 6.24458L476.125 5.64714L476.125 5.64714L476.927 6.24458ZM471.022 14.1708L471.665 14.9367L471.754 14.8617L471.824 14.7682L471.022 14.1708ZM449.373 32.342L450.016 33.1079L449.373 32.342ZM431.518 70.5414L432.161 71.3073L432.517 71.0085L432.518 70.5438L431.518 70.5414ZM319.37 164.675L320.013 165.441L319.37 164.675ZM386.887 245.112L386.244 244.346L386.244 244.346L386.887 245.112ZM504.287 146.57L504.268 145.57L503.915 145.577L503.644 145.804L504.287 146.57ZM535.437 134.875L536.08 135.641L536.08 135.641L535.437 134.875ZM542.473 128.969L541.83 128.203L541.83 128.203L542.473 128.969ZM568.759 106.905L569.402 107.671L569.402 107.671L568.759 106.905ZM578.627 98.6218L577.985 97.8559L577.985 97.8559L578.627 98.6218ZM551.562 86.4175L550.797 87.0604L551.439 87.8264L552.205 87.1835L551.562 86.4175ZM551.52 86.3667L550.877 85.6007L550.111 86.2436L550.754 87.0096L551.52 86.3667ZM534.366 65.93L533.6 66.5729L534.243 67.3389L535.009 66.696L534.366 65.93ZM534.294 65.8441L533.651 65.0782L532.885 65.7211L533.528 66.487L534.294 65.8441ZM543.735 24.4496C548.946 20.0759 556.715 20.7544 561.089 25.9651L562.621 24.6793C557.537 18.6226 548.506 17.8339 542.449 22.9178L543.735 24.4496ZM517.812 46.2086L543.735 24.4496L542.449 22.9178L516.526 44.6767L517.812 46.2086ZM516.403 46.0854L516.403 46.0855L517.935 44.7997L517.935 44.7996L516.403 46.0854ZM539.048 25.772L516.526 44.6766L517.812 46.2085L540.334 27.3038L539.048 25.772ZM540.571 8.33873C544.964 13.5732 544.283 21.3783 539.048 25.772L540.334 27.3038C546.415 22.2 547.206 13.1334 542.103 7.05291L540.571 8.33873ZM523.138 6.81634C528.372 2.42269 536.177 3.10429 540.571 8.33873L542.103 7.05291C536.999 0.972435 527.932 0.180661 521.852 5.28446L523.138 6.81634ZM501.035 25.369L523.138 6.81634L521.852 5.28446L499.749 23.8372L501.035 25.369ZM500.01 23.4417L499.59 24.0057L501.194 25.2005L501.614 24.6366L500.01 23.4417ZM497.169 4.00125C503.322 8.58513 504.594 17.2889 500.01 23.4417L501.614 24.6366C506.858 17.598 505.403 7.64121 498.364 2.39742L497.169 4.00125ZM477.729 6.84201C482.313 0.689235 491.016 -0.582622 497.169 4.00125L498.364 2.39742C491.326 -2.84637 481.369 -1.39141 476.125 5.64714L477.729 6.84201ZM471.824 14.7682L477.729 6.84201L476.125 5.64714L470.22 13.5733L471.824 14.7682ZM450.016 33.1079L471.665 14.9367L470.379 13.4048L448.73 31.5761L450.016 33.1079ZM432.518 70.5438C432.552 56.6014 438.503 42.7716 450.016 33.1079L448.73 31.5761C436.747 41.6345 430.553 56.0324 430.518 70.5389L432.518 70.5438ZM320.013 165.441L432.161 71.3073L430.875 69.7754L318.727 163.909L320.013 165.441ZM313.676 238.009C295.387 216.22 298.224 183.73 320.013 165.441L318.727 163.909C296.092 182.909 293.145 216.66 312.144 239.295L313.676 238.009ZM386.244 244.346C364.455 262.635 331.965 259.798 313.676 238.009L312.144 239.295C331.143 261.93 364.895 264.877 387.53 245.878L386.244 244.346ZM503.644 145.804L386.244 244.346L387.53 245.878L504.93 147.336L503.644 145.804ZM534.794 134.109C525.873 141.597 515.07 145.361 504.268 145.57L504.306 147.57C515.549 147.353 526.797 143.433 536.08 135.641L534.794 134.109ZM541.83 128.203L534.794 134.109L536.08 135.641L543.116 129.735L541.83 128.203ZM568.116 106.139L541.83 128.203L543.116 129.735L569.402 107.671L568.116 106.139ZM577.985 97.8559L568.116 106.139L569.402 107.671L579.27 99.3878L577.985 97.8559ZM579.507 80.4226C583.901 85.6571 583.219 93.4622 577.985 97.8559L579.27 99.3878C585.351 94.284 586.143 85.2173 581.039 79.1368L579.507 80.4226ZM562.074 78.9003C567.308 74.5066 575.113 75.1882 579.507 80.4226L581.039 79.1368C575.935 73.0564 566.868 72.2646 560.788 77.3684L562.074 78.9003ZM552.205 87.1835L562.074 78.9003L560.788 77.3684L550.92 85.6516L552.205 87.1835ZM550.754 87.0096L550.797 87.0604L552.328 85.7746L552.286 85.7238L550.754 87.0096ZM571.044 68.6729L550.877 85.6007L552.163 87.1326L572.33 70.2048L571.044 68.6729ZM572.562 51.2865C576.944 56.5069 576.264 64.2911 571.044 68.6729L572.33 70.2048C578.396 65.1128 579.186 56.0671 574.094 50.0007L572.562 51.2865ZM555.176 49.7682C560.396 45.3863 568.18 46.0661 572.562 51.2865L574.094 50.0007C569.002 43.9342 559.956 43.1443 553.89 48.2363L555.176 49.7682ZM535.009 66.696L555.176 49.7682L553.89 48.2363L533.723 65.1641L535.009 66.696ZM533.528 66.487L533.6 66.5729L535.132 65.2871L535.06 65.2012L533.528 66.487ZM559.574 43.3193L533.651 65.0782L534.937 66.6101L560.859 44.8511L559.574 43.3193ZM561.089 25.9651C565.463 31.1758 564.784 38.9455 559.574 43.3193L560.859 44.8511C566.916 39.7673 567.705 30.736 562.621 24.6793L561.089 25.9651Z" fill="black" mask="url(#path-6-inside-1_285_4419)"/>
<path d="M245.912 256.278H257.651C351.815 256.278 428.151 332.613 428.151 426.778V515.894H43.5606L53.672 427.73C64.8767 330.034 147.575 256.278 245.912 256.278Z" fill="#FED908" stroke="black"/>
<circle cx="252.903" cy="236.646" r="182.034" fill="#FFEACB" stroke="black"/>
<mask id="path-10-inside-2_285_4419" fill="white">
<path fill-rule="evenodd" clip-rule="evenodd" d="M481.642 261.57C476.791 256.041 468.377 255.492 462.848 260.343L437.407 282.663L437.407 282.663L459.51 263.27C465.062 258.399 465.615 249.949 460.743 244.397C455.872 238.845 447.422 238.293 441.87 243.164L420.177 262.196L420.585 261.622C425.354 254.921 423.787 245.623 417.085 240.854C410.384 236.086 401.085 237.653 396.317 244.354L390.586 252.408L369.341 271.048C357.811 281.163 352.049 295.407 352.325 309.628L242.262 406.192C220.463 425.317 218.295 458.493 237.421 480.292C256.546 502.092 289.722 504.259 311.521 485.134L426.739 384.048C437.754 383.594 448.693 379.512 457.625 371.675L490.328 342.983L500.013 334.486C505.565 329.614 506.117 321.164 501.246 315.612C496.375 310.06 487.925 309.508 482.372 314.379L472.688 322.876L472.644 322.826L492.436 305.462C497.975 300.602 498.525 292.173 493.666 286.635C488.807 281.096 480.378 280.546 474.839 285.405L455.047 302.77L454.973 302.685L480.414 280.365C485.943 275.514 486.493 267.099 481.642 261.57Z"/>
</mask>
<path fill-rule="evenodd" clip-rule="evenodd" d="M481.642 261.57C476.791 256.041 468.377 255.492 462.848 260.343L437.407 282.663L437.407 282.663L459.51 263.27C465.062 258.399 465.615 249.949 460.743 244.397C455.872 238.845 447.422 238.293 441.87 243.164L420.177 262.196L420.585 261.622C425.354 254.921 423.787 245.623 417.085 240.854C410.384 236.086 401.085 237.653 396.317 244.354L390.586 252.408L369.341 271.048C357.811 281.163 352.049 295.407 352.325 309.628L242.262 406.192C220.463 425.317 218.295 458.493 237.421 480.292C256.546 502.092 289.722 504.259 311.521 485.134L426.739 384.048C437.754 383.594 448.693 379.512 457.625 371.675L490.328 342.983L500.013 334.486C505.565 329.614 506.117 321.164 501.246 315.612C496.375 310.06 487.925 309.508 482.372 314.379L472.688 322.876L472.644 322.826L492.436 305.462C497.975 300.602 498.525 292.173 493.666 286.635C488.807 281.096 480.378 280.546 474.839 285.405L455.047 302.77L454.973 302.685L480.414 280.365C485.943 275.514 486.493 267.099 481.642 261.57Z" fill="#FFEACB"/>
<path d="M462.848 260.343L462.188 259.591L462.848 260.343ZM437.407 282.663L436.655 283.323L437.315 284.074L438.066 283.415L437.407 282.663ZM437.407 282.663L436.747 281.911L435.995 282.571L436.655 283.322L437.407 282.663ZM420.177 262.196L419.362 261.616L420.837 262.947L420.177 262.196ZM420.585 261.622L419.77 261.043L419.77 261.043L420.585 261.622ZM396.317 244.354L395.502 243.775L395.502 243.775L396.317 244.354ZM390.586 252.408L391.246 253.16L391.333 253.083L391.401 252.988L390.586 252.408ZM369.341 271.048L370 271.8L369.341 271.048ZM352.325 309.628L352.984 310.38L353.333 310.074L353.324 309.609L352.325 309.628ZM242.262 406.192L241.602 405.44L241.602 405.44L242.262 406.192ZM311.521 485.134L310.862 484.382L310.862 484.382L311.521 485.134ZM426.739 384.048L426.697 383.048L426.345 383.063L426.079 383.296L426.739 384.048ZM457.625 371.675L456.966 370.923L456.966 370.923L457.625 371.675ZM490.328 342.983L490.988 343.734L490.988 343.734L490.328 342.983ZM500.013 334.486L499.353 333.734L499.353 333.734L500.013 334.486ZM472.688 322.876L471.936 323.536L472.595 324.287L473.347 323.628L472.688 322.876ZM472.644 322.826L471.984 322.075L471.233 322.734L471.892 323.486L472.644 322.826ZM474.839 285.405L475.499 286.157L474.839 285.405ZM455.047 302.77L454.296 303.429L454.955 304.181L455.707 303.521L455.047 302.77ZM454.973 302.685L454.314 301.934L453.562 302.593L454.222 303.345L454.973 302.685ZM480.414 280.365L481.074 281.116L480.414 280.365ZM463.507 261.094C468.621 256.608 476.404 257.116 480.89 262.23L482.394 260.911C477.179 254.967 468.132 254.376 462.188 259.591L463.507 261.094ZM438.066 283.415L463.507 261.094L462.188 259.591L436.747 281.911L438.066 283.415ZM436.655 283.322L436.655 283.323L438.158 282.004L438.158 282.003L436.655 283.322ZM458.851 262.519L436.747 281.911L438.066 283.415L460.17 264.022L458.851 262.519ZM459.992 245.056C464.499 250.194 463.988 258.012 458.851 262.519L460.17 264.022C466.137 258.787 466.73 249.705 461.495 243.737L459.992 245.056ZM442.529 243.916C447.666 239.408 455.484 239.919 459.992 245.056L461.495 243.737C456.259 237.77 447.178 237.177 441.21 242.412L442.529 243.916ZM420.837 262.947L442.529 243.916L441.21 242.412L419.518 261.444L420.837 262.947ZM419.77 261.043L419.362 261.616L420.992 262.775L421.4 262.202L419.77 261.043ZM416.505 241.669C422.757 246.117 424.219 254.791 419.77 261.043L421.4 262.202C426.489 255.051 424.816 245.128 417.665 240.039L416.505 241.669ZM397.132 244.934C401.58 238.683 410.254 237.221 416.505 241.669L417.665 240.039C410.513 234.951 400.591 236.623 395.502 243.775L397.132 244.934ZM391.401 252.988L397.132 244.934L395.502 243.775L389.771 251.828L391.401 252.988ZM370 271.8L391.246 253.16L389.927 251.656L368.681 270.296L370 271.8ZM353.324 309.609C353.054 295.669 358.701 281.713 370 271.8L368.681 270.296C356.921 280.614 351.043 295.144 351.325 309.648L353.324 309.609ZM242.921 406.944L352.984 310.38L351.665 308.877L241.602 405.44L242.921 406.944ZM238.173 479.633C219.411 458.249 221.537 425.705 242.921 406.944L241.602 405.44C219.388 424.93 217.179 458.738 236.669 480.952L238.173 479.633ZM310.862 484.382C289.478 503.143 256.934 501.017 238.173 479.633L236.669 480.952C256.159 503.166 289.967 505.375 312.181 485.885L310.862 484.382ZM426.079 383.296L310.862 484.382L312.181 485.885L427.398 384.799L426.079 383.296ZM456.966 370.923C448.211 378.604 437.493 382.604 426.697 383.048L426.78 385.047C438.015 384.584 449.174 380.419 458.285 372.426L456.966 370.923ZM489.669 342.231L456.966 370.923L458.285 372.426L490.988 343.734L489.669 342.231ZM499.353 333.734L489.669 342.231L490.988 343.734L500.672 335.237L499.353 333.734ZM500.494 316.272C505.001 321.409 504.491 329.227 499.353 333.734L500.672 335.237C506.64 330.002 507.233 320.92 501.998 314.953L500.494 316.272ZM483.032 315.131C488.169 310.624 495.987 311.135 500.494 316.272L501.998 314.953C496.762 308.985 487.68 308.392 481.713 313.627L483.032 315.131ZM473.347 323.628L483.032 315.131L481.713 313.627L472.028 322.124L473.347 323.628ZM471.892 323.486L471.936 323.536L473.439 322.217L473.396 322.167L471.892 323.486ZM491.777 304.71L471.984 322.075L473.303 323.578L493.096 306.213L491.777 304.71ZM492.914 287.294C497.409 292.418 496.9 300.215 491.777 304.71L493.096 306.213C499.049 300.99 499.641 291.929 494.418 285.975L492.914 287.294ZM475.499 286.157C480.622 281.662 488.419 282.171 492.914 287.294L494.418 285.975C489.194 280.022 480.134 279.43 474.18 284.653L475.499 286.157ZM455.707 303.521L475.499 286.157L474.18 284.653L454.388 302.018L455.707 303.521ZM454.222 303.345L454.296 303.429L455.799 302.11L455.725 302.026L454.222 303.345ZM479.755 279.613L454.314 301.934L455.633 303.437L481.074 281.116L479.755 279.613ZM480.89 262.23C485.377 267.344 484.868 275.126 479.755 279.613L481.074 281.116C487.018 275.901 487.609 266.855 482.394 260.911L480.89 262.23Z" fill="black" mask="url(#path-10-inside-2_285_4419)"/>
<path d="M248.275 499.263L166.352 469.032C126.43 454.3 106.01 409.995 120.742 370.073C135.474 330.151 179.779 309.73 219.701 324.462L301.624 354.693L248.275 499.263Z" fill="#FED908" stroke="black"/>
<path d="M257.949 188.077C265.561 201.491 276.392 209.72 290.866 201.507C305.341 193.294 303.832 179.775 296.221 166.361" stroke="black" stroke-width="3"/>
<path d="M326.396 149.239C334.007 162.653 344.838 170.882 359.313 162.669C373.787 154.455 372.278 140.937 364.667 127.523" stroke="black" stroke-width="3"/>
<path d="M275.08 249.097C272.541 258.027 262.698 263.114 253.043 260.369C243.387 257.624 237.691 248.12 240.23 239.19C241.497 234.734 245.797 229.92 250.934 225.637C255.884 221.511 261.526 217.946 265.727 215.75C268.144 219.827 271.067 225.827 273.106 231.94C275.222 238.285 276.347 244.641 275.08 249.097Z" fill="#99E4EE" stroke="black"/>
<path d="M309.645 215.197L311.797 216.187C314.746 217.542 318.186 215.781 318.809 212.596V212.596C319.359 209.787 322.145 208.008 324.924 208.691L326.257 209.019C329.33 209.774 332.411 207.807 333.019 204.7V204.7C333.627 201.594 336.708 199.627 339.782 200.382L340.574 200.577C343.647 201.332 346.728 199.365 347.336 196.259V196.259C347.944 193.152 351.042 191.189 354.115 191.944V191.944C357.465 192.768 360.77 190.387 361.026 186.947L361.186 184.807" stroke="black" stroke-width="3"/>
<path d="M261.043 143.462C262.289 151.514 261.15 169.652 246.628 177.797" stroke="black" stroke-width="3"/>
<path d="M324.578 109.748C331.083 114.653 347.603 122.228 361.648 113.285" stroke="black" stroke-width="3"/>
<path d="M167.893 160.939L356.572 57.9709C315.395 2.20565 240.024 -0.0295307 177.897 22.5683C101.818 44.7824 63.9313 100.609 72.3749 127.888C-3.93779 160.544 14.5 291.5 89.9999 327.5C110.5 315 122 302.558 122 266C183.639 249.017 173.454 184.872 167.893 160.939Z" fill="black"/>
<circle cx="185.67" cy="161.385" r="24" transform="rotate(4.13505 185.67 161.385)" fill="black"/>
<circle cx="219.605" cy="135.766" r="24" transform="rotate(4.13505 219.605 135.766)" fill="black"/>
<circle cx="253.685" cy="108.151" r="24" transform="rotate(4.13505 253.685 108.151)" fill="black"/>
<circle cx="292.32" cy="86.8816" r="24" transform="rotate(4.13505 292.32 86.8816)" fill="black"/>
<circle cx="337.503" cy="72.1012" r="24" transform="rotate(4.13505 337.503 72.1012)" fill="black"/>
<circle r="27" transform="matrix(1 0 0 -1 588.5 380.5)" fill="#99E4EE" stroke="black"/>
<circle r="12.5" transform="matrix(1 0 0 -1 713 269)" fill="#F095FF" stroke="black"/>
</g>
<defs>
<clipPath id="clip0_285_4419">
<rect width="726" height="517" fill="white"/>
</clipPath>
</defs>
</svg>
